<svg xmlns="http://www.w3.org/2000/svg" xmlns:xlink="http://www.w3.org/1999/xlink" contentStyleType="text/css" data-diagram-type="CLASS" height="1130px" preserveAspectRatio="none" style="width:2593px;height:1130px;background:#FFFFFF;" version="1.1" viewBox="0 0 2593 1130" width="2593px" zoomAndPan="magnify"><title>TimeSlave Class Diagram</title><defs/><g><text fill="#000000" font-family="Verdana" font-size="22" font-weight="bold" lengthAdjust="spacing" textLength="312.9414" x="1135.5293" y="35.4209">TimeSlave Class Diagram</text><rect fill="transparent" height="128.0781" id="_legend" rx="7.5" ry="7.5" style="stroke:#000000;stroke-width:1;" width="290.6016" x="10" y="56.6094"/><text fill="#000000" font-family="Verdana" font-size="14" font-weight="bold" lengthAdjust="spacing" textLength="41.2139" x="19.874" y="76.6045">Color</text><text fill="#000000" font-family="Verdana" font-size="14" font-weight="bold" lengthAdjust="spacing" textLength="90.5488" x="114.7021" y="76.6045">Description</text><rect fill="#E0FFFF" height="16.2969" style="stroke:transparent;stroke-width:1;" width="94.8281" x="15" y="79.9063"/><text fill="#000000" font-family="Verdana" font-size="14" lengthAdjust="spacing" textLength="17.8008" x="15" y="92.9014">&#160;&#160;&#160;&#160;</text><text fill="#000000" font-family="Verdana" font-size="14" lengthAdjust="spacing" textLength="154.6221" x="114.2783" y="92.9014">TimeSlave application</text><rect fill="#FFA07A" height="16.2969" style="stroke:transparent;stroke-width:1;" width="94.8281" x="15" y="96.2031"/><text fill="#000000" font-family="Verdana" font-size="14" lengthAdjust="spacing" textLength="8.9004" x="15" y="109.1982">&#160;&#160;</text><text fill="#000000" font-family="Verdana" font-size="14" lengthAdjust="spacing" textLength="121.8369" x="114.2783" y="109.1982">gPTP Engine core</text><rect fill="#F5DEB3" height="16.2969" style="stroke:transparent;stroke-width:1;" width="94.8281" x="15" y="112.5"/><text fill="#000000" font-family="Verdana" font-size="14" lengthAdjust="spacing" textLength="35.6016" x="15" y="125.4951">&#160;&#160;&#160;&#160;&#160;&#160;&#160;&#160;</text><text fill="#000000" font-family="Verdana" font-size="14" lengthAdjust="spacing" textLength="137.1768" x="114.2783" y="125.4951">Protocol processing</text><rect fill="#E6E6FA" height="16.2969" style="stroke:transparent;stroke-width:1;" width="94.8281" x="15" y="128.7969"/><text fill="#000000" font-family="Verdana" font-size="14" lengthAdjust="spacing" textLength="22.251" x="15" y="141.792">&#160;&#160;&#160;&#160;&#160;</text><text fill="#000000" font-family="Verdana" font-size="14" lengthAdjust="spacing" textLength="112.8203" x="114.2783" y="141.792">PHC adjustment</text><rect fill="#FFB6C1" height="16.2969" style="stroke:transparent;stroke-width:1;" width="94.8281" x="15" y="145.0938"/><text fill="#000000" font-family="Verdana" font-size="14" lengthAdjust="spacing" textLength="17.8008" x="15" y="158.0889">&#160;&#160;&#160;&#160;</text><text fill="#000000" font-family="Verdana" font-size="14" lengthAdjust="spacing" textLength="113.292" x="114.2783" y="158.0889">IPC components</text><rect fill="#F5F5DC" height="16.2969" style="stroke:transparent;stroke-width:1;" width="94.8281" x="15" y="161.3906"/><text fill="#000000" font-family="Verdana" font-size="14" lengthAdjust="spacing" textLength="35.6016" x="15" y="174.3857">&#160;&#160;&#160;&#160;&#160;&#160;&#160;&#160;</text><text fill="#000000" font-family="Verdana" font-size="14" lengthAdjust="spacing" textLength="109.0127" x="114.2783" y="174.3857">Data structures</text><line style="stroke:#000000;stroke-width:1;" x1="15" x2="295.6016" y1="63.6094" y2="63.6094"/><line style="stroke:#000000;stroke-width:1;" x1="15" x2="295.6016" y1="79.9063" y2="79.9063"/><line style="stroke:#000000;stroke-width:1;" x1="15" x2="295.6016" y1="96.2031" y2="96.2031"/><line style="stroke:#000000;stroke-width:1;" x1="15" x2="295.6016" y1="112.5" y2="112.5"/><line style="stroke:#000000;stroke-width:1;" x1="15" x2="295.6016" y1="128.7969" y2="128.7969"/><line style="stroke:#000000;stroke-width:1;" x1="15" x2="295.6016" y1="145.0938" y2="145.0938"/><line style="stroke:#000000;stroke-width:1;" x1="15" x2="295.6016" y1="161.3906" y2="161.3906"/><line style="stroke:#000000;stroke-width:1;" x1="15" x2="295.6016" y1="177.6875" y2="177.6875"/><line style="stroke:#000000;stroke-width:1;" x1="15" x2="15" y1="63.6094" y2="177.6875"/><line style="stroke:#000000;stroke-width:1;" x1="109.8281" x2="109.8281" y1="63.6094" y2="177.6875"/><line style="stroke:#000000;stroke-width:1;" x1="295.6016" x2="295.6016" y1="63.6094" y2="177.6875"/><!--cluster score::ts--><g id="cluster_score::ts"><path d="M1282.5,196.6875 L1352.3721,196.6875 A3.75,3.75 0 0 1 1354.8721,199.1875 L1361.8721,218.9844 L1986.5,218.9844 A2.5,2.5 0 0 1 1989,221.4844 L1989,751.1875 A2.5,2.5 0 0 1 1986.5,753.6875 L1282.5,753.6875 A2.5,2.5 0 0 1 1280,751.1875 L1280,199.1875 A2.5,2.5 0 0 1 1282.5,196.6875 " fill="#FFFFFF" style="stroke:#000000;stroke-width:1;"/><line style="stroke:#000000;stroke-width:1;" x1="1280" x2="1361.8721" y1="218.9844" y2="218.9844"/><text fill="#000000" font-family="Verdana" font-size="14" font-weight="bold" lengthAdjust="spacing" textLength="68.8721" x="1284" y="211.6826">score::ts</text></g><!--cluster score::ts::details--><g id="cluster_score::ts::details"><path d="M13.5,777.6875 L148.1563,777.6875 A3.75,3.75 0 0 1 150.6563,780.1875 L157.6563,799.9844 L2583.5,799.9844 A2.5,2.5 0 0 1 2586,802.4844 L2586,1121.1875 A2.5,2.5 0 0 1 2583.5,1123.6875 L13.5,1123.6875 A2.5,2.5 0 0 1 11,1121.1875 L11,780.1875 A2.5,2.5 0 0 1 13.5,777.6875 " fill="#FFFFFF" style="stroke:#000000;stroke-width:1;"/><line style="stroke:#000000;stroke-width:1;" x1="11" x2="157.6563" y1="799.9844" y2="799.9844"/><text fill="#000000" font-family="Verdana" font-size="14" font-weight="bold" lengthAdjust="spacing" textLength="133.6563" x="15" y="792.6826">score::ts::details</text></g><!--class TimeSlave--><g id="elem_TimeSlave"><rect codeLine="17" fill="#E0FFFF" height="125.4844" id="TimeSlave" rx="2.5" ry="2.5" style="stroke:#000000;stroke-width:1;" width="273.0605" x="1699.5" y="231.6875"/><ellipse cx="1795.8071" cy="245.6875" fill="#FFFFFF" rx="9" ry="9" style="stroke:#000000;stroke-width:1;"/><path d="M1798.7759,251.3281 Q1798.1978,251.625 1797.5571,251.7656 Q1796.9165,251.9219 1796.2134,251.9219 Q1793.7134,251.9219 1792.3853,250.2813 Q1791.0728,248.625 1791.0728,245.5 Q1791.0728,242.375 1792.3853,240.7188 Q1793.7134,239.0625 1796.2134,239.0625 Q1796.9165,239.0625 1797.5571,239.2188 Q1798.2134,239.375 1798.7759,239.6719 L1798.7759,242.3906 Q1798.1509,241.8125 1797.5571,241.5469 Q1796.9634,241.2656 1796.3384,241.2656 Q1794.9946,241.2656 1794.3071,242.3438 Q1793.6196,243.4063 1793.6196,245.5 Q1793.6196,247.5938 1794.3071,248.6719 Q1794.9946,249.7344 1796.3384,249.7344 Q1796.9634,249.7344 1797.5571,249.4688 Q1798.1509,249.1875 1798.7759,248.6094 L1798.7759,251.3281 Z " fill="#000000"/><text fill="#000000" font-family="Verdana" font-size="14" lengthAdjust="spacing" textLength="72.9463" x="1813.3071" y="250.5342">TimeSlave</text><line style="stroke:#000000;stroke-width:1;" x1="1700.5" x2="1971.5605" y1="259.6875" y2="259.6875"/><rect fill="transparent" height="6" style="stroke:#000000;stroke-width:1;" width="6" x="1707.5" y="270.3359"/><text fill="#000000" font-family="Verdana" font-size="14" lengthAdjust="spacing" textLength="186.9629" x="1717.5" y="276.6826">opts_ : GptpEngineOptions</text><rect fill="transparent" height="6" style="stroke:#000000;stroke-width:1;" width="6" x="1707.5" y="286.6328"/><text fill="#000000" font-family="Verdana" font-size="14" lengthAdjust="spacing" textLength="249.0605" x="1717.5" y="292.9795">engine_ : unique_ptr&lt;GptpEngine&gt;</text><rect fill="transparent" height="6" style="stroke:#000000;stroke-width:1;" width="6" x="1707.5" y="302.9297"/><text fill="#000000" font-family="Verdana" font-size="14" lengthAdjust="spacing" textLength="204.9209" x="1717.5" y="309.2764">publisher_ : GptpIpcPublisher</text><line style="stroke:#000000;stroke-width:1;" x1="1700.5" x2="1971.5605" y1="316.5781" y2="316.5781"/><ellipse cx="1710.5" cy="330.2266" fill="#FFFFFF" rx="3" ry="3" style="stroke:#000000;stroke-width:1;"/><text fill="#000000" font-family="Verdana" font-size="14" lengthAdjust="spacing" textLength="153.1592" x="1717.5" y="333.5732">Initialize(ctx) : int32_t</text><ellipse cx="1710.5" cy="346.5234" fill="#FFFFFF" rx="3" ry="3" style="stroke:#000000;stroke-width:1;"/><text fill="#000000" font-family="Verdana" font-size="14" lengthAdjust="spacing" textLength="177.4541" x="1717.5" y="349.8701">Run(stop_token) : int32_t</text></g><!--class GptpEngine--><g id="elem_GptpEngine"><rect codeLine="25" fill="#FFA07A" height="321.0469" id="GptpEngine" rx="2.5" ry="2.5" style="stroke:#000000;stroke-width:1;" width="349.459" x="1494.5" y="416.6875"/><ellipse cx="1624.4331" cy="430.6875" fill="#FFFFFF" rx="9" ry="9" style="stroke:#000000;stroke-width:1;"/><path d="M1627.4019,436.3281 Q1626.8237,436.625 1626.1831,436.7656 Q1625.5425,436.9219 1624.8394,436.9219 Q1622.3394,436.9219 1621.0112,435.2813 Q1619.6987,433.625 1619.6987,430.5 Q1619.6987,427.375 1621.0112,425.7188 Q1622.3394,424.0625 1624.8394,424.0625 Q1625.5425,424.0625 1626.1831,424.2188 Q1626.8394,424.375 1627.4019,424.6719 L1627.4019,427.3906 Q1626.7769,426.8125 1626.1831,426.5469 Q1625.5894,426.2656 1624.9644,426.2656 Q1623.6206,426.2656 1622.9331,427.3438 Q1622.2456,428.4063 1622.2456,430.5 Q1622.2456,432.5938 1622.9331,433.6719 Q1623.6206,434.7344 1624.9644,434.7344 Q1625.5894,434.7344 1626.1831,434.4688 Q1626.7769,434.1875 1627.4019,433.6094 L1627.4019,436.3281 Z " fill="#000000"/><text fill="#000000" font-family="Verdana" font-size="14" lengthAdjust="spacing" textLength="82.0928" x="1641.9331" y="435.5342">GptpEngine</text><line style="stroke:#000000;stroke-width:1;" x1="1495.5" x2="1842.959" y1="444.6875" y2="444.6875"/><rect fill="transparent" height="6" style="stroke:#000000;stroke-width:1;" width="6" x="1502.5" y="455.3359"/><text fill="#000000" font-family="Verdana" font-size="14" lengthAdjust="spacing" textLength="186.9629" x="1512.5" y="461.6826">opts_ : GptpEngineOptions</text><rect fill="transparent" height="6" style="stroke:#000000;stroke-width:1;" width="6" x="1502.5" y="471.6328"/><text fill="#000000" font-family="Verdana" font-size="14" lengthAdjust="spacing" textLength="165.1563" x="1512.5" y="477.9795">rx_thread_ : std::thread</text><rect fill="transparent" height="6" style="stroke:#000000;stroke-width:1;" width="6" x="1502.5" y="487.9297"/><text fill="#000000" font-family="Verdana" font-size="14" lengthAdjust="spacing" textLength="198.2559" x="1512.5" y="494.2764">pdelay_thread_ : std::thread</text><rect fill="transparent" height="6" style="stroke:#000000;stroke-width:1;" width="6" x="1502.5" y="504.2266"/><text fill="#000000" font-family="Verdana" font-size="14" lengthAdjust="spacing" textLength="210.1025" x="1512.5" y="510.5732">sync_sm_ : SyncStateMachine</text><rect fill="transparent" height="6" style="stroke:#000000;stroke-width:1;" width="6" x="1502.5" y="520.5234"/><text fill="#000000" font-family="Verdana" font-size="14" lengthAdjust="spacing" textLength="204.8936" x="1512.5" y="526.8701">pdelay_ : PeerDelayMeasurer</text><rect fill="transparent" height="6" style="stroke:#000000;stroke-width:1;" width="6" x="1502.5" y="536.8203"/><text fill="#000000" font-family="Verdana" font-size="14" lengthAdjust="spacing" textLength="193.8467" x="1512.5" y="543.167">phc_adjuster_ : PhcAdjuster</text><rect fill="transparent" height="6" style="stroke:#000000;stroke-width:1;" width="6" x="1502.5" y="553.1172"/><text fill="#000000" font-family="Verdana" font-size="14" lengthAdjust="spacing" textLength="246.2305" x="1512.5" y="559.4639">socket_ : unique_ptr&lt;IRawSocket&gt;</text><rect fill="transparent" height="6" style="stroke:#000000;stroke-width:1;" width="6" x="1502.5" y="569.4141"/><text fill="#000000" font-family="Verdana" font-size="14" lengthAdjust="spacing" textLength="288.873" x="1512.5" y="575.7607">identity_ : unique_ptr&lt;INetworkIdentity&gt;</text><rect fill="transparent" height="6" style="stroke:#000000;stroke-width:1;" width="6" x="1502.5" y="585.7109"/><text fill="#000000" font-family="Verdana" font-size="14" lengthAdjust="spacing" textLength="150.2539" x="1512.5" y="592.0576">codec_ : FrameCodec</text><rect fill="transparent" height="6" style="stroke:#000000;stroke-width:1;" width="6" x="1502.5" y="602.0078"/><text fill="#000000" font-family="Verdana" font-size="14" lengthAdjust="spacing" textLength="205.4131" x="1512.5" y="608.3545">parser_ : GptpMessageParser</text><rect fill="transparent" height="6" style="stroke:#000000;stroke-width:1;" width="6" x="1502.5" y="618.3047"/><text fill="#000000" font-family="Verdana" font-size="14" lengthAdjust="spacing" textLength="212.3721" x="1512.5" y="624.6514">snapshot_mutex_ : std::mutex</text><rect fill="transparent" height="6" style="stroke:#000000;stroke-width:1;" width="6" x="1502.5" y="634.6016"/><text fill="#000000" font-family="Verdana" font-size="14" lengthAdjust="spacing" textLength="236.6328" x="1512.5" y="640.9482">pending_snapshot_ : GptpIpcData</text><rect fill="transparent" height="6" style="stroke:#000000;stroke-width:1;" width="6" x="1502.5" y="650.8984"/><text fill="#000000" font-family="Verdana" font-size="14" lengthAdjust="spacing" textLength="230.7813" x="1512.5" y="657.2451">current_snapshot_ : GptpIpcData</text><line style="stroke:#000000;stroke-width:1;" x1="1495.5" x2="1842.959" y1="664.5469" y2="664.5469"/><ellipse cx="1505.5" cy="678.1953" fill="#FFFFFF" rx="3" ry="3" style="stroke:#000000;stroke-width:1;"/><text fill="#000000" font-family="Verdana" font-size="14" lengthAdjust="spacing" textLength="113.0391" x="1512.5" y="681.542">Initialize() : bool</text><ellipse cx="1505.5" cy="694.4922" fill="#FFFFFF" rx="3" ry="3" style="stroke:#000000;stroke-width:1;"/><text fill="#000000" font-family="Verdana" font-size="14" lengthAdjust="spacing" textLength="132.1934" x="1512.5" y="697.8389">Deinitialize() : bool</text><ellipse cx="1505.5" cy="710.7891" fill="#FFFFFF" rx="3" ry="3" style="stroke:#000000;stroke-width:1;"/><text fill="#000000" font-family="Verdana" font-size="14" lengthAdjust="spacing" textLength="172.751" x="1512.5" y="714.1357">FinalizeSnapshot() : void</text><ellipse cx="1505.5" cy="727.0859" fill="#FFFFFF" rx="3" ry="3" style="stroke:#000000;stroke-width:1;"/><text fill="#000000" font-family="Verdana" font-size="14" lengthAdjust="spacing" textLength="325.459" x="1512.5" y="730.4326">ReadPTPSnapshot(data : GptpIpcData&amp;) : bool</text></g><!--class GptpEngineOptions--><g id="elem_GptpEngineOptions"><rect codeLine="45" fill="#F5F5DC" height="125.4844" id="GptpEngineOptions" rx="2.5" ry="2.5" style="stroke:#000000;stroke-width:1;" width="368.1963" x="1296" y="231.6875"/><ellipse cx="1408.293" cy="245.6875" fill="#FFFFFF" rx="9" ry="9" style="stroke:#000000;stroke-width:1;"/><path d="M1407.7773,246.25 Q1405.918,245.5469 1405.2617,244.7813 Q1404.6211,244 1404.6211,242.6875 Q1404.6211,241 1405.6992,240.0313 Q1406.7773,239.0625 1408.6523,239.0625 Q1409.5117,239.0625 1410.3555,239.2656 Q1411.2148,239.4531 1412.0586,239.8438 L1412.0586,242.2344 Q1411.2773,241.6719 1410.4492,241.3906 Q1409.6367,241.0938 1408.8398,241.0938 Q1407.9648,241.0938 1407.4805,241.4531 Q1407.0117,241.8125 1407.0117,242.4688 Q1407.0117,242.9844 1407.3555,243.3281 Q1407.6992,243.6563 1408.793,244.0625 L1409.8555,244.4688 Q1411.3398,245.0156 1412.043,245.9219 Q1412.7617,246.8281 1412.7617,248.2031 Q1412.7617,250.0781 1411.6523,251 Q1410.543,251.9219 1408.293,251.9219 Q1407.3711,251.9219 1406.4492,251.7031 Q1405.5273,251.4844 1404.668,251.0625 L1404.668,248.5313 Q1405.6367,249.2188 1406.5586,249.5625 Q1407.4805,249.9063 1408.3711,249.9063 Q1409.2773,249.9063 1409.7773,249.5 Q1410.2773,249.0781 1410.2773,248.3438 Q1410.2773,247.7813 1409.9336,247.375 Q1409.6055,246.9531 1408.9805,246.7031 L1407.7773,246.25 Z " fill="#000000"/><text fill="#000000" font-family="Verdana" font-size="14" lengthAdjust="spacing" textLength="136.1104" x="1425.793" y="250.5342">GptpEngineOptions</text><line style="stroke:#000000;stroke-width:1;" x1="1297" x2="1663.1963" y1="259.6875" y2="259.6875"/><ellipse cx="1307" cy="273.3359" fill="transparent" rx="3" ry="3" style="stroke:#000000;stroke-width:1;"/><text fill="#000000" font-family="Verdana" font-size="14" lengthAdjust="spacing" textLength="199.6094" x="1314" y="276.6826">iface_name : string = "eth0"</text><ellipse cx="1307" cy="289.6328" fill="transparent" rx="3" ry="3" style="stroke:#000000;stroke-width:1;"/><text fill="#000000" font-family="Verdana" font-size="14" lengthAdjust="spacing" textLength="223.5762" x="1314" y="292.9795">pdelay_interval_ms : int = 1000</text><ellipse cx="1307" cy="305.9297" fill="transparent" rx="3" ry="3" style="stroke:#000000;stroke-width:1;"/><text fill="#000000" font-family="Verdana" font-size="14" lengthAdjust="spacing" textLength="227.3838" x="1314" y="309.2764">pdelay_warmup_ms : int = 2000</text><ellipse cx="1307" cy="322.2266" fill="transparent" rx="3" ry="3" style="stroke:#000000;stroke-width:1;"/><text fill="#000000" font-family="Verdana" font-size="14" lengthAdjust="spacing" textLength="209.7676" x="1314" y="325.5732">sync_timeout_ms : int = 3300</text><ellipse cx="1307" cy="338.5234" fill="transparent" rx="3" ry="3" style="stroke:#000000;stroke-width:1;"/><text fill="#000000" font-family="Verdana" font-size="14" lengthAdjust="spacing" textLength="344.1963" x="1314" y="341.8701">jump_future_threshold_ns : int64_t = 500000000</text><line style="stroke:#000000;stroke-width:1;" x1="1297" x2="1663.1963" y1="349.1719" y2="349.1719"/></g><!--class FrameCodec--><g id="elem_FrameCodec"><rect codeLine="57" fill="#F5DEB3" height="76.5938" id="FrameCodec" rx="2.5" ry="2.5" style="stroke:#000000;stroke-width:1;" width="373.7813" x="1305" y="845.1875"/><ellipse cx="1444.0522" cy="859.1875" fill="#FFFFFF" rx="9" ry="9" style="stroke:#000000;stroke-width:1;"/><path d="M1447.021,864.8281 Q1446.4429,865.125 1445.8022,865.2656 Q1445.1616,865.4219 1444.4585,865.4219 Q1441.9585,865.4219 1440.6304,863.7813 Q1439.3179,862.125 1439.3179,859 Q1439.3179,855.875 1440.6304,854.2188 Q1441.9585,852.5625 1444.4585,852.5625 Q1445.1616,852.5625 1445.8022,852.7188 Q1446.4585,852.875 1447.021,853.1719 L1447.021,855.8906 Q1446.396,855.3125 1445.8022,855.0469 Q1445.2085,854.7656 1444.5835,854.7656 Q1443.2397,854.7656 1442.5522,855.8438 Q1441.8647,856.9063 1441.8647,859 Q1441.8647,861.0938 1442.5522,862.1719 Q1443.2397,863.2344 1444.5835,863.2344 Q1445.2085,863.2344 1445.8022,862.9688 Q1446.396,862.6875 1447.021,862.1094 L1447.021,864.8281 Z " fill="#000000"/><text fill="#000000" font-family="Verdana" font-size="14" lengthAdjust="spacing" textLength="88.1768" x="1461.5522" y="864.0342">FrameCodec</text><line style="stroke:#000000;stroke-width:1;" x1="1306" x2="1677.7813" y1="873.1875" y2="873.1875"/><line style="stroke:#000000;stroke-width:1;" x1="1306" x2="1677.7813" y1="881.1875" y2="881.1875"/><ellipse cx="1316" cy="894.8359" fill="#FFFFFF" rx="3" ry="3" style="stroke:#000000;stroke-width:1;"/><text fill="#000000" font-family="Verdana" font-size="14" lengthAdjust="spacing" textLength="308.9707" x="1323" y="898.1826">ParseEthernetHeader(buf) : EthernetHeader</text><ellipse cx="1316" cy="911.1328" fill="#FFFFFF" rx="3" ry="3" style="stroke:#000000;stroke-width:1;"/><text fill="#000000" font-family="Verdana" font-size="14" lengthAdjust="spacing" textLength="349.7813" x="1323" y="914.4795">AddEthernetHeader(buf, dst_mac, src_mac) : void</text></g><!--class GptpMessageParser--><g id="elem_GptpMessageParser"><rect codeLine="62" fill="#F5DEB3" height="60.2969" id="GptpMessageParser" rx="2.5" ry="2.5" style="stroke:#000000;stroke-width:1;" width="271.7275" x="382" y="853.6875"/><ellipse cx="444.1582" cy="867.6875" fill="#FFFFFF" rx="9" ry="9" style="stroke:#000000;stroke-width:1;"/><path d="M447.127,873.3281 Q446.5488,873.625 445.9082,873.7656 Q445.2676,873.9219 444.5645,873.9219 Q442.0645,873.9219 440.7363,872.2813 Q439.4238,870.625 439.4238,867.5 Q439.4238,864.375 440.7363,862.7188 Q442.0645,861.0625 444.5645,861.0625 Q445.2676,861.0625 445.9082,861.2188 Q446.5645,861.375 447.127,861.6719 L447.127,864.3906 Q446.502,863.8125 445.9082,863.5469 Q445.3145,863.2656 444.6895,863.2656 Q443.3457,863.2656 442.6582,864.3438 Q441.9707,865.4063 441.9707,867.5 Q441.9707,869.5938 442.6582,870.6719 Q443.3457,871.7344 444.6895,871.7344 Q445.3145,871.7344 445.9082,871.4688 Q446.502,871.1875 447.127,870.6094 L447.127,873.3281 Z " fill="#000000"/><text fill="#000000" font-family="Verdana" font-size="14" lengthAdjust="spacing" textLength="139.9111" x="461.6582" y="872.5342">GptpMessageParser</text><line style="stroke:#000000;stroke-width:1;" x1="383" x2="652.7275" y1="881.6875" y2="881.6875"/><line style="stroke:#000000;stroke-width:1;" x1="383" x2="652.7275" y1="889.6875" y2="889.6875"/><ellipse cx="393" cy="903.3359" fill="#FFFFFF" rx="3" ry="3" style="stroke:#000000;stroke-width:1;"/><text fill="#000000" font-family="Verdana" font-size="14" lengthAdjust="spacing" textLength="247.7275" x="400" y="906.6826">Parse(payload, len, msg_out) : bool</text></g><!--class SyncStateMachine--><g id="elem_SyncStateMachine"><rect codeLine="66" fill="#F5DEB3" height="125.4844" id="SyncStateMachine" rx="2.5" ry="2.5" style="stroke:#000000;stroke-width:1;" width="319.627" x="27" y="821.1875"/><ellipse cx="118.3613" cy="835.1875" fill="#FFFFFF" rx="9" ry="9" style="stroke:#000000;stroke-width:1;"/><path d="M121.3301,840.8281 Q120.752,841.125 120.1113,841.2656 Q119.4707,841.4219 118.7676,841.4219 Q116.2676,841.4219 114.9395,839.7813 Q113.627,838.125 113.627,835 Q113.627,831.875 114.9395,830.2188 Q116.2676,828.5625 118.7676,828.5625 Q119.4707,828.5625 120.1113,828.7188 Q120.7676,828.875 121.3301,829.1719 L121.3301,831.8906 Q120.7051,831.3125 120.1113,831.0469 Q119.5176,830.7656 118.8926,830.7656 Q117.5488,830.7656 116.8613,831.8438 Q116.1738,832.9063 116.1738,835 Q116.1738,837.0938 116.8613,838.1719 Q117.5488,839.2344 118.8926,839.2344 Q119.5176,839.2344 120.1113,838.9688 Q120.7051,838.6875 121.3301,838.1094 L121.3301,840.8281 Z " fill="#000000"/><text fill="#000000" font-family="Verdana" font-size="14" lengthAdjust="spacing" textLength="129.4043" x="135.8613" y="840.0342">SyncStateMachine</text><line style="stroke:#000000;stroke-width:1;" x1="28" x2="345.627" y1="849.1875" y2="849.1875"/><rect fill="transparent" height="6" style="stroke:#000000;stroke-width:1;" width="6" x="35" y="859.8359"/><text fill="#000000" font-family="Verdana" font-size="14" lengthAdjust="spacing" textLength="176.4014" x="45" y="866.1826">timeout_ : atomic&lt;bool&gt;</text><line style="stroke:#000000;stroke-width:1;" x1="28" x2="345.627" y1="873.4844" y2="873.4844"/><ellipse cx="38" cy="887.1328" fill="#FFFFFF" rx="3" ry="3" style="stroke:#000000;stroke-width:1;"/><text fill="#000000" font-family="Verdana" font-size="14" lengthAdjust="spacing" textLength="137.6211" x="45" y="890.4795">OnSync(msg) : void</text><ellipse cx="38" cy="903.4297" fill="#FFFFFF" rx="3" ry="3" style="stroke:#000000;stroke-width:1;"/><text fill="#000000" font-family="Verdana" font-size="14" lengthAdjust="spacing" textLength="295.627" x="45" y="906.7764">OnFollowUp(msg) : optional&lt;SyncResult&gt;</text><ellipse cx="38" cy="919.7266" fill="#FFFFFF" rx="3" ry="3" style="stroke:#000000;stroke-width:1;"/><text fill="#000000" font-family="Verdana" font-size="14" lengthAdjust="spacing" textLength="123.4912" x="45" y="923.0732">IsTimeout() : bool</text><ellipse cx="38" cy="936.0234" fill="#FFFFFF" rx="3" ry="3" style="stroke:#000000;stroke-width:1;"/><text fill="#000000" font-family="Verdana" font-size="14" lengthAdjust="spacing" textLength="229.8105" x="45" y="939.3701">GetNeighborRateRatio() : double</text></g><!--class PeerDelayMeasurer--><g id="elem_PeerDelayMeasurer"><rect codeLine="74" fill="#F5DEB3" height="141.7813" id="PeerDelayMeasurer" rx="2.5" ry="2.5" style="stroke:#000000;stroke-width:1;" width="259.293" x="2013.5" y="812.6875"/><ellipse cx="2070.8286" cy="826.6875" fill="#FFFFFF" rx="9" ry="9" style="stroke:#000000;stroke-width:1;"/><path d="M2073.7974,832.3281 Q2073.2192,832.625 2072.5786,832.7656 Q2071.938,832.9219 2071.2349,832.9219 Q2068.7349,832.9219 2067.4067,831.2813 Q2066.0942,829.625 2066.0942,826.5 Q2066.0942,823.375 2067.4067,821.7188 Q2068.7349,820.0625 2071.2349,820.0625 Q2071.938,820.0625 2072.5786,820.2188 Q2073.2349,820.375 2073.7974,820.6719 L2073.7974,823.3906 Q2073.1724,822.8125 2072.5786,822.5469 Q2071.9849,822.2656 2071.3599,822.2656 Q2070.0161,822.2656 2069.3286,823.3438 Q2068.6411,824.4063 2068.6411,826.5 Q2068.6411,828.5938 2069.3286,829.6719 Q2070.0161,830.7344 2071.3599,830.7344 Q2071.9849,830.7344 2072.5786,830.4688 Q2073.1724,830.1875 2073.7974,829.6094 L2073.7974,832.3281 Z " fill="#000000"/><text fill="#000000" font-family="Verdana" font-size="14" lengthAdjust="spacing" textLength="137.1357" x="2088.3286" y="831.5342">PeerDelayMeasurer</text><line style="stroke:#000000;stroke-width:1;" x1="2014.5" x2="2271.793" y1="840.6875" y2="840.6875"/><rect fill="transparent" height="6" style="stroke:#000000;stroke-width:1;" width="6" x="2021.5" y="851.3359"/><text fill="#000000" font-family="Verdana" font-size="14" lengthAdjust="spacing" textLength="141.5176" x="2031.5" y="857.6826">mutex_ : std::mutex</text><rect fill="transparent" height="6" style="stroke:#000000;stroke-width:1;" width="6" x="2021.5" y="867.6328"/><text fill="#000000" font-family="Verdana" font-size="14" lengthAdjust="spacing" textLength="153.0088" x="2031.5" y="873.9795">result_ : PDelayResult</text><line style="stroke:#000000;stroke-width:1;" x1="2014.5" x2="2271.793" y1="881.2813" y2="881.2813"/><ellipse cx="2024.5" cy="894.9297" fill="#FFFFFF" rx="3" ry="3" style="stroke:#000000;stroke-width:1;"/><text fill="#000000" font-family="Verdana" font-size="14" lengthAdjust="spacing" textLength="192.6914" x="2031.5" y="898.2764">SendRequest(socket) : void</text><ellipse cx="2024.5" cy="911.2266" fill="#FFFFFF" rx="3" ry="3" style="stroke:#000000;stroke-width:1;"/><text fill="#000000" font-family="Verdana" font-size="14" lengthAdjust="spacing" textLength="171.7461" x="2031.5" y="914.5732">OnResponse(msg) : void</text><ellipse cx="2024.5" cy="927.5234" fill="#FFFFFF" rx="3" ry="3" style="stroke:#000000;stroke-width:1;"/><text fill="#000000" font-family="Verdana" font-size="14" lengthAdjust="spacing" textLength="235.293" x="2031.5" y="930.8701">OnResponseFollowUp(msg) : void</text><ellipse cx="2024.5" cy="943.8203" fill="#FFFFFF" rx="3" ry="3" style="stroke:#000000;stroke-width:1;"/><text fill="#000000" font-family="Verdana" font-size="14" lengthAdjust="spacing" textLength="185.8555" x="2031.5" y="947.167">GetResult() : PDelayResult</text></g><!--class SyncResult--><g id="elem_SyncResult"><rect codeLine="83" fill="#F5F5DC" height="125.4844" id="SyncResult" rx="2.5" ry="2.5" style="stroke:#000000;stroke-width:1;" width="285.7959" x="984" y="821.1875"/><ellipse cx="1084.3335" cy="835.1875" fill="#FFFFFF" rx="9" ry="9" style="stroke:#000000;stroke-width:1;"/><path d="M1083.8179,835.75 Q1081.9585,835.0469 1081.3022,834.2813 Q1080.6616,833.5 1080.6616,832.1875 Q1080.6616,830.5 1081.7397,829.5313 Q1082.8179,828.5625 1084.6929,828.5625 Q1085.5522,828.5625 1086.396,828.7656 Q1087.2554,828.9531 1088.0991,829.3438 L1088.0991,831.7344 Q1087.3179,831.1719 1086.4897,830.8906 Q1085.6772,830.5938 1084.8804,830.5938 Q1084.0054,830.5938 1083.521,830.9531 Q1083.0522,831.3125 1083.0522,831.9688 Q1083.0522,832.4844 1083.396,832.8281 Q1083.7397,833.1563 1084.8335,833.5625 L1085.896,833.9688 Q1087.3804,834.5156 1088.0835,835.4219 Q1088.8022,836.3281 1088.8022,837.7031 Q1088.8022,839.5781 1087.6929,840.5 Q1086.5835,841.4219 1084.3335,841.4219 Q1083.4116,841.4219 1082.4897,841.2031 Q1081.5679,840.9844 1080.7085,840.5625 L1080.7085,838.0313 Q1081.6772,838.7188 1082.5991,839.0625 Q1083.521,839.4063 1084.4116,839.4063 Q1085.3179,839.4063 1085.8179,839 Q1086.3179,838.5781 1086.3179,837.8438 Q1086.3179,837.2813 1085.9741,836.875 Q1085.646,836.4531 1085.021,836.2031 L1083.8179,835.75 Z " fill="#000000"/><text fill="#000000" font-family="Verdana" font-size="14" lengthAdjust="spacing" textLength="77.6289" x="1101.8335" y="840.0342">SyncResult</text><line style="stroke:#000000;stroke-width:1;" x1="985" x2="1268.7959" y1="849.1875" y2="849.1875"/><ellipse cx="995" cy="862.8359" fill="transparent" rx="3" ry="3" style="stroke:#000000;stroke-width:1;"/><text fill="#000000" font-family="Verdana" font-size="14" lengthAdjust="spacing" textLength="134.709" x="1002" y="866.1826">master_ns : int64_t</text><ellipse cx="995" cy="879.1328" fill="transparent" rx="3" ry="3" style="stroke:#000000;stroke-width:1;"/><text fill="#000000" font-family="Verdana" font-size="14" lengthAdjust="spacing" textLength="125.1592" x="1002" y="882.4795">offset_ns : int64_t</text><ellipse cx="995" cy="895.4297" fill="transparent" rx="3" ry="3" style="stroke:#000000;stroke-width:1;"/><text fill="#000000" font-family="Verdana" font-size="14" lengthAdjust="spacing" textLength="261.7959" x="1002" y="898.7764">sync_fup_data : GptpIpcSyncFupData</text><ellipse cx="995" cy="911.7266" fill="transparent" rx="3" ry="3" style="stroke:#000000;stroke-width:1;"/><text fill="#000000" font-family="Verdana" font-size="14" lengthAdjust="spacing" textLength="178.3633" x="1002" y="915.0732">time_jump_forward : bool</text><ellipse cx="995" cy="928.0234" fill="transparent" rx="3" ry="3" style="stroke:#000000;stroke-width:1;"/><text fill="#000000" font-family="Verdana" font-size="14" lengthAdjust="spacing" textLength="192.3838" x="1002" y="931.3701">time_jump_backward : bool</text><line style="stroke:#000000;stroke-width:1;" x1="985" x2="1268.7959" y1="938.6719" y2="938.6719"/></g><!--class PDelayResult--><g id="elem_PDelayResult"><rect codeLine="91" fill="#F5F5DC" height="76.5938" id="PDelayResult" rx="2.5" ry="2.5" style="stroke:#000000;stroke-width:1;" width="260.1338" x="689" y="845.1875"/><ellipse cx="769.0786" cy="859.1875" fill="#FFFFFF" rx="9" ry="9" style="stroke:#000000;stroke-width:1;"/><path d="M768.563,859.75 Q766.7036,859.0469 766.0474,858.2813 Q765.4067,857.5 765.4067,856.1875 Q765.4067,854.5 766.4849,853.5313 Q767.563,852.5625 769.438,852.5625 Q770.2974,852.5625 771.1411,852.7656 Q772.0005,852.9531 772.8442,853.3438 L772.8442,855.7344 Q772.063,855.1719 771.2349,854.8906 Q770.4224,854.5938 769.6255,854.5938 Q768.7505,854.5938 768.2661,854.9531 Q767.7974,855.3125 767.7974,855.9688 Q767.7974,856.4844 768.1411,856.8281 Q768.4849,857.1563 769.5786,857.5625 L770.6411,857.9688 Q772.1255,858.5156 772.8286,859.4219 Q773.5474,860.3281 773.5474,861.7031 Q773.5474,863.5781 772.438,864.5 Q771.3286,865.4219 769.0786,865.4219 Q768.1567,865.4219 767.2349,865.2031 Q766.313,864.9844 765.4536,864.5625 L765.4536,862.0313 Q766.4224,862.7188 767.3442,863.0625 Q768.2661,863.4063 769.1567,863.4063 Q770.063,863.4063 770.563,863 Q771.063,862.5781 771.063,861.8438 Q771.063,861.2813 770.7192,860.875 Q770.3911,860.4531 769.7661,860.2031 L768.563,859.75 Z " fill="#000000"/><text fill="#000000" font-family="Verdana" font-size="14" lengthAdjust="spacing" textLength="92.4766" x="786.5786" y="864.0342">PDelayResult</text><line style="stroke:#000000;stroke-width:1;" x1="690" x2="948.1338" y1="873.1875" y2="873.1875"/><ellipse cx="700" cy="886.8359" fill="transparent" rx="3" ry="3" style="stroke:#000000;stroke-width:1;"/><text fill="#000000" font-family="Verdana" font-size="14" lengthAdjust="spacing" textLength="236.1338" x="707" y="890.1826">pdelay_data : GptpIpcPDelayData</text><ellipse cx="700" cy="903.1328" fill="transparent" rx="3" ry="3" style="stroke:#000000;stroke-width:1;"/><text fill="#000000" font-family="Verdana" font-size="14" lengthAdjust="spacing" textLength="77.0547" x="707" y="906.4795">valid : bool</text><line style="stroke:#000000;stroke-width:1;" x1="690" x2="948.1338" y1="913.7813" y2="913.7813"/></g><!--class GptpIpcPublisher--><g id="elem_GptpIpcPublisher"><rect codeLine="96" fill="#FFB6C1" height="125.4844" id="GptpIpcPublisher" rx="2.5" ry="2.5" style="stroke:#000000;stroke-width:1;" width="261.7197" x="2308" y="821.1875"/><ellipse cx="2375.439" cy="835.1875" fill="#FFFFFF" rx="9" ry="9" style="stroke:#000000;stroke-width:1;"/><path d="M2378.4077,840.8281 Q2377.8296,841.125 2377.189,841.2656 Q2376.5483,841.4219 2375.8452,841.4219 Q2373.3452,841.4219 2372.0171,839.7813 Q2370.7046,838.125 2370.7046,835 Q2370.7046,831.875 2372.0171,830.2188 Q2373.3452,828.5625 2375.8452,828.5625 Q2376.5483,828.5625 2377.189,828.7188 Q2377.8452,828.875 2378.4077,829.1719 L2378.4077,831.8906 Q2377.7827,831.3125 2377.189,831.0469 Q2376.5952,830.7656 2375.9702,830.7656 Q2374.6265,830.7656 2373.939,831.8438 Q2373.2515,832.9063 2373.2515,835 Q2373.2515,837.0938 2373.939,838.1719 Q2374.6265,839.2344 2375.9702,839.2344 Q2376.5952,839.2344 2377.189,838.9688 Q2377.7827,838.6875 2378.4077,838.1094 L2378.4077,840.8281 Z " fill="#000000"/><text fill="#000000" font-family="Verdana" font-size="14" lengthAdjust="spacing" textLength="119.3418" x="2392.939" y="840.0342">GptpIpcPublisher</text><line style="stroke:#000000;stroke-width:1;" x1="2309" x2="2568.7197" y1="849.1875" y2="849.1875"/><rect fill="transparent" height="6" style="stroke:#000000;stroke-width:1;" width="6" x="2316" y="859.8359"/><text fill="#000000" font-family="Verdana" font-size="14" lengthAdjust="spacing" textLength="175.5811" x="2326" y="866.1826">region_ : GptpIpcRegion*</text><rect fill="transparent" height="6" style="stroke:#000000;stroke-width:1;" width="6" x="2316" y="876.1328"/><text fill="#000000" font-family="Verdana" font-size="14" lengthAdjust="spacing" textLength="89.4893" x="2326" y="882.4795">shm_fd_ : int</text><line style="stroke:#000000;stroke-width:1;" x1="2309" x2="2568.7197" y1="889.7813" y2="889.7813"/><ellipse cx="2319" cy="903.4297" fill="#FFFFFF" rx="3" ry="3" style="stroke:#000000;stroke-width:1;"/><text fill="#000000" font-family="Verdana" font-size="14" lengthAdjust="spacing" textLength="116.5322" x="2326" y="906.7764">Init(name) : bool</text><ellipse cx="2319" cy="919.7266" fill="#FFFFFF" rx="3" ry="3" style="stroke:#000000;stroke-width:1;"/><text fill="#000000" font-family="Verdana" font-size="14" lengthAdjust="spacing" textLength="237.7197" x="2326" y="923.0732">Publish(data : GptpIpcData) : void</text><ellipse cx="2319" cy="936.0234" fill="#FFFFFF" rx="3" ry="3" style="stroke:#000000;stroke-width:1;"/><text fill="#000000" font-family="Verdana" font-size="14" lengthAdjust="spacing" textLength="108.9512" x="2326" y="939.3701">Destroy() : void</text></g><!--class PhcAdjuster--><g id="elem_PhcAdjuster"><rect codeLine="104" fill="#E6E6FA" height="125.4844" id="PhcAdjuster" rx="2.5" ry="2.5" style="stroke:#000000;stroke-width:1;" width="263.5449" x="1714" y="821.1875"/><ellipse cx="1800.3267" cy="835.1875" fill="#FFFFFF" rx="9" ry="9" style="stroke:#000000;stroke-width:1;"/><path d="M1803.2954,840.8281 Q1802.7173,841.125 1802.0767,841.2656 Q1801.436,841.4219 1800.7329,841.4219 Q1798.2329,841.4219 1796.9048,839.7813 Q1795.5923,838.125 1795.5923,835 Q1795.5923,831.875 1796.9048,830.2188 Q1798.2329,828.5625 1800.7329,828.5625 Q1801.436,828.5625 1802.0767,828.7188 Q1802.7329,828.875 1803.2954,829.1719 L1803.2954,831.8906 Q1802.6704,831.3125 1802.0767,831.0469 Q1801.4829,830.7656 1800.8579,830.7656 Q1799.5142,830.7656 1798.8267,831.8438 Q1798.1392,832.9063 1798.1392,835 Q1798.1392,837.0938 1798.8267,838.1719 Q1799.5142,839.2344 1800.8579,839.2344 Q1801.4829,839.2344 1802.0767,838.9688 Q1802.6704,838.6875 1803.2954,838.1094 L1803.2954,840.8281 Z " fill="#000000"/><text fill="#000000" font-family="Verdana" font-size="14" lengthAdjust="spacing" textLength="83.3916" x="1817.8267" y="840.0342">PhcAdjuster</text><line style="stroke:#000000;stroke-width:1;" x1="1715" x2="1976.5449" y1="849.1875" y2="849.1875"/><rect fill="transparent" height="6" style="stroke:#000000;stroke-width:1;" width="6" x="1722" y="859.8359"/><text fill="#000000" font-family="Verdana" font-size="14" lengthAdjust="spacing" textLength="112.0615" x="1732" y="866.1826">cfg_ : PhcConfig</text><rect fill="transparent" height="6" style="stroke:#000000;stroke-width:1;" width="6" x="1722" y="876.1328"/><text fill="#000000" font-family="Verdana" font-size="14" lengthAdjust="spacing" textLength="85.1416" x="1732" y="882.4795">phc_fd_ : int</text><line style="stroke:#000000;stroke-width:1;" x1="1715" x2="1976.5449" y1="889.7813" y2="889.7813"/><ellipse cx="1725" cy="903.4297" fill="#FFFFFF" rx="3" ry="3" style="stroke:#000000;stroke-width:1;"/><text fill="#000000" font-family="Verdana" font-size="14" lengthAdjust="spacing" textLength="122.4453" x="1732" y="906.7764">IsEnabled() : bool</text><ellipse cx="1725" cy="919.7266" fill="#FFFFFF" rx="3" ry="3" style="stroke:#000000;stroke-width:1;"/><text fill="#000000" font-family="Verdana" font-size="14" lengthAdjust="spacing" textLength="203.4375" x="1732" y="923.0732">AdjustOffset(offset_ns) : void</text><ellipse cx="1725" cy="936.0234" fill="#FFFFFF" rx="3" ry="3" style="stroke:#000000;stroke-width:1;"/><text fill="#000000" font-family="Verdana" font-size="14" lengthAdjust="spacing" textLength="239.5449" x="1732" y="939.3701">AdjustFrequency(rate_ratio) : void</text></g><!--class PhcConfig--><g id="elem_PhcConfig"><rect codeLine="112" fill="#F5F5DC" height="92.8906" id="PhcConfig" rx="2.5" ry="2.5" style="stroke:#000000;stroke-width:1;" width="313.6592" x="1689" y="1014.6875"/><ellipse cx="1807.1138" cy="1028.6875" fill="#FFFFFF" rx="9" ry="9" style="stroke:#000000;stroke-width:1;"/><path d="M1806.5981,1029.25 Q1804.7388,1028.5469 1804.0825,1027.7813 Q1803.4419,1027 1803.4419,1025.6875 Q1803.4419,1024 1804.52,1023.0313 Q1805.5981,1022.0625 1807.4731,1022.0625 Q1808.3325,1022.0625 1809.1763,1022.2656 Q1810.0356,1022.4531 1810.8794,1022.8438 L1810.8794,1025.2344 Q1810.0981,1024.6719 1809.27,1024.3906 Q1808.4575,1024.0938 1807.6606,1024.0938 Q1806.7856,1024.0938 1806.3013,1024.4531 Q1805.8325,1024.8125 1805.8325,1025.4688 Q1805.8325,1025.9844 1806.1763,1026.3281 Q1806.52,1026.6563 1807.6138,1027.0625 L1808.6763,1027.4688 Q1810.1606,1028.0156 1810.8638,1028.9219 Q1811.5825,1029.8281 1811.5825,1031.2031 Q1811.5825,1033.0781 1810.4731,1034 Q1809.3638,1034.9219 1807.1138,1034.9219 Q1806.1919,1034.9219 1805.27,1034.7031 Q1804.3481,1034.4844 1803.4888,1034.0625 L1803.4888,1031.5313 Q1804.4575,1032.2188 1805.3794,1032.5625 Q1806.3013,1032.9063 1807.1919,1032.9063 Q1808.0981,1032.9063 1808.5981,1032.5 Q1809.0981,1032.0781 1809.0981,1031.3438 Q1809.0981,1030.7813 1808.7544,1030.375 Q1808.4263,1029.9531 1807.8013,1029.7031 L1806.5981,1029.25 Z " fill="#000000"/><text fill="#000000" font-family="Verdana" font-size="14" lengthAdjust="spacing" textLength="69.9316" x="1824.6138" y="1033.5342">PhcConfig</text><line style="stroke:#000000;stroke-width:1;" x1="1690" x2="2001.6592" y1="1042.6875" y2="1042.6875"/><ellipse cx="1700" cy="1056.3359" fill="transparent" rx="3" ry="3" style="stroke:#000000;stroke-width:1;"/><text fill="#000000" font-family="Verdana" font-size="14" lengthAdjust="spacing" textLength="153.8018" x="1707" y="1059.6826">enabled : bool = false</text><ellipse cx="1700" cy="1072.6328" fill="transparent" rx="3" ry="3" style="stroke:#000000;stroke-width:1;"/><text fill="#000000" font-family="Verdana" font-size="14" lengthAdjust="spacing" textLength="99.791" x="1707" y="1075.9795">device : string</text><ellipse cx="1700" cy="1088.9297" fill="transparent" rx="3" ry="3" style="stroke:#000000;stroke-width:1;"/><text fill="#000000" font-family="Verdana" font-size="14" lengthAdjust="spacing" textLength="289.6592" x="1707" y="1092.2764">step_threshold_ns : int64_t = 100000000</text><line style="stroke:#000000;stroke-width:1;" x1="1690" x2="2001.6592" y1="1099.5781" y2="1099.5781"/></g><!--reverse link TimeSlave to GptpEngine--><g id="link_TimeSlave_GptpEngine"><path codeLine="53" d="M1793.2208,367.1741 C1782.5208,385.1841 1776.42,395.4375 1763.85,416.5975 " fill="transparent" id="TimeSlave-backto-GptpEngine" style="stroke:#000000;stroke-width:1;"/><polygon fill="#000000" points="1799.35,356.8575,1792.8465,359.9727,1793.2208,367.1741,1799.7242,364.0589,1799.35,356.8575" style="stroke:#000000;stroke-width:1;"/></g><!--reverse link GptpEngine to FrameCodec--><g id="link_GptpEngine_FrameCodec"><path codeLine="119" d="M1570.0606,748.3928 C1546.7806,788.4528 1529.93,817.4375 1513.93,844.9675 " fill="transparent" id="GptpEngine-backto-FrameCodec" style="stroke:#000000;stroke-width:1;"/><polygon fill="#000000" points="1576.09,738.0175,1569.6169,741.1954,1570.0606,748.3928,1576.5337,745.2149,1576.09,738.0175" style="stroke:#000000;stroke-width:1;"/></g><!--reverse link GptpEngine to GptpMessageParser--><g id="link_GptpEngine_GptpMessageParser"><path codeLine="120" d="M1482.1821,589.4314 C1277.5421,606.6114 944.01,651.0175 672,769.6875 C624.74,790.3075 578.07,827.5675 548.71,853.6475 " fill="transparent" id="GptpEngine-backto-GptpMessageParser" style="stroke:#000000;stroke-width:1;"/><polygon fill="#000000" points="1494.14,588.4275,1487.8264,584.9435,1482.1821,589.4314,1488.4957,592.9154,1494.14,588.4275" style="stroke:#000000;stroke-width:1;"/></g><!--reverse link GptpEngine to SyncStateMachine--><g id="link_GptpEngine_SyncStateMachine"><path codeLine="121" d="M1482.3671,581.129 C1226.4871,589.909 750.2,625.6675 364,769.6875 C330.52,782.1675 296.74,801.6575 267.79,820.9575 " fill="transparent" id="GptpEngine-backto-SyncStateMachine" style="stroke:#000000;stroke-width:1;"/><polygon fill="#000000" points="1494.36,580.7175,1488.2264,576.9256,1482.3671,581.129,1488.5007,584.9209,1494.36,580.7175" style="stroke:#000000;stroke-width:1;"/></g><!--reverse link GptpEngine to PeerDelayMeasurer--><g id="link_GptpEngine_PeerDelayMeasurer"><path codeLine="122" d="M1854.032,719.777 C1884.502,738.447 1906.61,749.1975 1939,761.6875 C1962.87,770.8975 1972.41,759.7875 1996,769.6875 C2021.08,780.2175 2045.62,796.1075 2067.24,812.6675 " fill="transparent" id="GptpEngine-backto-PeerDelayMeasurer" style="stroke:#000000;stroke-width:1;"/><polygon fill="#000000" points="1843.8,713.5075,1846.8262,720.0529,1854.032,719.777,1851.0058,713.2316,1843.8,713.5075" style="stroke:#000000;stroke-width:1;"/></g><!--reverse link GptpEngine to PhcAdjuster--><g id="link_GptpEngine_PhcAdjuster"><path codeLine="123" d="M1767.9394,748.3928 C1785.1294,777.9728 1796.07,796.7975 1810.22,821.1275 " fill="transparent" id="GptpEngine-backto-PhcAdjuster" style="stroke:#000000;stroke-width:1;"/><polygon fill="#000000" points="1761.91,738.0175,1761.4663,745.2149,1767.9394,748.3928,1768.3831,741.1953,1761.91,738.0175" style="stroke:#000000;stroke-width:1;"/></g><!--reverse link PhcAdjuster to PhcConfig--><g id="link_PhcAdjuster_PhcConfig"><path codeLine="124" d="M1846,958.5575 C1846,980.9675 1846,993.8375 1846,1014.5875 " fill="transparent" id="PhcAdjuster-backto-PhcConfig" style="stroke:#000000;stroke-width:1;"/><polygon fill="#000000" points="1846,946.5575,1842,952.5575,1846,958.5575,1850,952.5575,1846,946.5575" style="stroke:#000000;stroke-width:1;"/></g><!--reverse link TimeSlave to GptpIpcPublisher--><g id="link_TimeSlave_GptpIpcPublisher"><path codeLine="125" d="M1907.9848,365.3219 C2023.7948,478.1619 2259.7,707.9975 2375.55,820.8675 " fill="transparent" id="TimeSlave-backto-GptpIpcPublisher" style="stroke:#000000;stroke-width:1;"/><polygon fill="#000000" points="1899.39,356.9475,1900.8959,363.9996,1907.9848,365.3219,1906.4788,358.2698,1899.39,356.9475" style="stroke:#000000;stroke-width:1;"/><text fill="#000000" font-family="Verdana" font-size="13" lengthAdjust="spacing" textLength="8.271" x="2360.2028" y="810.2239">1</text></g><!--SRC=[bLPTRzis57tth-0yOF3Q14YRRGz16g1pajR0qXXsXZqA37KjiQ58ZRnAuYtzxxkaP8lwS8hvoIBF9U_7kUVo1yoX05OgBlLaWX8Li3jPm5hnHs1pnPrZbv9dbXUJYO8CTChGb4p11YUCVYyVsDmeOzd-HokNu8IL9KgZMUVtKjkmyn__a5cEyotN5_LAUoalIoK5RurxHckk2kFDNbYsl5koAvr93KmO2wCt_PK3nulzEbjQWqOOnKfh13WdTJRY7dcYKx0NEwFFSyRJhvN30ZI-5jDIweScfiLoJcuLfT5aumuO_GuoWyYzIuwSERILmCg2wngHJtKH9fEIYmUU0Piw7_dP6Ref-tSIZXMXR6r6ssGJOdVOCJCbkeITiKybbdKIRqF9N8I1iEvHbPP_Lv2KQCzRWui8MbRtIheSxExCHIcMkxKzxYrRQ8cIA_aFp0G-_qnWgV7qVO8HPbNfcIEU9MWUGFSnt-8mMsTOp8__7QbzJZ2tm5CFT9XIHiDd764AYc-_2tDRBH9NUC2Q_gwH8znmaTErmyC8j0Imb_xZ1hYZcjiObOkavbsTrsKkFZQVyOr6F03sghHOyQTrs8Yh95FYeiHj7_m5yCdOXqMp7Pi8auBm-6jI0PZxhzX3RbrRynjgA6BbCYp67cfUkjnWKbG8p_lSXQ_uCA8szMEoXxTKydqHErLPIwv-5zdXcoVIlJ4gshq4-Uh-jTHXRztS4p2FHgOnMwd-f4HxIEfRkEFEJvsJ6_xMJJua9Qir8MBmMoOtN42YAVyXTTQBrWSs1SnFfX6i8HKr2zX7hfB2rQr3s7Sd9oT3v1EtHLN6kFTTN20pafIO2cFOwMa7zhKgocHJUSaA_K5vK6cY6_nlloJUvjUJvXTdePMfDyV7KJ8ctyOqxkmi1UHI1R5hHQ1b9glrlfEymCOhcdHM0twcOe6TtLSRNvFkQcJpCKs75aSiTPG5BewOiyB_wR1Xe4kTRZZesQpaMsLuUaHJLH-nmcK99NkCCVN9VL4P7dpCTXMZGpYQGefpVzP5TFMjzkVCwBOHHj_gQwEKUVgpt05Cu2PNvzvg1QvI69-sS7VrZMCzz0dm2p4wlpTsHMwl_6mFkDJGV81XX0D570lnTIMnmSKWcU6askN8gJL9pGf8_npEQlqSpGFPqVoc8XrAr0xGJrWFI3ceNGY13tpgIaARup4jA7YO1d5pHRjcit4q2mxiXdRUKCTtDSfVU5sLFUNq94hgpZQMb28TbhQ5t5ElzZ7TgEAWn-9g9AdhMMtKSuoaJQO7-wF_zc3jmwn380iPKJeQ7Akmy2OUMtcHRCAefrJsPihCg_48svjxHwR022tefOpMR6U7TIIQ-6p_BEt48JPPypIO6xsHMU_vCEg_kzASMYyTQzVwkjl0ezcUJYFEry1hwxj8Y-tCKdCdrdVtM3Wx5kpS7AC0r5urFj78s73b80Aay2X5EmDZPYEKXqVFkzxe8P-YXwEVFD7ZfhSpVDVq08DNNcz_-C3h0w9NNLplPgyfQtTIJjzDXw_i_m00]--></g></svg>