<svg xmlns="http://www.w3.org/2000/svg" xmlns:xlink="http://www.w3.org/1999/xlink" contentStyleType="text/css" data-diagram-type="DESCRIPTION" height="432px" preserveAspectRatio="none" style="width:1155px;height:432px;background:#FFFFFF;" version="1.1" viewBox="0 0 1155 432" width="1155px" zoomAndPan="magnify"><defs/><g><!--cluster SCORE Time Synchronization--><g id="cluster_SCORE Time Synchronization"><path d="M13.5,165 L242.6836,165 A3.75,3.75 0 0 1 245.1836,167.5 L252.1836,187.2969 L691.5,187.2969 A2.5,2.5 0 0 1 694,189.7969 L694,422.5 A2.5,2.5 0 0 1 691.5,425 L13.5,425 A2.5,2.5 0 0 1 11,422.5 L11,167.5 A2.5,2.5 0 0 1 13.5,165 " fill="#FFFFFF" style="stroke:#000000;stroke-width:1;"/><line style="stroke:#000000;stroke-width:1;" x1="11" x2="252.1836" y1="187.2969" y2="187.2969"/><text fill="#000000" font-family="Verdana" font-size="14" font-weight="bold" lengthAdjust="spacing" textLength="228.1836" x="15" y="179.9951">SCORE Time Synchronization</text></g><!--cluster Common Utilities--><g id="cluster_Common Utilities"><path d="M180.5,314 L316.8037,314 A3.75,3.75 0 0 1 319.3037,316.5 L326.3037,336.2969 L667.5,336.2969 A2.5,2.5 0 0 1 670,338.7969 L670,398.5 A2.5,2.5 0 0 1 667.5,401 L180.5,401 A2.5,2.5 0 0 1 178,398.5 L178,316.5 A2.5,2.5 0 0 1 180.5,314 " fill="#FFFFFF" style="stroke:#000000;stroke-width:1;"/><line style="stroke:#000000;stroke-width:1;" x1="178" x2="326.3037" y1="336.2969" y2="336.2969"/><text fill="#000000" font-family="Verdana" font-size="14" font-weight="bold" lengthAdjust="spacing" textLength="135.3037" x="182" y="328.9951">Common Utilities</text></g><!--cluster Network--><g id="cluster_Network"><path d="M727.4649,324.8236 C731.426,316.7472 740.1823,314.1752 745.9571,322.8177 C750.6282,314.6065 758.8247,312.7854 764.6782,321.5108 C769.4542,313.9354 777.8291,312.5863 782.6536,321.4579 C786.3237,311.9743 794.2055,312.1597 800.0906,319.1073 C806.3297,309.0158 814.406,309.5967 820.6832,319.0673 C826.5724,310.7454 832.9271,311.3353 839.086,318.7518 C843.8723,311.7143 849.0417,310.0212 854.644,317.9007 C859.2056,307.8314 866.6181,307.8784 872.6394,316.4949 C878.4761,308.3904 887.8366,307.9156 892.3922,317.8943 C898.6651,310.0736 904.4916,310.1164 909.1356,319.4813 C915.0232,310.8665 923.8658,311.8281 928.8646,320.4959 C934.133,310.8522 943.5857,310.8378 948.5196,320.8307 C954.2628,313.0907 960.038,315.3804 963.7765,322.8426 C970.319,314.413 977.6017,315.9029 983.0666,324.0933 C993.6648,328.7331 995.9602,334.2798 987.1316,343.0791 C996.5754,346.9714 996.0324,352.6201 990.5137,359.5793 C998.365,367.2242 996.1028,373.7945 986.5888,377.6725 C994.225,383.9238 993.1907,390.8597 984.5088,395.1714 C979.8505,404.2539 972.6564,404.3558 965.949,397.5678 C960.267,405.4762 953.7165,405.9571 947.1158,398.7095 C942.6814,408.073 934.4799,406.9157 929.9344,398.8189 C923.684,408.6242 918.0719,407.943 911.9343,398.7121 C906.4085,409.1368 897.804,409.2754 890.9691,400.1133 C888.2518,409.3308 880.0896,409.3675 874.8355,402.6877 C869.9068,413.0078 860.7231,410.2847 855.9022,402.5745 C850.4917,410.0802 844.5572,410.6448 838.3027,403.5951 C830.3925,414.1822 823.3713,411.8946 817.6192,401.4706 C810.3696,409.4783 804.9569,406.4456 800.3921,398.5605 C795.5821,406.4079 787.4822,405.4437 783.2642,397.9016 C778.5103,406.2085 770.3796,406.6917 765.2923,398.2595 C758.328,405.966 751.1885,406.4954 745.9478,396.3878 C739.8454,403.8715 733.8406,403.6764 729.2697,394.8242 C719.4954,390.6779 718.0433,384.6427 726.3669,377.4693 C715.6065,371.9706 714.6268,365.7615 723.843,357.711 C715.3601,351.4156 717.7793,344.2709 726.4112,340.5344 C719.7643,335.2217 719.4049,329.15 727.4649,324.8236 " fill="#FFFFFF" style="stroke:#000000;stroke-width:1;"/><text fill="#000000" font-family="Verdana" font-size="14" font-weight="bold" lengthAdjust="spacing" textLength="66.6709" x="820.6646" y="339.9951">Network</text></g><!--entity daemon--><g id="elem_daemon"><rect fill="#FFFFFF" height="36.2969" rx="2.5" ry="2.5" style="stroke:#000000;stroke-width:1;" width="130.0244" x="470" y="200"/><text fill="#000000" font-family="Verdana" font-size="14" lengthAdjust="spacing" textLength="110.0244" x="480" y="222.9951">tsyncd Daemon</text></g><!--entity lib--><g id="elem_lib"><rect fill="#FFFFFF" height="36.2969" rx="2.5" ry="2.5" style="stroke:#000000;stroke-width:1;" width="113.2217" x="101.5" y="200"/><text fill="#000000" font-family="Verdana" font-size="14" lengthAdjust="spacing" textLength="93.2217" x="111.5" y="222.9951">libscore_time</text></g><!--entity shm--><g id="elem_shm"><path d="M27.5,354.5 C27.5,344.5 92.9907,344.5 92.9907,344.5 C92.9907,344.5 158.4814,344.5 158.4814,354.5 L158.4814,379.7969 C158.4814,389.7969 92.9907,389.7969 92.9907,389.7969 C92.9907,389.7969 27.5,389.7969 27.5,379.7969 L27.5,354.5 " fill="#FFFFFF" style="stroke:#000000;stroke-width:1;"/><path d="M27.5,354.5 C27.5,364.5 92.9907,364.5 92.9907,364.5 C92.9907,364.5 158.4814,364.5 158.4814,354.5 " fill="transparent" style="stroke:#000000;stroke-width:1;"/><text fill="#000000" font-family="Verdana" font-size="14" lengthAdjust="spacing" textLength="110.9814" x="37.5" y="381.4951">Shared Memory</text></g><!--entity clock--><g id="elem_clock"><rect fill="#FFFFFF" height="36.2969" rx="2.5" ry="2.5" style="stroke:#000000;stroke-width:1;" width="75.8018" x="194" y="349"/><text fill="#000000" font-family="Verdana" font-size="14" lengthAdjust="spacing" textLength="55.8018" x="204" y="371.9951">ClockNs</text></g><!--entity lock--><g id="elem_lock"><rect fill="#FFFFFF" height="36.2969" rx="2.5" ry="2.5" style="stroke:#000000;stroke-width:1;" width="149.7529" x="305" y="349"/><text fill="#000000" font-family="Verdana" font-size="14" lengthAdjust="spacing" textLength="129.7529" x="315" y="371.9951">PthreadLockGuard</text></g><!--entity parser--><g id="elem_parser"><rect fill="#FFFFFF" height="36.2969" rx="2.5" ry="2.5" style="stroke:#000000;stroke-width:1;" width="163.3701" x="490.5" y="349"/><text fill="#000000" font-family="Verdana" font-size="14" lengthAdjust="spacing" textLength="143.3701" x="500.5" y="371.9951">ParseInteger/Double</text></g><!--entity gptp--><g id="elem_gptp"><rect fill="#FFFFFF" height="36.2969" rx="2.5" ry="2.5" style="stroke:#000000;stroke-width:1;" width="106.584" x="733.5" y="349"/><text fill="#000000" font-family="Verdana" font-size="14" lengthAdjust="spacing" textLength="86.584" x="743.5" y="371.9951">gPTP Master</text></g><!--entity ntp--><g id="elem_ntp"><rect fill="#FFFFFF" height="36.2969" rx="2.5" ry="2.5" style="stroke:#000000;stroke-width:1;" width="97.8271" x="876" y="349"/><text fill="#000000" font-family="Verdana" font-size="14" lengthAdjust="spacing" textLength="77.8271" x="886" y="371.9951">NTP Server</text></g><!--entity app--><g id="elem_app"><ellipse cx="158.1118" cy="19" fill="#FFFFFF" rx="8" ry="8" style="stroke:#000000;stroke-width:1;"/><path d="M158.1118,27 L158.1118,54 M145.1118,35 L171.1118,35 M158.1118,54 L145.1118,69 M158.1118,54 L171.1118,69 " fill="transparent" style="stroke:#000000;stroke-width:1;"/><text fill="#000000" font-family="Verdana" font-size="14" lengthAdjust="spacing" textLength="78.2236" x="119" y="83.9951">Application</text></g><g id="elem_GMN23"><path d="M1009,331.5 L1009,402.0313 L1148.6885,402.0313 L1148.6885,341.5 L1138.6885,331.5 L1009,331.5 " fill="#FFFFFF" style="stroke:#000000;stroke-width:1;"/><path d="M1138.6885,331.5 L1138.6885,341.5 L1148.6885,341.5 L1138.6885,331.5 " fill="#FFFFFF" style="stroke:#000000;stroke-width:1;"/><text fill="#000000" font-family="Verdana" font-size="13" lengthAdjust="spacing" textLength="85.3633" x="1015" y="348.5669">Lock-free IPC</text><text fill="#000000" font-family="Verdana" font-size="13" lengthAdjust="spacing" textLength="102.8701" x="1015" y="363.6997">Seqlock pattern</text><text fill="#000000" font-family="Verdana" font-size="13" lengthAdjust="spacing" textLength="118.6885" x="1015" y="378.8325">Atomic operations</text><text fill="#000000" font-family="Verdana" font-size="13" lengthAdjust="spacing" textLength="65.5967" x="1015" y="393.9653">Version: 4</text></g><!--link daemon to gptp--><g id="link_daemon_gptp"><path d="M564.4,236.15 C612.96,264.48 704.167,317.6873 752.607,345.9373 " fill="transparent" id="daemon-to-gptp" style="stroke:#000000;stroke-width:1;"/><polygon fill="#000000" points="757.79,348.96,752.0307,340.9706,753.4708,346.4411,748.0004,347.8813,757.79,348.96" style="stroke:#000000;stroke-width:1;"/><text fill="#000000" font-family="Verdana" font-size="13" lengthAdjust="spacing" textLength="54.7358" x="683.7456" y="279.0669">Sync via</text><text fill="#000000" font-family="Verdana" font-size="13" lengthAdjust="spacing" textLength="84.2271" x="669" y="294.1997">Ethernet/PTP</text></g><!--link daemon to ntp--><g id="link_daemon_ntp"><path d="M600.21,225.11 C668.87,234.05 777.93,255.51 858,306 C877.15,318.08 891.8886,331.4463 904.7286,344.4763 " fill="transparent" id="daemon-to-ntp" style="stroke:#000000;stroke-width:1;"/><polygon fill="#000000" points="908.94,348.75,905.4721,339.5319,905.4305,345.1886,899.7738,345.1471,908.94,348.75" style="stroke:#000000;stroke-width:1;"/><text fill="#000000" font-family="Verdana" font-size="13" lengthAdjust="spacing" textLength="62.9116" x="843" y="279.0669">Query via</text><text fill="#000000" font-family="Verdana" font-size="13" lengthAdjust="spacing" textLength="56.5576" x="846.177" y="294.1997">UDP/123</text></g><!--link daemon to shm--><g id="link_daemon_shm"><path d="M469.75,227.47 C422.15,234.75 356.51,247.12 301,266 C270.52,276.37 266.79,288.57 236,298 C211.12,305.62 202.21,296.45 178,306 C155.32,314.95 137.5455,327.3284 121.4355,340.6384 " fill="transparent" id="daemon-to-shm" style="stroke:#000000;stroke-width:1;"/><polygon fill="#000000" points="116.81,344.46,126.296,341.8113,120.6646,341.2753,121.2006,335.6439,116.81,344.46" style="stroke:#000000;stroke-width:1;"/><text fill="#000000" font-family="Verdana" font-size="13" lengthAdjust="spacing" textLength="75.1816" x="302" y="279.0669">Writes time</text><text fill="#000000" font-family="Verdana" font-size="13" lengthAdjust="spacing" textLength="59.4077" x="309.887" y="294.1997">(seqlock)</text></g><!--link lib to shm--><g id="link_lib_shm"><path d="M130.12,236.13 C119.86,243.92 109.23,254.09 103,266 C90.15,290.59 89.0382,317.2209 90.3182,338.4109 " fill="transparent" id="lib-to-shm" style="stroke:#000000;stroke-width:1;"/><polygon fill="#000000" points="90.68,344.4,94.1301,335.1752,90.3785,339.4091,86.1446,335.6576,90.68,344.4" style="stroke:#000000;stroke-width:1;"/><text fill="#000000" font-family="Verdana" font-size="13" lengthAdjust="spacing" textLength="73.5249" x="104" y="279.0669">Reads time</text><text fill="#000000" font-family="Verdana" font-size="13" lengthAdjust="spacing" textLength="59.4077" x="111.0586" y="294.1997">(seqlock)</text></g><!--link app to lib--><g id="link_app_lib"><path d="M158,87.09 C158,122.39 158,167.61 158,193.95 " fill="transparent" id="app-to-lib" style="stroke:#000000;stroke-width:1;"/><polygon fill="#000000" points="158,199.95,162,190.95,158,194.95,154,190.95,158,199.95" style="stroke:#000000;stroke-width:1;"/><text fill="#000000" font-family="Verdana" font-size="13" lengthAdjust="spacing" textLength="113.0264" x="163.6592" y="130.0669">GetVehicleTime()</text><text fill="#000000" font-family="Verdana" font-size="13" lengthAdjust="spacing" textLength="122.3447" x="159" y="145.1997">GetAbsoluteTime()</text></g><!--link daemon to clock--><g id="link_daemon_clock"><path d="M482.89,236.08 C462.78,243.78 440.06,253.89 421,266 C403.21,277.3 405.32,289.58 386,298 C345.94,315.46 327.34,286.97 288,306 C268.63,315.37 256.0593,329.6366 246.1893,343.8066 " fill="transparent" id="daemon-to-clock" style="stroke:#000000;stroke-width:1;stroke-dasharray:7.0,7.0;"/><polygon fill="#000000" points="242.76,348.73,251.1863,343.6312,245.6178,344.6272,244.6218,339.0587,242.76,348.73" style="stroke:#000000;stroke-width:1;"/><text fill="#000000" font-family="Verdana" font-size="13" lengthAdjust="spacing" textLength="29.7832" x="422" y="286.5669">uses</text></g><!--link daemon to lock--><g id="link_daemon_lock"><path d="M519.7,236.15 C504.89,252.5 481.56,277.59 460,298 C440.8,316.17 422.3394,331.7775 405.8994,345.1875 " fill="transparent" id="daemon-to-lock" style="stroke:#000000;stroke-width:1;stroke-dasharray:7.0,7.0;"/><polygon fill="#000000" points="401.25,348.98,410.7524,346.3909,405.1245,345.8196,405.6958,340.1917,401.25,348.98" style="stroke:#000000;stroke-width:1;"/><text fill="#000000" font-family="Verdana" font-size="13" lengthAdjust="spacing" textLength="29.7832" x="492" y="286.5669">uses</text></g><!--link daemon to parser--><g id="link_daemon_parser"><path d="M539.32,236.15 C546.45,264.48 559.1356,314.8915 566.2456,343.1415 " fill="transparent" id="daemon-to-parser" style="stroke:#000000;stroke-width:1;stroke-dasharray:7.0,7.0;"/><polygon fill="#000000" points="567.71,348.96,569.3924,339.2559,566.4897,344.1112,561.6343,341.2085,567.71,348.96" style="stroke:#000000;stroke-width:1;"/><text fill="#000000" font-family="Verdana" font-size="13" lengthAdjust="spacing" textLength="29.7832" x="555" y="286.5669">uses</text></g><!--link lib to clock--><g id="link_lib_clock"><path d="M166.93,236.39 C171.46,245.25 177.04,256.19 182,266 C196.71,295.1 210.9664,323.7086 220.8764,343.6186 " fill="transparent" id="lib-to-clock" style="stroke:#000000;stroke-width:1;stroke-dasharray:7.0,7.0;"/><polygon fill="#000000" points="223.55,348.99,223.1206,339.1505,221.322,344.5138,215.9587,342.7153,223.55,348.99" style="stroke:#000000;stroke-width:1;"/><text fill="#000000" font-family="Verdana" font-size="13" lengthAdjust="spacing" textLength="29.7832" x="198" y="286.5669">uses</text></g><!--link shm to GMN23--><g id="link_shm_GMN23"><path d="M108.79,344.41 C126.71,320.96 158.31,285.7 195.5,271 C275.79,239.27 891.91,240.04 972.5,271 C1004.1,283.14 1032.18,309.48 1051.57,331.5 " fill="transparent" id="shm-GMN23" style="stroke:#000000;stroke-width:1;stroke-dasharray:7.0,7.0;"/></g><!--SRC=[TPDDRzim38Rl-XMSJ-qX3VPnwg50a1H5WJNpchOxBCEWoAmjn9OqYkwG3VtlfUGqoBBK9vbw-9BcIx_Z1Zk4q6hhL5nR5pJf3eplWdVeUC6R5e7Gi7PrYqe5RTQwHYWMqo-tbt1d9NknSQOXx-mVpTQx0luga6Sd0jyv2bB1J6FdtG_G4QfyFEHQkuh64_vaqSsSH39KQTOh7LFXHXDMS2Fvj2aI4vjEPMZNtDHteWxtR5lB5kDhImVbfgqtwtdCXKmw7uDARWXrzLckhtfDrT3MMx2cYDUEiKOQpto_QeVF22bEEUDPFIibrVeAYZdoRq_h8nEhoxiIRdHaf2nG1mw7p5oG1TBJ5d52YBGsx0cAIGYjDLj3v5Q7eDGmTHYDBh8WdCiunHbuidhfBcKNo26FfNInZxg1_DeZRGRqVbQEtt_u-0ybBYJg6rd62Cd0fJk9-2kDwhHGOkG-TYiZFK99bvbAj51No0_OMDDYMhIJqwMJo6GLVTlpDhJhuUpiOZ1H4lk8SJ_-HdXmvVKYrVnFH3dFyWFOkc7mZtdL0D8kZ1u94QxBgRmlXlv5ZyMljDKJzfqru0DIjY1Ax04fol4SFYbq5IHXzG80]--></g></svg>