<svg xmlns="http://www.w3.org/2000/svg" xmlns:xlink="http://www.w3.org/1999/xlink" contentStyleType="text/css" data-diagram-type="SEQUENCE" height="1031px" preserveAspectRatio="none" style="width:936px;height:1031px;background:#FFFFFF;" version="1.1" viewBox="0 0 936 1031" width="936px" zoomAndPan="magnify"><title>VT4 &#8212; VehicleTime: Synchronization Status Subscription</title><defs/><g><text fill="#000000" font-family="sans-serif" font-size="14" font-weight="bold" lengthAdjust="spacing" textLength="448.335" x="240.1289" y="27.9951">VT4 &#8212; VehicleTime: Synchronization Status Subscription</text><rect fill="#E6F0FF" height="854.4453" style="stroke:#181818;stroke-width:0.5;" width="101.2012" x="1" y="163.7813"/><text fill="#000000" font-family="sans-serif" font-size="13" font-weight="bold" lengthAdjust="spacing" textLength="82.9194" x="10.1409" y="175.8481">Application</text><rect fill="#F0FFF0" height="854.4453" style="stroke:#181818;stroke-width:0.5;" width="406.7188" x="287.1929" y="163.7813"/><text fill="#000000" font-family="sans-serif" font-size="13" font-weight="bold" lengthAdjust="spacing" textLength="83.0337" x="449.0354" y="175.8481">score::time</text><rect fill="#FFF8F0" height="854.4453" style="stroke:#181818;stroke-width:0.5;" width="151.7993" x="776.7935" y="163.7813"/><text fill="#000000" font-family="sans-serif" font-size="13" font-weight="bold" lengthAdjust="spacing" textLength="145.7993" x="779.7935" y="175.8481">score::TimeDaemon</text><g><title>Application</title><rect fill="#FFFFFF" height="30" style="stroke:#181818;stroke-width:1;" width="10" x="46.6006" y="647.5"/></g><g><title>VehicleClock</title><rect fill="#FFFFFF" height="145.6641" style="stroke:#181818;stroke-width:1;" width="10" x="337.7871" y="304.7734"/></g><g><title>VehicleClock</title><rect fill="#FFFFFF" height="145.6641" style="stroke:#181818;stroke-width:1;" width="10" x="337.7871" y="860.5625"/></g><g><title>VehicleClockBackend</title><rect fill="#FFFFFF" height="87.3984" style="stroke:#181818;stroke-width:1;" width="10" x="603.1367" y="333.9063"/></g><g><title>VehicleClockBackend</title><rect fill="#FFFFFF" height="59.1328" style="stroke:#181818;stroke-width:1;" width="10" x="603.1367" y="618.3672"/></g><g><title>VehicleClockBackend</title><rect fill="#FFFFFF" height="87.3984" style="stroke:#181818;stroke-width:1;" width="10" x="603.1367" y="889.6953"/></g><g><title>TimeDaemon</title><rect fill="#FFFFFF" height="29.1328" style="stroke:#181818;stroke-width:1;" width="10" x="847.6931" y="363.0391"/></g><g><title>TimeDaemon</title><rect fill="#FFFFFF" height="29.1328" style="stroke:#181818;stroke-width:1;" width="10" x="847.6931" y="918.8281"/></g><g><title>Application</title><rect fill="transparent" height="793.7188" width="8" x="47.6006" y="230.5078"/><line style="stroke:#181818;stroke-width:0.5;stroke-dasharray:5.0,5.0;" x1="51" x2="51" y1="230.5078" y2="1024.2266"/></g><g><title>VehicleClock</title><rect fill="transparent" height="793.7188" width="8" x="338.7871" y="230.5078"/><line style="stroke:#181818;stroke-width:0.5;stroke-dasharray:5.0,5.0;" x1="342.1929" x2="342.1929" y1="230.5078" y2="1024.2266"/></g><g><title>VehicleClockBackend</title><rect fill="transparent" height="793.7188" width="8" x="604.1367" y="230.5078"/><line style="stroke:#181818;stroke-width:0.5;stroke-dasharray:5.0,5.0;" x1="607.3618" x2="607.3618" y1="230.5078" y2="1024.2266"/></g><g><title>TimeDaemon</title><rect fill="transparent" height="793.7188" width="8" x="848.6931" y="230.5078"/><line style="stroke:#181818;stroke-width:0.5;stroke-dasharray:5.0,5.0;" x1="851.8225" x2="851.8225" y1="230.5078" y2="1024.2266"/></g><rect fill="#FFA07A" height="46.5938" rx="2.5" ry="2.5" style="stroke:#181818;stroke-width:0.5;" width="93.2012" x="5" y="182.9141"/><text fill="#000000" font-family="sans-serif" font-size="14" lengthAdjust="spacing" textLength="78.2236" x="12.4888" y="202.9092">Application</text><text fill="#000000" font-family="sans-serif" font-size="14" lengthAdjust="spacing" textLength="79.2012" x="12" y="219.2061">component</text><rect fill="#90EE90" height="30.2969" rx="2.5" ry="2.5" style="stroke:#181818;stroke-width:0.5;" width="103.1885" x="291.1929" y="199.2109"/><text fill="#000000" font-family="sans-serif" font-size="14" lengthAdjust="spacing" textLength="89.1885" x="298.1929" y="219.2061">VehicleClock</text><rect fill="#F08080" height="30.2969" rx="2.5" ry="2.5" style="stroke:#181818;stroke-width:0.5;" width="163.5498" x="526.3618" y="199.2109"/><text fill="#000000" font-family="sans-serif" font-size="14" lengthAdjust="spacing" textLength="149.5498" x="533.3618" y="219.2061">VehicleClockBackend</text><rect fill="#FFDEAD" height="30.2969" rx="2.5" ry="2.5" style="stroke:#181818;stroke-width:0.5;" width="107.7412" x="798.8225" y="199.2109"/><text fill="#000000" font-family="sans-serif" font-size="14" lengthAdjust="spacing" textLength="93.7412" x="805.8225" y="219.2061">TimeDaemon</text><g><title>Application</title><rect fill="#FFFFFF" height="30" style="stroke:#181818;stroke-width:1;" width="10" x="46.6006" y="647.5"/></g><g><title>VehicleClock</title><rect fill="#FFFFFF" height="145.6641" style="stroke:#181818;stroke-width:1;" width="10" x="337.7871" y="304.7734"/></g><g><title>VehicleClock</title><rect fill="#FFFFFF" height="145.6641" style="stroke:#181818;stroke-width:1;" width="10" x="337.7871" y="860.5625"/></g><g><title>VehicleClockBackend</title><rect fill="#FFFFFF" height="87.3984" style="stroke:#181818;stroke-width:1;" width="10" x="603.1367" y="333.9063"/></g><g><title>VehicleClockBackend</title><rect fill="#FFFFFF" height="59.1328" style="stroke:#181818;stroke-width:1;" width="10" x="603.1367" y="618.3672"/></g><g><title>VehicleClockBackend</title><rect fill="#FFFFFF" height="87.3984" style="stroke:#181818;stroke-width:1;" width="10" x="603.1367" y="889.6953"/></g><g><title>TimeDaemon</title><rect fill="#FFFFFF" height="29.1328" style="stroke:#181818;stroke-width:1;" width="10" x="847.6931" y="363.0391"/></g><g><title>TimeDaemon</title><rect fill="#FFFFFF" height="29.1328" style="stroke:#181818;stroke-width:1;" width="10" x="847.6931" y="918.8281"/></g><rect fill="#EEEEEE" height="3" style="stroke:#EEEEEE;stroke-width:1;" width="929.5928" x="0" y="261.0742"/><line style="stroke:#000000;stroke-width:1;" x1="0" x2="929.5928" y1="261.0742" y2="261.0742"/><line style="stroke:#000000;stroke-width:1;" x1="0" x2="929.5928" y1="264.0742" y2="264.0742"/><rect fill="#EEEEEE" height="23.1328" style="stroke:#000000;stroke-width:2;" width="232.2959" x="348.6484" y="250.5078"/><text fill="#000000" font-family="sans-serif" font-size="13" font-weight="bold" lengthAdjust="spacing" textLength="213.77" x="354.6484" y="266.5747">Register callback once at init</text><polygon fill="#181818" points="325.7871,300.7734,335.7871,304.7734,325.7871,308.7734,329.7871,304.7734" style="stroke:#181818;stroke-width:1;"/><line style="stroke:#181818;stroke-width:1;" x1="51.6006" x2="331.7871" y1="304.7734" y2="304.7734"/><text fill="#000080" font-family="sans-serif" font-size="13" font-weight="bold" lengthAdjust="spacing" textLength="29.9736" x="58.6006" y="299.7075">[01]</text><text fill="#000000" font-family="sans-serif" font-size="13" lengthAdjust="spacing" textLength="232.3369" x="92.5742" y="299.7075">Subscribe&lt;VehicleTimeStatus&gt;(cb)</text><polygon fill="#181818" points="591.1367,329.9063,601.1367,333.9063,591.1367,337.9063,595.1367,333.9063" style="stroke:#181818;stroke-width:1;"/><line style="stroke:#181818;stroke-width:1;" x1="347.7871" x2="597.1367" y1="333.9063" y2="333.9063"/><text fill="#000080" font-family="sans-serif" font-size="13" font-weight="bold" lengthAdjust="spacing" textLength="29.9736" x="354.7871" y="328.8403">[02]</text><text fill="#000000" font-family="sans-serif" font-size="13" lengthAdjust="spacing" textLength="201.5" x="388.7607" y="328.8403">SetStatusChangedCallback(cb)</text><polygon fill="#181818" points="835.6931,359.0391,845.6931,363.0391,835.6931,367.0391,839.6931,363.0391" style="stroke:#181818;stroke-width:1;"/><line style="stroke:#181818;stroke-width:1;" x1="613.1367" x2="841.6931" y1="363.0391" y2="363.0391"/><text fill="#000080" font-family="sans-serif" font-size="13" font-weight="bold" lengthAdjust="spacing" textLength="29.9736" x="620.1367" y="357.9731">[03]</text><text fill="#000000" font-family="sans-serif" font-size="13" lengthAdjust="spacing" textLength="147.3037" x="654.1104" y="357.9731">register status listener</text><polygon fill="#181818" points="624.1367,388.1719,614.1367,392.1719,624.1367,396.1719,620.1367,392.1719" style="stroke:#181818;stroke-width:1;"/><line style="stroke:#181818;stroke-width:1;stroke-dasharray:2.0,2.0;" x1="618.1367" x2="851.6931" y1="392.1719" y2="392.1719"/><text fill="#000080" font-family="sans-serif" font-size="13" font-weight="bold" lengthAdjust="spacing" textLength="29.9736" x="630.1367" y="387.106">[04]</text><text fill="#000000" font-family="sans-serif" font-size="13" lengthAdjust="spacing" textLength="4.1323" x="664.1104" y="387.106">&#160;</text><polygon fill="#181818" points="358.7871,417.3047,348.7871,421.3047,358.7871,425.3047,354.7871,421.3047" style="stroke:#181818;stroke-width:1;"/><line style="stroke:#181818;stroke-width:1;stroke-dasharray:2.0,2.0;" x1="352.7871" x2="607.1367" y1="421.3047" y2="421.3047"/><text fill="#000080" font-family="sans-serif" font-size="13" font-weight="bold" lengthAdjust="spacing" textLength="29.9736" x="364.7871" y="416.2388">[05]</text><text fill="#000000" font-family="sans-serif" font-size="13" lengthAdjust="spacing" textLength="4.1323" x="398.7607" y="416.2388">&#160;</text><polygon fill="#181818" points="62.6006,446.4375,52.6006,450.4375,62.6006,454.4375,58.6006,450.4375" style="stroke:#181818;stroke-width:1;"/><line style="stroke:#181818;stroke-width:1;stroke-dasharray:2.0,2.0;" x1="56.6006" x2="341.7871" y1="450.4375" y2="450.4375"/><text fill="#000080" font-family="sans-serif" font-size="13" font-weight="bold" lengthAdjust="spacing" textLength="29.9736" x="68.6006" y="445.3716">[06]</text><text fill="#000000" font-family="sans-serif" font-size="13" lengthAdjust="spacing" textLength="4.1323" x="102.5742" y="445.3716">&#160;</text><path d="M56,463.4375 L56,533.4375 L332,533.4375 L332,473.4375 L322,463.4375 L56,463.4375 " fill="#FEFFDD" style="stroke:#181818;stroke-width:0.5;"/><path d="M322,463.4375 L322,473.4375 L332,473.4375 L322,463.4375 " fill="#FEFFDD" style="stroke:#181818;stroke-width:0.5;"/><text fill="#000000" font-family="sans-serif" font-size="13" lengthAdjust="spacing" textLength="217.6865" x="62" y="480.5044">First invocation fires immediately</text><text fill="#000000" font-family="sans-serif" font-size="13" lengthAdjust="spacing" textLength="216.2266" x="62" y="495.6372">with the current status snapshot.</text><text fill="#000000" font-family="sans-serif" font-size="13" lengthAdjust="spacing" textLength="207.1177" x="62" y="510.77">Subsequent calls fire only when</text><text fill="#000000" font-family="sans-serif" font-size="13" lengthAdjust="spacing" textLength="255.8486" x="62" y="525.9028">flags change (rate deviation excluded).</text><rect fill="#EEEEEE" height="3" style="stroke:#EEEEEE;stroke-width:1;" width="929.5928" x="0" y="559.5352"/><line style="stroke:#000000;stroke-width:1;" x1="0" x2="929.5928" y1="559.5352" y2="559.5352"/><line style="stroke:#000000;stroke-width:1;" x1="0" x2="929.5928" y1="562.5352" y2="562.5352"/><rect fill="#EEEEEE" height="23.1328" style="stroke:#000000;stroke-width:2;" width="486.9258" x="221.3335" y="548.9688"/><text fill="#000000" font-family="sans-serif" font-size="13" font-weight="bold" lengthAdjust="spacing" textLength="468.3999" x="227.3335" y="565.0356">Event: synchronization flags change (called on backend thread)</text><polygon fill="#181818" points="624.1367,614.3672,614.1367,618.3672,624.1367,622.3672,620.1367,618.3672" style="stroke:#181818;stroke-width:1;"/><line style="stroke:#181818;stroke-width:1;" x1="618.1367" x2="851.6931" y1="618.3672" y2="618.3672"/><text fill="#000080" font-family="sans-serif" font-size="13" font-weight="bold" lengthAdjust="spacing" textLength="29.9736" x="630.1367" y="605.7349">[07]</text><text fill="#000000" font-family="sans-serif" font-size="13" lengthAdjust="spacing" textLength="89.8828" x="664.1104" y="598.1685">status update</text><text fill="#000000" font-family="sans-serif" font-size="13" lengthAdjust="spacing" textLength="158.1138" x="664.1104" y="613.3013">(e.g. kSynchronized set)</text><polygon fill="#181818" points="67.6006,643.5,57.6006,647.5,67.6006,651.5,63.6006,647.5" style="stroke:#181818;stroke-width:1;"/><line style="stroke:#181818;stroke-width:1;" x1="61.6006" x2="602.1367" y1="647.5" y2="647.5"/><text fill="#000080" font-family="sans-serif" font-size="13" font-weight="bold" lengthAdjust="spacing" textLength="29.9736" x="73.6006" y="642.4341">[08]</text><text fill="#000000" font-family="sans-serif" font-size="13" lengthAdjust="spacing" textLength="146.6816" x="107.5742" y="642.4341">cb(VehicleTimeStatus)</text><path d="M56,690.5 L56,790.5 L349,790.5 L349,700.5 L339,690.5 L56,690.5 " fill="#FEFFDD" style="stroke:#181818;stroke-width:0.5;"/><path d="M339,690.5 L339,700.5 L349,700.5 L339,690.5 " fill="#FEFFDD" style="stroke:#181818;stroke-width:0.5;"/><text fill="#000000" font-family="sans-serif" font-size="13" lengthAdjust="spacing" textLength="116.9111" x="62" y="707.5669">status.IsReliable()</text><text fill="#000000" font-family="sans-serif" font-size="13" lengthAdjust="spacing" textLength="134.126" x="70.2646" y="722.6997">&#8594; clock ready to use</text><text fill="#000000" font-family="sans-serif" font-size="13" lengthAdjust="spacing" textLength="199.6846" x="62" y="737.8325">status.HasBeenSynchronized()</text><text fill="#000000" font-family="sans-serif" font-size="13" lengthAdjust="spacing" textLength="264.272" x="70.2646" y="752.9653">&#8594; was synchronized, currently degraded</text><text fill="#000000" font-family="sans-serif" font-size="13" lengthAdjust="spacing" textLength="184.52" x="62" y="768.0981">Called on backend thread &#8212;</text><text fill="#000000" font-family="sans-serif" font-size="13" lengthAdjust="spacing" textLength="243.458" x="62" y="783.231">implementation must be thread-safe.</text><rect fill="#EEEEEE" height="3" style="stroke:#EEEEEE;stroke-width:1;" width="929.5928" x="0" y="816.8633"/><line style="stroke:#000000;stroke-width:1;" x1="0" x2="929.5928" y1="816.8633" y2="816.8633"/><line style="stroke:#000000;stroke-width:1;" x1="0" x2="929.5928" y1="819.8633" y2="819.8633"/><rect fill="#EEEEEE" height="23.1328" style="stroke:#000000;stroke-width:2;" width="286.1875" x="321.7026" y="806.2969"/><text fill="#000000" font-family="sans-serif" font-size="13" font-weight="bold" lengthAdjust="spacing" textLength="267.6616" x="327.7026" y="822.3638">Unsubscribe when no longer needed</text><polygon fill="#181818" points="325.7871,856.5625,335.7871,860.5625,325.7871,864.5625,329.7871,860.5625" style="stroke:#181818;stroke-width:1;"/><line style="stroke:#181818;stroke-width:1;" x1="51.6006" x2="331.7871" y1="860.5625" y2="860.5625"/><text fill="#000080" font-family="sans-serif" font-size="13" font-weight="bold" lengthAdjust="spacing" textLength="29.9736" x="58.6006" y="855.4966">[09]</text><text fill="#000000" font-family="sans-serif" font-size="13" lengthAdjust="spacing" textLength="233.2129" x="92.5742" y="855.4966">Unsubscribe&lt;VehicleTimeStatus&gt;()</text><polygon fill="#181818" points="591.1367,885.6953,601.1367,889.6953,591.1367,893.6953,595.1367,889.6953" style="stroke:#181818;stroke-width:1;"/><line style="stroke:#181818;stroke-width:1;" x1="347.7871" x2="597.1367" y1="889.6953" y2="889.6953"/><text fill="#000080" font-family="sans-serif" font-size="13" font-weight="bold" lengthAdjust="spacing" textLength="29.9736" x="354.7871" y="884.6294">[10]</text><text fill="#000000" font-family="sans-serif" font-size="13" lengthAdjust="spacing" textLength="202.376" x="388.7607" y="884.6294">UnsetStatusChangedCallback()</text><polygon fill="#181818" points="835.6931,914.8281,845.6931,918.8281,835.6931,922.8281,839.6931,918.8281" style="stroke:#181818;stroke-width:1;"/><line style="stroke:#181818;stroke-width:1;" x1="613.1367" x2="841.6931" y1="918.8281" y2="918.8281"/><text fill="#000080" font-family="sans-serif" font-size="13" font-weight="bold" lengthAdjust="spacing" textLength="29.9736" x="620.1367" y="913.7622">[11]</text><text fill="#000000" font-family="sans-serif" font-size="13" lengthAdjust="spacing" textLength="163.5537" x="654.1104" y="913.7622">deregister status listener</text><polygon fill="#181818" points="624.1367,943.9609,614.1367,947.9609,624.1367,951.9609,620.1367,947.9609" style="stroke:#181818;stroke-width:1;"/><line style="stroke:#181818;stroke-width:1;stroke-dasharray:2.0,2.0;" x1="618.1367" x2="851.6931" y1="947.9609" y2="947.9609"/><text fill="#000080" font-family="sans-serif" font-size="13" font-weight="bold" lengthAdjust="spacing" textLength="29.9736" x="630.1367" y="942.895">[12]</text><text fill="#000000" font-family="sans-serif" font-size="13" lengthAdjust="spacing" textLength="4.1323" x="664.1104" y="942.895">&#160;</text><polygon fill="#181818" points="358.7871,973.0938,348.7871,977.0938,358.7871,981.0938,354.7871,977.0938" style="stroke:#181818;stroke-width:1;"/><line style="stroke:#181818;stroke-width:1;stroke-dasharray:2.0,2.0;" x1="352.7871" x2="607.1367" y1="977.0938" y2="977.0938"/><text fill="#000080" font-family="sans-serif" font-size="13" font-weight="bold" lengthAdjust="spacing" textLength="29.9736" x="364.7871" y="972.0278">[13]</text><text fill="#000000" font-family="sans-serif" font-size="13" lengthAdjust="spacing" textLength="4.1323" x="398.7607" y="972.0278">&#160;</text><polygon fill="#181818" points="62.6006,1002.2266,52.6006,1006.2266,62.6006,1010.2266,58.6006,1006.2266" style="stroke:#181818;stroke-width:1;"/><line style="stroke:#181818;stroke-width:1;stroke-dasharray:2.0,2.0;" x1="56.6006" x2="341.7871" y1="1006.2266" y2="1006.2266"/><text fill="#000080" font-family="sans-serif" font-size="13" font-weight="bold" lengthAdjust="spacing" textLength="29.9736" x="68.6006" y="1001.1606">[14]</text><text fill="#000000" font-family="sans-serif" font-size="13" lengthAdjust="spacing" textLength="4.1323" x="102.5742" y="1001.1606">&#160;</text><rect fill="transparent" height="95.4844" id="_legend" rx="7.5" ry="7.5" style="stroke:#000000;stroke-width:1;" width="314.8008" x="12" y="54.2969"/><text fill="#000000" font-family="sans-serif" font-size="14" font-weight="bold" lengthAdjust="spacing" textLength="41.2139" x="21.874" y="74.292">Color</text><text fill="#000000" font-family="sans-serif" font-size="14" font-weight="bold" lengthAdjust="spacing" textLength="90.5488" x="141.0723" y="74.292">Description</text><rect fill="#FFA07A" height="16.2969" style="stroke:transparent;stroke-width:1;" width="119.1982" x="17" y="77.5938"/><text fill="#000000" font-family="sans-serif" font-size="14" lengthAdjust="spacing" textLength="35.6016" x="17" y="90.5889">&#160;&#160;&#160;&#160;&#160;&#160;&#160;&#160;</text><text fill="#000000" font-family="sans-serif" font-size="14" lengthAdjust="spacing" textLength="116.4365" x="140.6484" y="90.5889">Application code</text><rect fill="#90EE90" height="16.2969" style="stroke:transparent;stroke-width:1;" width="119.1982" x="17" y="93.8906"/><text fill="#000000" font-family="sans-serif" font-size="14" lengthAdjust="spacing" textLength="40.0518" x="17" y="106.8857">&#160;&#160;&#160;&#160;&#160;&#160;&#160;&#160;&#160;</text><text fill="#000000" font-family="sans-serif" font-size="14" lengthAdjust="spacing" textLength="158.833" x="140.6484" y="106.8857">score::time framework</text><rect fill="#F08080" height="16.2969" style="stroke:transparent;stroke-width:1;" width="119.1982" x="17" y="110.1875"/><text fill="#000000" font-family="sans-serif" font-size="14" lengthAdjust="spacing" textLength="40.0518" x="17" y="123.1826">&#160;&#160;&#160;&#160;&#160;&#160;&#160;&#160;&#160;</text><text fill="#000000" font-family="sans-serif" font-size="14" lengthAdjust="spacing" textLength="149.9395" x="140.6484" y="123.1826">VehicleTime backend</text><rect fill="#FFDEAD" height="16.2969" style="stroke:transparent;stroke-width:1;" width="119.1982" x="17" y="126.4844"/><text fill="#000000" font-family="sans-serif" font-size="14" lengthAdjust="spacing" textLength="35.6016" x="17" y="139.4795">&#160;&#160;&#160;&#160;&#160;&#160;&#160;&#160;</text><text fill="#000000" font-family="sans-serif" font-size="14" lengthAdjust="spacing" textLength="141.1006" x="140.6484" y="139.4795">score::TimeDaemon</text><line style="stroke:#000000;stroke-width:1;" x1="17" x2="321.8008" y1="61.2969" y2="61.2969"/><line style="stroke:#000000;stroke-width:1;" x1="17" x2="321.8008" y1="77.5938" y2="77.5938"/><line style="stroke:#000000;stroke-width:1;" x1="17" x2="321.8008" y1="93.8906" y2="93.8906"/><line style="stroke:#000000;stroke-width:1;" x1="17" x2="321.8008" y1="110.1875" y2="110.1875"/><line style="stroke:#000000;stroke-width:1;" x1="17" x2="321.8008" y1="126.4844" y2="126.4844"/><line style="stroke:#000000;stroke-width:1;" x1="17" x2="321.8008" y1="142.7813" y2="142.7813"/><line style="stroke:#000000;stroke-width:1;" x1="17" x2="17" y1="61.2969" y2="142.7813"/><line style="stroke:#000000;stroke-width:1;" x1="136.1982" x2="136.1982" y1="61.2969" y2="142.7813"/><line style="stroke:#000000;stroke-width:1;" x1="321.8008" x2="321.8008" y1="61.2969" y2="142.7813"/><!--SRC=[pLLDRnCn4BtxLupIIoBHA0U4KDH4eYbV4kBGG3bG3bxlRDR4Qo-sDsbG3vpu0OXVs5_2U3yI9qsh7jdJPZtlpSnxCuwNNY5SVNeETx_-mXNcKYZy90iSmtoZHMwDbZ-vbqR3t7DVEPXNYHDMbk4ROsufTSajBo3XOhcmfjBfp2XZOPrBZooNAK9cZ4_C3UELDxeg4hJGEykCzY12w4JprMPwbao_ZaRVUemfNA1EmPiI56QU0Jst4sXezn_wV87RSWxE6k3PoGUvoFsSgyBewVOGNfMbag9fJHYgyW7WMukumn7G2MDnFFOa4cJKEQwDNHu1pepbAWP6wjPgXIOFCdxaA_xTV0dIJUzb3C0BZaNKw2qZaaOlnaXYw4LjzU04NsIZBAlPoIKlXImvoHv7NMjXYj9erBu7t04lIuWb2naWkDVmHzqJVs3FHlVvsrPdoeXbpIh26qIAFeuvR-IfePrKaQh7Qzhf4ohBifV7Aek3YDmJRoJwZdWoWKjSIETfM0LNAbG1HWi4xa5gwM4oOIo8TJfjknjtkv7WMUHripVJlaW6Z0ilLznZWs0DZWYw7ea2VGEOvLmlC9srkVVXRJphS4JX0zfs9RjcMLNufT7ka3vb57cwoybIZ0-tZ5rRyNa7QUkc418W3cWGJ1jwjy4kC5aT4tnu8wqBsgrCktQPjEX05WMcaj1gKuUjfS_1vqHMMKjJsVNYD2zTRlomZWfIuuygd0TxN4r61gaDtJpjU6MABsZqQY6XRqE1AQvaannlXAfIJ0V3slHGSktwwnLnZi4Tt7xxN24bffHkwvpFBV9qK4-5J_SzRHkeofHAkDPz72w6iDpThyJaq3zkRvYqCOYaVs-o8bnG-hZsJGd3z-uIbUI9mlw0DLV8tUy_xVo61ZPqxKBbC0Qzu-wSDZQkTm-zfZroqU6ppZdo8iM5vQHo7JvxGBNmtrC7oA9KM12oqRoeQ5uIRADE7SymCYiQkuCfxEGBTdxMhblAUZ082ygGYHOq8bLsR8yZqB5DVieU4yL3c_o4FKxn_zZaVm00]--></g></svg>