<svg xmlns="http://www.w3.org/2000/svg" xmlns:xlink="http://www.w3.org/1999/xlink" contentStyleType="text/css" data-diagram-type="SEQUENCE" height="1085px" preserveAspectRatio="none" style="width:1104px;height:1085px;background:#FFFFFF;" version="1.1" viewBox="0 0 1104 1085" width="1104px" zoomAndPan="magnify"><title>UC3 &#8212; Async PTP Event Subscription</title><defs/><g><text fill="#000000" font-family="sans-serif" font-size="14" font-weight="bold" lengthAdjust="spacing" textLength="290.7324" x="402.9768" y="27.9951">UC3 &#8212; Async PTP Event Subscription</text><rect fill="#E6F0FF" height="924.6563" style="stroke:#181818;stroke-width:0.5;" width="101.2012" x="1" y="147.4844"/><text fill="#000000" font-family="sans-serif" font-size="13" font-weight="bold" lengthAdjust="spacing" textLength="82.9194" x="10.1409" y="159.5513">Application</text><rect fill="#F0FFF0" height="924.6563" style="stroke:#181818;stroke-width:0.5;" width="534.1577" x="398.7075" y="147.4844"/><text fill="#000000" font-family="sans-serif" font-size="13" font-weight="bold" lengthAdjust="spacing" textLength="83.0337" x="624.2695" y="159.5513">score::time</text><g><title>VehicleClock</title><rect fill="#FFFFFF" height="29.1328" style="stroke:#181818;stroke-width:1;" width="10" x="483.8403" y="245.3438"/></g><g><title>VehicleClock</title><rect fill="#FFFFFF" height="87.3984" style="stroke:#181818;stroke-width:1;" width="10" x="483.8403" y="346.7422"/></g><g><title>VehicleClock</title><rect fill="#FFFFFF" height="87.3984" style="stroke:#181818;stroke-width:1;" width="10" x="483.8403" y="463.2734"/></g><g><title>VehicleClock</title><rect fill="#FFFFFF" height="87.3984" style="stroke:#181818;stroke-width:1;" width="10" x="483.8403" y="856.2109"/></g><g><title>VehicleClock</title><rect fill="#FFFFFF" height="87.3984" style="stroke:#181818;stroke-width:1;" width="10" x="483.8403" y="972.7422"/></g><g><title>VehicleClockIface</title><rect fill="#FFFFFF" height="29.1328" style="stroke:#181818;stroke-width:1;" width="10" x="855.2974" y="375.875"/></g><g><title>VehicleClockIface</title><rect fill="#FFFFFF" height="29.1328" style="stroke:#181818;stroke-width:1;" width="10" x="855.2974" y="492.4063"/></g><g><title>VehicleClockIface</title><rect fill="#FFFFFF" height="29.1328" style="stroke:#181818;stroke-width:1;" width="10" x="855.2974" y="885.3438"/></g><g><title>VehicleClockIface</title><rect fill="#FFFFFF" height="29.1328" style="stroke:#181818;stroke-width:1;" width="10" x="855.2974" y="1001.875"/></g><g><title>Application</title><rect fill="transparent" height="387.5938" width="8" x="47.6006" y="214.2109"/><line style="stroke:#181818;stroke-width:0.5;stroke-dasharray:5.0,5.0;" x1="51" x2="51" y1="214.2109" y2="601.8047"/></g><line style="stroke:#A80036;stroke-width:1;stroke-dasharray:1.0,4.0;" x1="51" x2="51" y1="601.8047" y2="642.6094"/><g><title>Application</title><rect fill="transparent" height="79.3984" width="8" x="47.6006" y="642.6094"/><line style="stroke:#181818;stroke-width:0.5;stroke-dasharray:5.0,5.0;" x1="51" x2="51" y1="642.6094" y2="722.0078"/></g><line style="stroke:#A80036;stroke-width:1;stroke-dasharray:1.0,4.0;" x1="51" x2="51" y1="722.0078" y2="762.8125"/><g><title>Application</title><rect fill="transparent" height="315.3281" width="8" x="47.6006" y="762.8125"/><line style="stroke:#181818;stroke-width:0.5;stroke-dasharray:5.0,5.0;" x1="51" x2="51" y1="762.8125" y2="1078.1406"/></g><g><title>VehicleClock</title><rect fill="transparent" height="387.5938" width="8" x="484.8403" y="214.2109"/><line style="stroke:#181818;stroke-width:0.5;stroke-dasharray:5.0,5.0;" x1="488.7075" x2="488.7075" y1="214.2109" y2="601.8047"/></g><line style="stroke:#A80036;stroke-width:1;stroke-dasharray:1.0,4.0;" x1="488.7075" x2="488.7075" y1="601.8047" y2="642.6094"/><g><title>VehicleClock</title><rect fill="transparent" height="79.3984" width="8" x="484.8403" y="642.6094"/><line style="stroke:#181818;stroke-width:0.5;stroke-dasharray:5.0,5.0;" x1="488.7075" x2="488.7075" y1="642.6094" y2="722.0078"/></g><line style="stroke:#A80036;stroke-width:1;stroke-dasharray:1.0,4.0;" x1="488.7075" x2="488.7075" y1="722.0078" y2="762.8125"/><g><title>VehicleClock</title><rect fill="transparent" height="315.3281" width="8" x="484.8403" y="762.8125"/><line style="stroke:#181818;stroke-width:0.5;stroke-dasharray:5.0,5.0;" x1="488.7075" x2="488.7075" y1="762.8125" y2="1078.1406"/></g><g><title>VehicleClockIface</title><rect fill="transparent" height="387.5938" width="8" x="856.2974" y="214.2109"/><line style="stroke:#181818;stroke-width:0.5;stroke-dasharray:5.0,5.0;" x1="859.7295" x2="859.7295" y1="214.2109" y2="601.8047"/></g><line style="stroke:#A80036;stroke-width:1;stroke-dasharray:1.0,4.0;" x1="859.7295" x2="859.7295" y1="601.8047" y2="642.6094"/><g><title>VehicleClockIface</title><rect fill="transparent" height="79.3984" width="8" x="856.2974" y="642.6094"/><line style="stroke:#181818;stroke-width:0.5;stroke-dasharray:5.0,5.0;" x1="859.7295" x2="859.7295" y1="642.6094" y2="722.0078"/></g><line style="stroke:#A80036;stroke-width:1;stroke-dasharray:1.0,4.0;" x1="859.7295" x2="859.7295" y1="722.0078" y2="762.8125"/><g><title>VehicleClockIface</title><rect fill="transparent" height="315.3281" width="8" x="856.2974" y="762.8125"/><line style="stroke:#181818;stroke-width:0.5;stroke-dasharray:5.0,5.0;" x1="859.7295" x2="859.7295" y1="762.8125" y2="1078.1406"/></g><rect fill="#FFA07A" height="46.5938" rx="2.5" ry="2.5" style="stroke:#181818;stroke-width:0.5;" width="93.2012" x="5" y="166.6172"/><text fill="#000000" font-family="sans-serif" font-size="14" lengthAdjust="spacing" textLength="78.2236" x="12.4888" y="186.6123">Application</text><text fill="#000000" font-family="sans-serif" font-size="14" lengthAdjust="spacing" textLength="79.2012" x="12" y="202.9092">component</text><rect fill="#90EE90" height="46.5938" rx="2.5" ry="2.5" style="stroke:#181818;stroke-width:0.5;" width="172.2656" x="402.7075" y="166.6172"/><text fill="#000000" font-family="sans-serif" font-size="14" lengthAdjust="spacing" textLength="89.1885" x="444.2461" y="186.6123">VehicleClock</text><text fill="#000000" font-family="sans-serif" font-size="14" lengthAdjust="spacing" textLength="158.2656" x="409.7075" y="202.9092">(Clock&lt;VehicleTime&gt;)</text><rect fill="#F08080" height="46.5938" rx="2.5" ry="2.5" style="stroke:#181818;stroke-width:0.5;" width="137.1357" x="791.7295" y="166.6172"/><text fill="#000000" font-family="sans-serif" font-size="14" lengthAdjust="spacing" textLength="123.1357" x="798.7295" y="186.6123">VehicleClockIface</text><text fill="#000000" font-family="sans-serif" font-size="14" lengthAdjust="spacing" textLength="71.2852" x="824.6548" y="202.9092">(Backend)</text><g><title>VehicleClock</title><rect fill="#FFFFFF" height="29.1328" style="stroke:#181818;stroke-width:1;" width="10" x="483.8403" y="245.3438"/></g><g><title>VehicleClock</title><rect fill="#FFFFFF" height="87.3984" style="stroke:#181818;stroke-width:1;" width="10" x="483.8403" y="346.7422"/></g><g><title>VehicleClock</title><rect fill="#FFFFFF" height="87.3984" style="stroke:#181818;stroke-width:1;" width="10" x="483.8403" y="463.2734"/></g><g><title>VehicleClock</title><rect fill="#FFFFFF" height="87.3984" style="stroke:#181818;stroke-width:1;" width="10" x="483.8403" y="856.2109"/></g><g><title>VehicleClock</title><rect fill="#FFFFFF" height="87.3984" style="stroke:#181818;stroke-width:1;" width="10" x="483.8403" y="972.7422"/></g><g><title>VehicleClockIface</title><rect fill="#FFFFFF" height="29.1328" style="stroke:#181818;stroke-width:1;" width="10" x="855.2974" y="375.875"/></g><g><title>VehicleClockIface</title><rect fill="#FFFFFF" height="29.1328" style="stroke:#181818;stroke-width:1;" width="10" x="855.2974" y="492.4063"/></g><g><title>VehicleClockIface</title><rect fill="#FFFFFF" height="29.1328" style="stroke:#181818;stroke-width:1;" width="10" x="855.2974" y="885.3438"/></g><g><title>VehicleClockIface</title><rect fill="#FFFFFF" height="29.1328" style="stroke:#181818;stroke-width:1;" width="10" x="855.2974" y="1001.875"/></g><polygon fill="#181818" points="471.8403,241.3438,481.8403,245.3438,471.8403,249.3438,475.8403,245.3438" style="stroke:#181818;stroke-width:1;"/><line style="stroke:#181818;stroke-width:1;" x1="51.6006" x2="477.8403" y1="245.3438" y2="245.3438"/><text fill="#000080" font-family="sans-serif" font-size="13" font-weight="bold" lengthAdjust="spacing" textLength="29.9736" x="58.6006" y="240.2778">[01]</text><text fill="#000000" font-family="sans-serif" font-size="13" lengthAdjust="spacing" textLength="88.6069" x="92.5742" y="240.2778">GetInstance()</text><polygon fill="#181818" points="62.6006,270.4766,52.6006,274.4766,62.6006,278.4766,58.6006,274.4766" style="stroke:#181818;stroke-width:1;"/><line style="stroke:#181818;stroke-width:1;stroke-dasharray:2.0,2.0;" x1="56.6006" x2="487.8403" y1="274.4766" y2="274.4766"/><text fill="#000080" font-family="sans-serif" font-size="13" font-weight="bold" lengthAdjust="spacing" textLength="29.9736" x="68.6006" y="269.4106">[02]</text><text fill="#000000" font-family="sans-serif" font-size="13" lengthAdjust="spacing" textLength="44.3066" x="102.5742" y="269.4106">handle</text><rect fill="#EEEEEE" height="3" style="stroke:#EEEEEE;stroke-width:1;" width="1097.686" x="0" y="303.043"/><line style="stroke:#000000;stroke-width:1;" x1="0" x2="1097.686" y1="303.043" y2="303.043"/><line style="stroke:#000000;stroke-width:1;" x1="0" x2="1097.686" y1="306.043" y2="306.043"/><rect fill="#EEEEEE" height="23.1328" style="stroke:#000000;stroke-width:2;" width="240.0337" x="428.8262" y="292.4766"/><text fill="#000000" font-family="sans-serif" font-size="13" font-weight="bold" lengthAdjust="spacing" textLength="221.5078" x="434.8262" y="308.5435">Register callbacks once at init</text><polygon fill="#181818" points="471.8403,342.7422,481.8403,346.7422,471.8403,350.7422,475.8403,346.7422" style="stroke:#181818;stroke-width:1;"/><line style="stroke:#181818;stroke-width:1;" x1="51.6006" x2="477.8403" y1="346.7422" y2="346.7422"/><text fill="#000080" font-family="sans-serif" font-size="13" font-weight="bold" lengthAdjust="spacing" textLength="29.9736" x="58.6006" y="341.6763">[03]</text><text fill="#000000" font-family="sans-serif" font-size="13" lengthAdjust="spacing" textLength="342.8052" x="92.5742" y="341.6763">Subscribe&lt;TimeSlaveSyncData&lt;VehicleTime&gt;&gt;(cb)</text><polygon fill="#181818" points="843.2974,371.875,853.2974,375.875,843.2974,379.875,847.2974,375.875" style="stroke:#181818;stroke-width:1;"/><line style="stroke:#181818;stroke-width:1;" x1="493.8403" x2="849.2974" y1="375.875" y2="375.875"/><text fill="#000080" font-family="sans-serif" font-size="13" font-weight="bold" lengthAdjust="spacing" textLength="29.9736" x="500.8403" y="370.8091">[04]</text><text fill="#000000" font-family="sans-serif" font-size="13" lengthAdjust="spacing" textLength="291.8906" x="534.814" y="370.8091">SetTimeSlaveSyncDataReceivedCallback(cb)</text><polygon fill="#181818" points="504.8403,401.0078,494.8403,405.0078,504.8403,409.0078,500.8403,405.0078" style="stroke:#181818;stroke-width:1;"/><line style="stroke:#181818;stroke-width:1;stroke-dasharray:2.0,2.0;" x1="498.8403" x2="859.2974" y1="405.0078" y2="405.0078"/><text fill="#000080" font-family="sans-serif" font-size="13" font-weight="bold" lengthAdjust="spacing" textLength="29.9736" x="510.8403" y="399.9419">[05]</text><text fill="#000000" font-family="sans-serif" font-size="13" lengthAdjust="spacing" textLength="4.1323" x="544.814" y="399.9419">&#160;</text><polygon fill="#181818" points="62.6006,430.1406,52.6006,434.1406,62.6006,438.1406,58.6006,434.1406" style="stroke:#181818;stroke-width:1;"/><line style="stroke:#181818;stroke-width:1;stroke-dasharray:2.0,2.0;" x1="56.6006" x2="487.8403" y1="434.1406" y2="434.1406"/><text fill="#000080" font-family="sans-serif" font-size="13" font-weight="bold" lengthAdjust="spacing" textLength="29.9736" x="68.6006" y="429.0747">[06]</text><text fill="#000000" font-family="sans-serif" font-size="13" lengthAdjust="spacing" textLength="4.1323" x="102.5742" y="429.0747">&#160;</text><polygon fill="#181818" points="471.8403,459.2734,481.8403,463.2734,471.8403,467.2734,475.8403,463.2734" style="stroke:#181818;stroke-width:1;"/><line style="stroke:#181818;stroke-width:1;" x1="51.6006" x2="477.8403" y1="463.2734" y2="463.2734"/><text fill="#000080" font-family="sans-serif" font-size="13" font-weight="bold" lengthAdjust="spacing" textLength="29.9736" x="58.6006" y="458.2075">[07]</text><text fill="#000000" font-family="sans-serif" font-size="13" lengthAdjust="spacing" textLength="378.3901" x="92.5742" y="458.2075">Subscribe&lt;PDelayMeasurementData&lt;VehicleTime&gt;&gt;(cb)</text><polygon fill="#181818" points="843.2974,488.4063,853.2974,492.4063,843.2974,496.4063,847.2974,492.4063" style="stroke:#181818;stroke-width:1;"/><line style="stroke:#181818;stroke-width:1;" x1="493.8403" x2="849.2974" y1="492.4063" y2="492.4063"/><text fill="#000080" font-family="sans-serif" font-size="13" font-weight="bold" lengthAdjust="spacing" textLength="29.9736" x="500.8403" y="487.3403">[08]</text><text fill="#000000" font-family="sans-serif" font-size="13" lengthAdjust="spacing" textLength="290.9067" x="534.814" y="487.3403">SetPDelayMeasurementFinishedCallback(cb)</text><polygon fill="#181818" points="504.8403,517.5391,494.8403,521.5391,504.8403,525.5391,500.8403,521.5391" style="stroke:#181818;stroke-width:1;"/><line style="stroke:#181818;stroke-width:1;stroke-dasharray:2.0,2.0;" x1="498.8403" x2="859.2974" y1="521.5391" y2="521.5391"/><text fill="#000080" font-family="sans-serif" font-size="13" font-weight="bold" lengthAdjust="spacing" textLength="29.9736" x="510.8403" y="516.4731">[09]</text><text fill="#000000" font-family="sans-serif" font-size="13" lengthAdjust="spacing" textLength="4.1323" x="544.814" y="516.4731">&#160;</text><polygon fill="#181818" points="62.6006,546.6719,52.6006,550.6719,62.6006,554.6719,58.6006,550.6719" style="stroke:#181818;stroke-width:1;"/><line style="stroke:#181818;stroke-width:1;stroke-dasharray:2.0,2.0;" x1="56.6006" x2="487.8403" y1="550.6719" y2="550.6719"/><text fill="#000080" font-family="sans-serif" font-size="13" font-weight="bold" lengthAdjust="spacing" textLength="29.9736" x="68.6006" y="545.606">[10]</text><text fill="#000000" font-family="sans-serif" font-size="13" lengthAdjust="spacing" textLength="4.1323" x="102.5742" y="545.606">&#160;</text><rect fill="#EEEEEE" height="3" style="stroke:#EEEEEE;stroke-width:1;" width="1097.686" x="0" y="579.2383"/><line style="stroke:#000000;stroke-width:1;" x1="0" x2="1097.686" y1="579.2383" y2="579.2383"/><line style="stroke:#000000;stroke-width:1;" x1="0" x2="1097.686" y1="582.2383" y2="582.2383"/><rect fill="#EEEEEE" height="23.1328" style="stroke:#000000;stroke-width:2;" width="452.4009" x="322.6426" y="568.6719"/><text fill="#000000" font-family="sans-serif" font-size="13" font-weight="bold" lengthAdjust="spacing" textLength="433.875" x="328.6426" y="584.7388">Callbacks are called on backend thread when events arrive</text><text fill="#000000" font-family="sans-serif" font-size="11" lengthAdjust="spacing" textLength="209.9937" x="350.9521" y="626.0151">PTP sync event arrives from hardware</text><polygon fill="#181818" points="62.6006,659.7422,52.6006,663.7422,62.6006,667.7422,58.6006,663.7422" style="stroke:#181818;stroke-width:1;"/><line style="stroke:#181818;stroke-width:1;" x1="56.6006" x2="859.2974" y1="663.7422" y2="663.7422"/><text fill="#000080" font-family="sans-serif" font-size="13" font-weight="bold" lengthAdjust="spacing" textLength="29.9736" x="68.6006" y="658.6763">[11]</text><text fill="#000000" font-family="sans-serif" font-size="13" lengthAdjust="spacing" textLength="257.1499" x="102.5742" y="658.6763">cb(TimeSlaveSyncData&lt;VehicleTime&gt;)</text><path d="M865,676.7422 L865,716.7422 L1092,716.7422 L1092,686.7422 L1082,676.7422 L865,676.7422 " fill="#FEFFDD" style="stroke:#181818;stroke-width:0.5;"/><path d="M1082,676.7422 L1082,686.7422 L1092,686.7422 L1082,676.7422 " fill="#FEFFDD" style="stroke:#181818;stroke-width:0.5;"/><text fill="#000000" font-family="sans-serif" font-size="13" lengthAdjust="spacing" textLength="165.458" x="871" y="693.8091">called on backend thread</text><text fill="#000000" font-family="sans-serif" font-size="13" lengthAdjust="spacing" textLength="206.686" x="871" y="708.9419">&#8212; callback must be thread-safe</text><text fill="#000000" font-family="sans-serif" font-size="11" lengthAdjust="spacing" textLength="223.6362" x="344.1309" y="746.2183">PTP peer-delay measurement completes</text><polygon fill="#181818" points="62.6006,779.9453,52.6006,783.9453,62.6006,787.9453,58.6006,783.9453" style="stroke:#181818;stroke-width:1;"/><line style="stroke:#181818;stroke-width:1;" x1="56.6006" x2="859.2974" y1="783.9453" y2="783.9453"/><text fill="#000080" font-family="sans-serif" font-size="13" font-weight="bold" lengthAdjust="spacing" textLength="29.9736" x="68.6006" y="778.8794">[12]</text><text fill="#000000" font-family="sans-serif" font-size="13" lengthAdjust="spacing" textLength="292.7349" x="102.5742" y="778.8794">cb(PDelayMeasurementData&lt;VehicleTime&gt;)</text><rect fill="#EEEEEE" height="3" style="stroke:#EEEEEE;stroke-width:1;" width="1097.686" x="0" y="812.5117"/><line style="stroke:#000000;stroke-width:1;" x1="0" x2="1097.686" y1="812.5117" y2="812.5117"/><line style="stroke:#000000;stroke-width:1;" x1="0" x2="1097.686" y1="815.5117" y2="815.5117"/><rect fill="#EEEEEE" height="23.1328" style="stroke:#000000;stroke-width:2;" width="286.1875" x="405.7493" y="801.9453"/><text fill="#000000" font-family="sans-serif" font-size="13" font-weight="bold" lengthAdjust="spacing" textLength="267.6616" x="411.7493" y="818.0122">Unsubscribe when no longer needed</text><polygon fill="#181818" points="471.8403,852.2109,481.8403,856.2109,471.8403,860.2109,475.8403,856.2109" style="stroke:#181818;stroke-width:1;"/><line style="stroke:#181818;stroke-width:1;" x1="51.6006" x2="477.8403" y1="856.2109" y2="856.2109"/><text fill="#000080" font-family="sans-serif" font-size="13" font-weight="bold" lengthAdjust="spacing" textLength="29.9736" x="58.6006" y="851.145">[13]</text><text fill="#000000" font-family="sans-serif" font-size="13" lengthAdjust="spacing" textLength="343.6812" x="92.5742" y="851.145">Unsubscribe&lt;TimeSlaveSyncData&lt;VehicleTime&gt;&gt;()</text><polygon fill="#181818" points="843.2974,881.3438,853.2974,885.3438,843.2974,889.3438,847.2974,885.3438" style="stroke:#181818;stroke-width:1;"/><line style="stroke:#181818;stroke-width:1;" x1="493.8403" x2="849.2974" y1="885.3438" y2="885.3438"/><text fill="#000080" font-family="sans-serif" font-size="13" font-weight="bold" lengthAdjust="spacing" textLength="29.9736" x="500.8403" y="880.2778">[14]</text><text fill="#000000" font-family="sans-serif" font-size="13" lengthAdjust="spacing" textLength="308.4834" x="534.814" y="880.2778">RemoveTimeSlaveSyncDataReceivedCallback()</text><polygon fill="#181818" points="504.8403,910.4766,494.8403,914.4766,504.8403,918.4766,500.8403,914.4766" style="stroke:#181818;stroke-width:1;"/><line style="stroke:#181818;stroke-width:1;stroke-dasharray:2.0,2.0;" x1="498.8403" x2="859.2974" y1="914.4766" y2="914.4766"/><text fill="#000080" font-family="sans-serif" font-size="13" font-weight="bold" lengthAdjust="spacing" textLength="29.9736" x="510.8403" y="909.4106">[15]</text><text fill="#000000" font-family="sans-serif" font-size="13" lengthAdjust="spacing" textLength="4.1323" x="544.814" y="909.4106">&#160;</text><polygon fill="#181818" points="62.6006,939.6094,52.6006,943.6094,62.6006,947.6094,58.6006,943.6094" style="stroke:#181818;stroke-width:1;"/><line style="stroke:#181818;stroke-width:1;stroke-dasharray:2.0,2.0;" x1="56.6006" x2="487.8403" y1="943.6094" y2="943.6094"/><text fill="#000080" font-family="sans-serif" font-size="13" font-weight="bold" lengthAdjust="spacing" textLength="29.9736" x="68.6006" y="938.5435">[16]</text><text fill="#000000" font-family="sans-serif" font-size="13" lengthAdjust="spacing" textLength="4.1323" x="102.5742" y="938.5435">&#160;</text><polygon fill="#181818" points="471.8403,968.7422,481.8403,972.7422,471.8403,976.7422,475.8403,972.7422" style="stroke:#181818;stroke-width:1;"/><line style="stroke:#181818;stroke-width:1;" x1="51.6006" x2="477.8403" y1="972.7422" y2="972.7422"/><text fill="#000080" font-family="sans-serif" font-size="13" font-weight="bold" lengthAdjust="spacing" textLength="29.9736" x="58.6006" y="967.6763">[17]</text><text fill="#000000" font-family="sans-serif" font-size="13" lengthAdjust="spacing" textLength="379.2661" x="92.5742" y="967.6763">Unsubscribe&lt;PDelayMeasurementData&lt;VehicleTime&gt;&gt;()</text><polygon fill="#181818" points="843.2974,997.875,853.2974,1001.875,843.2974,1005.875,847.2974,1001.875" style="stroke:#181818;stroke-width:1;"/><line style="stroke:#181818;stroke-width:1;" x1="493.8403" x2="849.2974" y1="1001.875" y2="1001.875"/><text fill="#000080" font-family="sans-serif" font-size="13" font-weight="bold" lengthAdjust="spacing" textLength="29.9736" x="500.8403" y="996.8091">[18]</text><text fill="#000000" font-family="sans-serif" font-size="13" lengthAdjust="spacing" textLength="307.4995" x="534.814" y="996.8091">RemovePDelayMeasurementFinishedCallback()</text><polygon fill="#181818" points="504.8403,1027.0078,494.8403,1031.0078,504.8403,1035.0078,500.8403,1031.0078" style="stroke:#181818;stroke-width:1;"/><line style="stroke:#181818;stroke-width:1;stroke-dasharray:2.0,2.0;" x1="498.8403" x2="859.2974" y1="1031.0078" y2="1031.0078"/><text fill="#000080" font-family="sans-serif" font-size="13" font-weight="bold" lengthAdjust="spacing" textLength="29.9736" x="510.8403" y="1025.9419">[19]</text><text fill="#000000" font-family="sans-serif" font-size="13" lengthAdjust="spacing" textLength="4.1323" x="544.814" y="1025.9419">&#160;</text><polygon fill="#181818" points="62.6006,1056.1406,52.6006,1060.1406,62.6006,1064.1406,58.6006,1060.1406" style="stroke:#181818;stroke-width:1;"/><line style="stroke:#181818;stroke-width:1;stroke-dasharray:2.0,2.0;" x1="56.6006" x2="487.8403" y1="1060.1406" y2="1060.1406"/><text fill="#000080" font-family="sans-serif" font-size="13" font-weight="bold" lengthAdjust="spacing" textLength="29.9736" x="68.6006" y="1055.0747">[20]</text><text fill="#000000" font-family="sans-serif" font-size="13" lengthAdjust="spacing" textLength="4.1323" x="102.5742" y="1055.0747">&#160;</text><rect fill="transparent" height="79.1875" id="_legend" rx="7.5" ry="7.5" style="stroke:#000000;stroke-width:1;" width="314.7393" x="12" y="54.2969"/><text fill="#000000" font-family="sans-serif" font-size="14" font-weight="bold" lengthAdjust="spacing" textLength="41.2139" x="21.874" y="74.292">Color</text><text fill="#000000" font-family="sans-serif" font-size="14" font-weight="bold" lengthAdjust="spacing" textLength="90.5488" x="141.0723" y="74.292">Description</text><rect fill="#FFA07A" height="16.2969" style="stroke:transparent;stroke-width:1;" width="119.1982" x="17" y="77.5938"/><text fill="#000000" font-family="sans-serif" font-size="14" lengthAdjust="spacing" textLength="35.6016" x="17" y="90.5889">&#160;&#160;&#160;&#160;&#160;&#160;&#160;&#160;</text><text fill="#000000" font-family="sans-serif" font-size="14" lengthAdjust="spacing" textLength="116.4365" x="140.6484" y="90.5889">Application code</text><rect fill="#90EE90" height="16.2969" style="stroke:transparent;stroke-width:1;" width="119.1982" x="17" y="93.8906"/><text fill="#000000" font-family="sans-serif" font-size="14" lengthAdjust="spacing" textLength="40.0518" x="17" y="106.8857">&#160;&#160;&#160;&#160;&#160;&#160;&#160;&#160;&#160;</text><text fill="#000000" font-family="sans-serif" font-size="14" lengthAdjust="spacing" textLength="158.833" x="140.6484" y="106.8857">score::time framework</text><rect fill="#F08080" height="16.2969" style="stroke:transparent;stroke-width:1;" width="119.1982" x="17" y="110.1875"/><text fill="#000000" font-family="sans-serif" font-size="14" lengthAdjust="spacing" textLength="40.0518" x="17" y="123.1826">&#160;&#160;&#160;&#160;&#160;&#160;&#160;&#160;&#160;</text><text fill="#000000" font-family="sans-serif" font-size="14" lengthAdjust="spacing" textLength="149.9395" x="140.6484" y="123.1826">VehicleTime backend</text><line style="stroke:#000000;stroke-width:1;" x1="17" x2="321.7393" y1="61.2969" y2="61.2969"/><line style="stroke:#000000;stroke-width:1;" x1="17" x2="321.7393" y1="77.5938" y2="77.5938"/><line style="stroke:#000000;stroke-width:1;" x1="17" x2="321.7393" y1="93.8906" y2="93.8906"/><line style="stroke:#000000;stroke-width:1;" x1="17" x2="321.7393" y1="110.1875" y2="110.1875"/><line style="stroke:#000000;stroke-width:1;" x1="17" x2="321.7393" y1="126.4844" y2="126.4844"/><line style="stroke:#000000;stroke-width:1;" x1="17" x2="17" y1="61.2969" y2="126.4844"/><line style="stroke:#000000;stroke-width:1;" x1="136.1982" x2="136.1982" y1="61.2969" y2="126.4844"/><line style="stroke:#000000;stroke-width:1;" x1="321.7393" x2="321.7393" y1="61.2969" y2="126.4844"/><!--SRC=[lLHDQzj04BtlhnYSYtsmCHHwCBOWjTiGQ274IIzD3wlLo5gysXMxQwU17leZ-WlxIpghBykn7GTAeuk4PkRjUszcrakl4Exdx-3FhzzmwPwqW9kx6_YuHUrXkOcTiBBmqcZ6t5hgWbkUGyp5UcNDHYTpeuo5nqnwP9bC459ZV6n-CBxnHc_o62tqfgaXC15IPvfldw9f77qRZx_t65EuGfs0DmKeJ3q3UdxEe8BTV-Zt0biwps9LuVJYirnbVibLRdJK1k6oA9GKlAmJXbYUABooYBiwAdJ2M9nClCn96Id7HsFNHmhdndBLBVoAcHGAxq9XS2k8R4waxqesO-GKz3hiUd21xzDncfRePBQNGXQStEjcFMXXyi9eQb4Fk0DU5D1L7aw0q8GAloE2y0DwEZx4hndFbH7h1zqltzEEZ6XGdYN2V-ZOzJBITSe54jo7oeCAep6auzsESX0pZEfp9d25_bexpxN0_e1nuUMMUwp2h4eQKdgeca36WxKimMTvR3Q3Mrn9vsaS1LSgC71W21Iu1wcbXzdiuEnw_6ES1WEMYcznIGkou9xlEHFrHNoAMzIg9Jpq1q2tA51kCPdNhFQXwbhMO0mRTbsDJTAU6qTCEAdkPe6AFtr1xZOMSvggVr5u0FQ9x7NPcoYaDi_RxdABPQyneKQt77rcaITqOw4639TSIBJKWN80HgDHUVsLzs0PhgEErj_aD60sUGp0bCXsd9lv4t7_vKaPC6s8hWrp3oPjXOKTEiMr38RRkHbSo3VEGunrVEXuYkN-1EoTXWBH3fFG3CXttO1mTIZqfEYaXlFpC2YzljUkcQ7AK6r06RsY9TE82OavibITehDhzPgHkyNSRF7yNhtHLdNblMQlNY_n_6Bz9ub_0G00]--></g></svg>