<svg xmlns="http://www.w3.org/2000/svg" xmlns:xlink="http://www.w3.org/1999/xlink" contentStyleType="text/css" data-diagram-type="SEQUENCE" height="948px" preserveAspectRatio="none" style="width:1033px;height:948px;background:#FFFFFF;" version="1.1" viewBox="0 0 1033 948" width="1033px" zoomAndPan="magnify"><title>VT4 &#8212; VehicleTime: Synchronization Status Subscription</title><defs/><g><text fill="#000000" font-family="sans-serif" font-size="14" font-weight="bold" lengthAdjust="spacing" textLength="448.335" x="288.6511" y="27.9951">VT4 &#8212; VehicleTime: Synchronization Status Subscription</text><rect fill="#E6F0FF" height="772.1875" style="stroke:#181818;stroke-width:0.5;" width="101.2012" x="16" y="163.7813"/><text fill="#000000" font-family="sans-serif" font-size="13" font-weight="bold" lengthAdjust="spacing" textLength="82.9194" x="25.1409" y="175.8481">Application</text><rect fill="#F0FFF0" height="772.1875" style="stroke:#181818;stroke-width:0.5;" width="406.7188" x="302.1929" y="163.7813"/><text fill="#000000" font-family="sans-serif" font-size="13" font-weight="bold" lengthAdjust="spacing" textLength="83.0337" x="464.0354" y="175.8481">score::time</text><rect fill="#FFF8F0" height="772.1875" style="stroke:#181818;stroke-width:0.5;" width="151.7993" x="727.6016" y="163.7813"/><text fill="#000000" font-family="sans-serif" font-size="13" font-weight="bold" lengthAdjust="spacing" textLength="145.7993" x="730.6016" y="175.8481">score::TimeDaemon</text><g><title>Application</title><rect fill="#FFFFFF" height="30" style="stroke:#181818;stroke-width:1;" width="10" x="61.6006" y="517.7031"/></g><g><title>Application</title><rect fill="#FFFFFF" height="30" style="stroke:#181818;stroke-width:1;" width="10" x="61.6006" y="641.9063"/></g><g><title>VehicleClock</title><rect fill="#FFFFFF" height="87.3984" style="stroke:#181818;stroke-width:1;" width="10" x="352.7871" y="304.7734"/></g><g><title>VehicleClock</title><rect fill="#FFFFFF" height="87.3984" style="stroke:#181818;stroke-width:1;" width="10" x="352.7871" y="836.5703"/></g><g><title>VehicleClockBackend</title><rect fill="#FFFFFF" height="29.1328" style="stroke:#181818;stroke-width:1;" width="10" x="618.1367" y="333.9063"/></g><g><title>VehicleClockBackend</title><rect fill="#FFFFFF" height="307.8672" style="stroke:#181818;stroke-width:1;" width="10" x="618.1367" y="464.4375"/></g><g><title>VehicleClockBackend</title><rect fill="#FFFFFF" height="29.1328" style="stroke:#181818;stroke-width:1;" width="10" x="618.1367" y="865.7031"/></g><rect fill="transparent" height="250.7344" style="stroke:#000000;stroke-width:1.5;" width="704.9116" x="10" y="479.4375"/><g><title>Application</title><rect fill="transparent" height="711.4609" width="8" x="62.6006" y="230.5078"/><line style="stroke:#181818;stroke-width:0.5;stroke-dasharray:5.0,5.0;" x1="66" x2="66" y1="230.5078" y2="941.9688"/></g><g><title>VehicleClock</title><rect fill="transparent" height="711.4609" width="8" x="353.7871" y="230.5078"/><line style="stroke:#181818;stroke-width:0.5;stroke-dasharray:5.0,5.0;" x1="357.1929" x2="357.1929" y1="230.5078" y2="941.9688"/></g><g><title>VehicleClockBackend</title><rect fill="transparent" height="711.4609" width="8" x="619.1367" y="230.5078"/><line style="stroke:#181818;stroke-width:0.5;stroke-dasharray:5.0,5.0;" x1="622.3618" x2="622.3618" y1="230.5078" y2="941.9688"/></g><g><title>TimeDaemon</title><rect fill="transparent" height="711.4609" width="8" x="799.5012" y="230.5078"/><line style="stroke:#181818;stroke-width:0.5;stroke-dasharray:5.0,5.0;" x1="802.6306" x2="802.6306" y1="230.5078" y2="941.9688"/></g><rect fill="#FFA07A" height="46.5938" rx="2.5" ry="2.5" style="stroke:#181818;stroke-width:0.5;" width="93.2012" x="20" y="182.9141"/><text fill="#000000" font-family="sans-serif" font-size="14" lengthAdjust="spacing" textLength="78.2236" x="27.4888" y="202.9092">Application</text><text fill="#000000" font-family="sans-serif" font-size="14" lengthAdjust="spacing" textLength="79.2012" x="27" y="219.2061">component</text><rect fill="#90EE90" height="30.2969" rx="2.5" ry="2.5" style="stroke:#181818;stroke-width:0.5;" width="103.1885" x="306.1929" y="199.2109"/><text fill="#000000" font-family="sans-serif" font-size="14" lengthAdjust="spacing" textLength="89.1885" x="313.1929" y="219.2061">VehicleClock</text><rect fill="#F08080" height="30.2969" rx="2.5" ry="2.5" style="stroke:#181818;stroke-width:0.5;" width="163.5498" x="541.3618" y="199.2109"/><text fill="#000000" font-family="sans-serif" font-size="14" lengthAdjust="spacing" textLength="149.5498" x="548.3618" y="219.2061">VehicleClockBackend</text><rect fill="#FFDEAD" height="30.2969" rx="2.5" ry="2.5" style="stroke:#181818;stroke-width:0.5;" width="107.7412" x="749.6306" y="199.2109"/><text fill="#000000" font-family="sans-serif" font-size="14" lengthAdjust="spacing" textLength="93.7412" x="756.6306" y="219.2061">TimeDaemon</text><g><title>Application</title><rect fill="#FFFFFF" height="30" style="stroke:#181818;stroke-width:1;" width="10" x="61.6006" y="517.7031"/></g><g><title>Application</title><rect fill="#FFFFFF" height="30" style="stroke:#181818;stroke-width:1;" width="10" x="61.6006" y="641.9063"/></g><g><title>VehicleClock</title><rect fill="#FFFFFF" height="87.3984" style="stroke:#181818;stroke-width:1;" width="10" x="352.7871" y="304.7734"/></g><g><title>VehicleClock</title><rect fill="#FFFFFF" height="87.3984" style="stroke:#181818;stroke-width:1;" width="10" x="352.7871" y="836.5703"/></g><g><title>VehicleClockBackend</title><rect fill="#FFFFFF" height="29.1328" style="stroke:#181818;stroke-width:1;" width="10" x="618.1367" y="333.9063"/></g><g><title>VehicleClockBackend</title><rect fill="#FFFFFF" height="307.8672" style="stroke:#181818;stroke-width:1;" width="10" x="618.1367" y="464.4375"/></g><g><title>VehicleClockBackend</title><rect fill="#FFFFFF" height="29.1328" style="stroke:#181818;stroke-width:1;" width="10" x="618.1367" y="865.7031"/></g><rect fill="#EEEEEE" height="3" style="stroke:#EEEEEE;stroke-width:1;" width="1026.6372" x="0" y="261.0742"/><line style="stroke:#000000;stroke-width:1;" x1="0" x2="1026.6372" y1="261.0742" y2="261.0742"/><line style="stroke:#000000;stroke-width:1;" x1="0" x2="1026.6372" y1="264.0742" y2="264.0742"/><rect fill="#EEEEEE" height="23.1328" style="stroke:#000000;stroke-width:2;" width="232.2959" x="397.1707" y="250.5078"/><text fill="#000000" font-family="sans-serif" font-size="13" font-weight="bold" lengthAdjust="spacing" textLength="213.77" x="403.1707" y="266.5747">Register callback once at init</text><polygon fill="#181818" points="340.7871,300.7734,350.7871,304.7734,340.7871,308.7734,344.7871,304.7734" style="stroke:#181818;stroke-width:1;"/><line style="stroke:#181818;stroke-width:1;" x1="66.6006" x2="346.7871" y1="304.7734" y2="304.7734"/><text fill="#000080" font-family="sans-serif" font-size="13" font-weight="bold" lengthAdjust="spacing" textLength="29.9736" x="73.6006" y="299.7075">[01]</text><text fill="#000000" font-family="sans-serif" font-size="13" lengthAdjust="spacing" textLength="232.3369" x="107.5742" y="299.7075">Subscribe&lt;VehicleTimeStatus&gt;(cb)</text><polygon fill="#181818" points="606.1367,329.9063,616.1367,333.9063,606.1367,337.9063,610.1367,333.9063" style="stroke:#181818;stroke-width:1;"/><line style="stroke:#181818;stroke-width:1;" x1="362.7871" x2="612.1367" y1="333.9063" y2="333.9063"/><text fill="#000080" font-family="sans-serif" font-size="13" font-weight="bold" lengthAdjust="spacing" textLength="29.9736" x="369.7871" y="328.8403">[02]</text><text fill="#000000" font-family="sans-serif" font-size="13" lengthAdjust="spacing" textLength="201.5" x="403.7607" y="328.8403">SetStatusChangedCallback(cb)</text><polygon fill="#181818" points="373.7871,359.0391,363.7871,363.0391,373.7871,367.0391,369.7871,363.0391" style="stroke:#181818;stroke-width:1;"/><line style="stroke:#181818;stroke-width:1;stroke-dasharray:2.0,2.0;" x1="367.7871" x2="622.1367" y1="363.0391" y2="363.0391"/><text fill="#000080" font-family="sans-serif" font-size="13" font-weight="bold" lengthAdjust="spacing" textLength="29.9736" x="379.7871" y="357.9731">[03]</text><text fill="#000000" font-family="sans-serif" font-size="13" lengthAdjust="spacing" textLength="4.1323" x="413.7607" y="357.9731">&#160;</text><polygon fill="#181818" points="77.6006,388.1719,67.6006,392.1719,77.6006,396.1719,73.6006,392.1719" style="stroke:#181818;stroke-width:1;"/><line style="stroke:#181818;stroke-width:1;stroke-dasharray:2.0,2.0;" x1="71.6006" x2="356.7871" y1="392.1719" y2="392.1719"/><text fill="#000080" font-family="sans-serif" font-size="13" font-weight="bold" lengthAdjust="spacing" textLength="29.9736" x="83.6006" y="387.106">[04]</text><text fill="#000000" font-family="sans-serif" font-size="13" lengthAdjust="spacing" textLength="4.1323" x="117.5742" y="387.106">&#160;</text><rect fill="#EEEEEE" height="3" style="stroke:#EEEEEE;stroke-width:1;" width="1026.6372" x="0" y="420.7383"/><line style="stroke:#000000;stroke-width:1;" x1="0" x2="1026.6372" y1="420.7383" y2="420.7383"/><line style="stroke:#000000;stroke-width:1;" x1="0" x2="1026.6372" y1="423.7383" y2="423.7383"/><rect fill="#EEEEEE" height="23.1328" style="stroke:#000000;stroke-width:2;" width="422.7002" x="301.9685" y="410.1719"/><text fill="#000000" font-family="sans-serif" font-size="13" font-weight="bold" lengthAdjust="spacing" textLength="404.1743" x="307.9685" y="426.2388">PTP status update received (called on backend thread)</text><polygon fill="#181818" points="639.1367,460.4375,629.1367,464.4375,639.1367,468.4375,635.1367,464.4375" style="stroke:#181818;stroke-width:1;"/><line style="stroke:#181818;stroke-width:1;" x1="633.1367" x2="802.5012" y1="464.4375" y2="464.4375"/><text fill="#000080" font-family="sans-serif" font-size="13" font-weight="bold" lengthAdjust="spacing" textLength="29.9736" x="645.1367" y="459.3716">[05]</text><text fill="#000000" font-family="sans-serif" font-size="13" lengthAdjust="spacing" textLength="104.3618" x="679.1104" y="459.3716">new status data</text><path d="M10,479.4375 L74.4429,479.4375 L74.4429,486.5703 L64.4429,496.5703 L10,496.5703 L10,479.4375 " fill="#EEEEEE" style="stroke:#000000;stroke-width:1.5;"/><rect fill="transparent" height="250.7344" style="stroke:#000000;stroke-width:1.5;" width="704.9116" x="10" y="479.4375"/><text fill="#000000" font-family="sans-serif" font-size="13" font-weight="bold" lengthAdjust="spacing" textLength="19.4429" x="25" y="492.5044">alt</text><text fill="#000000" font-family="sans-serif" font-size="11" font-weight="bold" lengthAdjust="spacing" textLength="195.0029" x="89.4429" y="491.6479">[first update after registration]</text><polygon fill="#181818" points="82.6006,513.7031,72.6006,517.7031,82.6006,521.7031,78.6006,517.7031" style="stroke:#181818;stroke-width:1;"/><line style="stroke:#181818;stroke-width:1;" x1="76.6006" x2="617.1367" y1="517.7031" y2="517.7031"/><text fill="#000080" font-family="sans-serif" font-size="13" font-weight="bold" lengthAdjust="spacing" textLength="29.9736" x="88.6006" y="512.6372">[06]</text><text fill="#000000" font-family="sans-serif" font-size="13" lengthAdjust="spacing" textLength="146.6816" x="122.5742" y="512.6372">cb(VehicleTimeStatus)</text><path d="M71,560.7031 L71,600.7031 L330,600.7031 L330,570.7031 L320,560.7031 L71,560.7031 " fill="#FEFFDD" style="stroke:#181818;stroke-width:0.5;"/><path d="M320,560.7031 L320,570.7031 L330,570.7031 L320,560.7031 " fill="#FEFFDD" style="stroke:#181818;stroke-width:0.5;"/><text fill="#000000" font-family="sans-serif" font-size="13" lengthAdjust="spacing" textLength="238.9956" x="77" y="577.77">Unconditional &#8212; delivers the current</text><text fill="#000000" font-family="sans-serif" font-size="13" lengthAdjust="spacing" textLength="211.123" x="77" y="592.9028">flag state to the new subscriber.</text><line style="stroke:#000000;stroke-width:1;stroke-dasharray:2.0,2.0;" x1="10" x2="714.9116" y1="606.9688" y2="606.9688"/><text fill="#000000" font-family="sans-serif" font-size="11" font-weight="bold" lengthAdjust="spacing" textLength="234.5503" x="15" y="617.1792">[flag bits changed since last delivery]</text><polygon fill="#181818" points="82.6006,637.9063,72.6006,641.9063,82.6006,645.9063,78.6006,641.9063" style="stroke:#181818;stroke-width:1;"/><line style="stroke:#181818;stroke-width:1;" x1="76.6006" x2="617.1367" y1="641.9063" y2="641.9063"/><text fill="#000080" font-family="sans-serif" font-size="13" font-weight="bold" lengthAdjust="spacing" textLength="29.9736" x="88.6006" y="636.8403">[07]</text><text fill="#000000" font-family="sans-serif" font-size="13" lengthAdjust="spacing" textLength="146.6816" x="122.5742" y="636.8403">cb(VehicleTimeStatus)</text><path d="M71,684.9063 L71,724.9063 L252,724.9063 L252,694.9063 L242,684.9063 L71,684.9063 " fill="#FEFFDD" style="stroke:#181818;stroke-width:0.5;"/><path d="M242,684.9063 L242,694.9063 L252,694.9063 L242,684.9063 " fill="#FEFFDD" style="stroke:#181818;stroke-width:0.5;"/><text fill="#000000" font-family="sans-serif" font-size="13" lengthAdjust="spacing" textLength="147.2021" x="77" y="701.9731">Only when flags differ;</text><text fill="#000000" font-family="sans-serif" font-size="13" lengthAdjust="spacing" textLength="160.7861" x="77" y="717.106">rate_deviation excluded.</text><path d="M633,742.1719 L633,767.1719 L1021,767.1719 L1021,752.1719 L1011,742.1719 L633,742.1719 " fill="#FEFFDD" style="stroke:#181818;stroke-width:0.5;"/><path d="M1011,742.1719 L1011,752.1719 L1021,752.1719 L1011,742.1719 " fill="#FEFFDD" style="stroke:#181818;stroke-width:0.5;"/><text fill="#000000" font-family="sans-serif" font-size="13" lengthAdjust="spacing" textLength="367.6372" x="639" y="759.2388">Callback on backend thread &#8212;\ncb must be thread-safe.</text><rect fill="#EEEEEE" height="3" style="stroke:#EEEEEE;stroke-width:1;" width="1026.6372" x="0" y="792.8711"/><line style="stroke:#000000;stroke-width:1;" x1="0" x2="1026.6372" y1="792.8711" y2="792.8711"/><line style="stroke:#000000;stroke-width:1;" x1="0" x2="1026.6372" y1="795.8711" y2="795.8711"/><rect fill="#EEEEEE" height="23.1328" style="stroke:#000000;stroke-width:2;" width="286.1875" x="370.2249" y="782.3047"/><text fill="#000000" font-family="sans-serif" font-size="13" font-weight="bold" lengthAdjust="spacing" textLength="267.6616" x="376.2249" y="798.3716">Unsubscribe when no longer needed</text><polygon fill="#181818" points="340.7871,832.5703,350.7871,836.5703,340.7871,840.5703,344.7871,836.5703" style="stroke:#181818;stroke-width:1;"/><line style="stroke:#181818;stroke-width:1;" x1="66.6006" x2="346.7871" y1="836.5703" y2="836.5703"/><text fill="#000080" font-family="sans-serif" font-size="13" font-weight="bold" lengthAdjust="spacing" textLength="29.9736" x="73.6006" y="831.5044">[08]</text><text fill="#000000" font-family="sans-serif" font-size="13" lengthAdjust="spacing" textLength="233.2129" x="107.5742" y="831.5044">Unsubscribe&lt;VehicleTimeStatus&gt;()</text><polygon fill="#181818" points="606.1367,861.7031,616.1367,865.7031,606.1367,869.7031,610.1367,865.7031" style="stroke:#181818;stroke-width:1;"/><line style="stroke:#181818;stroke-width:1;" x1="362.7871" x2="612.1367" y1="865.7031" y2="865.7031"/><text fill="#000080" font-family="sans-serif" font-size="13" font-weight="bold" lengthAdjust="spacing" textLength="29.9736" x="369.7871" y="860.6372">[09]</text><text fill="#000000" font-family="sans-serif" font-size="13" lengthAdjust="spacing" textLength="202.376" x="403.7607" y="860.6372">UnsetStatusChangedCallback()</text><polygon fill="#181818" points="373.7871,890.8359,363.7871,894.8359,373.7871,898.8359,369.7871,894.8359" style="stroke:#181818;stroke-width:1;"/><line style="stroke:#181818;stroke-width:1;stroke-dasharray:2.0,2.0;" x1="367.7871" x2="622.1367" y1="894.8359" y2="894.8359"/><text fill="#000080" font-family="sans-serif" font-size="13" font-weight="bold" lengthAdjust="spacing" textLength="29.9736" x="379.7871" y="889.77">[10]</text><text fill="#000000" font-family="sans-serif" font-size="13" lengthAdjust="spacing" textLength="4.1323" x="413.7607" y="889.77">&#160;</text><polygon fill="#181818" points="77.6006,919.9688,67.6006,923.9688,77.6006,927.9688,73.6006,923.9688" style="stroke:#181818;stroke-width:1;"/><line style="stroke:#181818;stroke-width:1;stroke-dasharray:2.0,2.0;" x1="71.6006" x2="356.7871" y1="923.9688" y2="923.9688"/><text fill="#000080" font-family="sans-serif" font-size="13" font-weight="bold" lengthAdjust="spacing" textLength="29.9736" x="83.6006" y="918.9028">[11]</text><text fill="#000000" font-family="sans-serif" font-size="13" lengthAdjust="spacing" textLength="4.1323" x="117.5742" y="918.9028">&#160;</text><rect fill="transparent" height="95.4844" id="_legend" rx="7.5" ry="7.5" style="stroke:#000000;stroke-width:1;" width="314.8008" x="12" y="54.2969"/><text fill="#000000" font-family="sans-serif" font-size="14" font-weight="bold" lengthAdjust="spacing" textLength="41.2139" x="21.874" y="74.292">Color</text><text fill="#000000" font-family="sans-serif" font-size="14" font-weight="bold" lengthAdjust="spacing" textLength="90.5488" x="141.0723" y="74.292">Description</text><rect fill="#FFA07A" height="16.2969" style="stroke:transparent;stroke-width:1;" width="119.1982" x="17" y="77.5938"/><text fill="#000000" font-family="sans-serif" font-size="14" lengthAdjust="spacing" textLength="35.6016" x="17" y="90.5889">&#160;&#160;&#160;&#160;&#160;&#160;&#160;&#160;</text><text fill="#000000" font-family="sans-serif" font-size="14" lengthAdjust="spacing" textLength="116.4365" x="140.6484" y="90.5889">Application code</text><rect fill="#90EE90" height="16.2969" style="stroke:transparent;stroke-width:1;" width="119.1982" x="17" y="93.8906"/><text fill="#000000" font-family="sans-serif" font-size="14" lengthAdjust="spacing" textLength="40.0518" x="17" y="106.8857">&#160;&#160;&#160;&#160;&#160;&#160;&#160;&#160;&#160;</text><text fill="#000000" font-family="sans-serif" font-size="14" lengthAdjust="spacing" textLength="158.833" x="140.6484" y="106.8857">score::time framework</text><rect fill="#F08080" height="16.2969" style="stroke:transparent;stroke-width:1;" width="119.1982" x="17" y="110.1875"/><text fill="#000000" font-family="sans-serif" font-size="14" lengthAdjust="spacing" textLength="40.0518" x="17" y="123.1826">&#160;&#160;&#160;&#160;&#160;&#160;&#160;&#160;&#160;</text><text fill="#000000" font-family="sans-serif" font-size="14" lengthAdjust="spacing" textLength="149.9395" x="140.6484" y="123.1826">VehicleTime backend</text><rect fill="#FFDEAD" height="16.2969" style="stroke:transparent;stroke-width:1;" width="119.1982" x="17" y="126.4844"/><text fill="#000000" font-family="sans-serif" font-size="14" lengthAdjust="spacing" textLength="35.6016" x="17" y="139.4795">&#160;&#160;&#160;&#160;&#160;&#160;&#160;&#160;</text><text fill="#000000" font-family="sans-serif" font-size="14" lengthAdjust="spacing" textLength="141.1006" x="140.6484" y="139.4795">score::TimeDaemon</text><line style="stroke:#000000;stroke-width:1;" x1="17" x2="321.8008" y1="61.2969" y2="61.2969"/><line style="stroke:#000000;stroke-width:1;" x1="17" x2="321.8008" y1="77.5938" y2="77.5938"/><line style="stroke:#000000;stroke-width:1;" x1="17" x2="321.8008" y1="93.8906" y2="93.8906"/><line style="stroke:#000000;stroke-width:1;" x1="17" x2="321.8008" y1="110.1875" y2="110.1875"/><line style="stroke:#000000;stroke-width:1;" x1="17" x2="321.8008" y1="126.4844" y2="126.4844"/><line style="stroke:#000000;stroke-width:1;" x1="17" x2="321.8008" y1="142.7813" y2="142.7813"/><line style="stroke:#000000;stroke-width:1;" x1="17" x2="17" y1="61.2969" y2="142.7813"/><line style="stroke:#000000;stroke-width:1;" x1="136.1982" x2="136.1982" y1="61.2969" y2="142.7813"/><line style="stroke:#000000;stroke-width:1;" x1="321.8008" x2="321.8008" y1="61.2969" y2="142.7813"/><!--SRC=[jLJ1RXCn4BtxAqRffJsqoW4X5998a4fS45IaXGCWvFMEioQElV9wqmRrm4VmXNm9OpkxSPeKzTAzjB7dlPdtPiPUUOtm-Ve5_Ftz1pvZfOJ6QxN24SmtHbJE6lMBUsKDp3ttRGFpjcY4KtKuOwnPAbDpnrTGSB5SEDkQScQrTN1RAO-iKYM2jDONzexnrblJhWfqC1XBQpo843enVBsPZelfr-7m-u0nZGiq9NXRWqRf6T1tFu54k__HyINsvJouIy3noNkrgFoSwvKrq_uItjIrLY994vQgV0JupY7kS0HiX7Ku6dao2IGfnrlhbaU0C-kupe6Pkz6j8F91nWzypN_QBy6wwK760BpakCg4tZCYINunHXR389CrW1DyAOTIHdRgabT2rPnipwE-6M5NjJLe_01u0xok8RSiP83GlSIVgIV-m2w7X_nRgJDjnJAoYl0VP8x-7_CssHEXdLMPgyThslaJAfForR7AyY0YzyIRcRuZdapW4ovKusbO1TSwL07M20JkGHdbOJ9XB9XrFjsg6tMxKU0uwtNQc-cfACuO5rwjkSU4O0b719r6ea2V0BEAcmMMistkVVWsddMuywu8Lk91q3OBXL2vUK121AbNrrVGfFrkwpBSEHIerbZ2QL1FVsdgkco-SiZBi-W06RXNly7RZebu-679Z6iFKhd6Twcu32QxwBQBCndRrckBTHErA4uFR3sBeNsI830S61iaX7a1A_lJyDtGk9jIXInSnqUlH4r27Sr2HPQqpj4czE5IyqNKW_GUnOWeiEkpkuYHeSoGClx830w9KJUOQ0hbQH5IMw5HOPOq9nks1MoUKVL7epVq8gE9bL1hb9JeNlVtP3l-A76jqdk8TqAt9PPFK1Swkf-tQtI8dkqsvy7q1ElfwIbWrP851MwFpnikyOBrAO_DSnZO6zFt8Eao5hGbPnqr2AdqO-kPWOujw5FMaoWUMz1dMiz_]--></g></svg>