<svg xmlns="http://www.w3.org/2000/svg" xmlns:xlink="http://www.w3.org/1999/xlink" contentStyleType="text/css" data-diagram-type="DESCRIPTION" height="893px" preserveAspectRatio="none" style="width:1902px;height:893px;background:#FFFFFF;" version="1.1" viewBox="0 0 1902 893" width="1902px" zoomAndPan="magnify"><title>score::time &#8212; Architecture Layers</title><defs/><g><text fill="#000000" font-family="sans-serif" font-size="14" font-weight="bold" lengthAdjust="spacing" textLength="268.6182" x="809.6909" y="22.9951">score::time &#8212; Architecture Layers</text><rect fill="transparent" height="79.1875" id="_legend" rx="7.5" ry="7.5" style="stroke:#000000;stroke-width:1;" width="341.3926" x="12" y="49.2969"/><rect fill="#ADD8E6" height="16.2969" style="stroke:transparent;stroke-width:1;" width="31.1514" x="17" y="56.2969"/><text fill="#000000" font-family="sans-serif" font-size="14" lengthAdjust="spacing" textLength="13.3506" x="17" y="69.292">&#160;&#160;&#160;</text><text fill="#000000" font-family="sans-serif" font-size="14" lengthAdjust="spacing" textLength="262.3701" x="52.6016" y="69.292">Public headers (clients include these)</text><rect fill="#90EE90" height="16.2969" style="stroke:transparent;stroke-width:1;" width="31.1514" x="17" y="72.5938"/><text fill="#000000" font-family="sans-serif" font-size="14" lengthAdjust="spacing" textLength="8.9004" x="17" y="85.5889">&#160;&#160;</text><text fill="#000000" font-family="sans-serif" font-size="14" lengthAdjust="spacing" textLength="237.9385" x="52.6016" y="85.5889">Framework layer (clock/ package)</text><rect fill="#F5DEB3" height="16.2969" style="stroke:transparent;stroke-width:1;" width="31.1514" x="17" y="88.8906"/><text fill="#000000" font-family="sans-serif" font-size="14" lengthAdjust="spacing" textLength="31.1514" x="17" y="101.8857">&#160;&#160;&#160;&#160;&#160;&#160;&#160;</text><text fill="#000000" font-family="sans-serif" font-size="14" lengthAdjust="spacing" textLength="190.6748" x="52.6016" y="101.8857">Time-domain tag packages</text><rect fill="#F08080" height="16.2969" style="stroke:transparent;stroke-width:1;" width="31.1514" x="17" y="105.1875"/><text fill="#000000" font-family="sans-serif" font-size="14" lengthAdjust="spacing" textLength="8.9004" x="17" y="118.1826">&#160;&#160;</text><text fill="#000000" font-family="sans-serif" font-size="14" lengthAdjust="spacing" textLength="266.1777" x="52.6016" y="118.1826">Internal details (clients never include)</text><line style="stroke:#000000;stroke-width:1;" x1="17" x2="348.3926" y1="56.2969" y2="56.2969"/><line style="stroke:#000000;stroke-width:1;" x1="17" x2="348.3926" y1="72.5938" y2="72.5938"/><line style="stroke:#000000;stroke-width:1;" x1="17" x2="348.3926" y1="88.8906" y2="88.8906"/><line style="stroke:#000000;stroke-width:1;" x1="17" x2="348.3926" y1="105.1875" y2="105.1875"/><line style="stroke:#000000;stroke-width:1;" x1="17" x2="348.3926" y1="121.4844" y2="121.4844"/><line style="stroke:#000000;stroke-width:1;" x1="17" x2="17" y1="56.2969" y2="121.4844"/><line style="stroke:#000000;stroke-width:1;" x1="48.1514" x2="48.1514" y1="56.2969" y2="121.4844"/><line style="stroke:#000000;stroke-width:1;" x1="348.3926" x2="348.3926" y1="56.2969" y2="121.4844"/><!--cluster Client Code--><g id="cluster_Client Code"><rect fill="#FFFFE0" height="97" rx="2.5" ry="2.5" style="stroke:#181818;stroke-width:1;" width="289" x="1101" y="148.4844"/><text fill="#000000" font-family="sans-serif" font-size="14" font-weight="bold" lengthAdjust="spacing" textLength="90.3096" x="1200.3452" y="163.4795">Client Code</text></g><!--cluster Public Interface ? clock/--><g id="cluster_Public Interface &#8212; clock/"><rect fill="#90EE90" height="203" rx="2.5" ry="2.5" style="stroke:#181818;stroke-width:1;" width="778" x="430" y="269.4844"/><text fill="#000000" font-family="sans-serif" font-size="14" font-weight="bold" lengthAdjust="spacing" textLength="193.8057" x="722.0972" y="284.4795">Public Interface &#8212; clock/</text></g><!--cluster Test utilities ? clock/ (testonly)--><g id="cluster_Test utilities &#8212; clock/ (testonly)"><rect fill="#FFFFE0" height="97" rx="2.5" ry="2.5" style="stroke:#181818;stroke-width:1;" width="664" x="1232" y="269.4844"/><text fill="#000000" font-family="sans-serif" font-size="14" font-weight="bold" lengthAdjust="spacing" textLength="250.8994" x="1438.5503" y="284.4795">Test utilities &#8212; clock/ (testonly)</text></g><!--cluster Time-Domain Tags--><g id="cluster_Time-Domain Tags"><rect fill="#F5DEB3" height="391" rx="2.5" ry="2.5" style="stroke:#181818;stroke-width:1;" width="1249" x="7" y="496.4844"/><text fill="#000000" font-family="sans-serif" font-size="14" font-weight="bold" lengthAdjust="spacing" textLength="146.5078" x="558.2461" y="511.4795">Time-Domain Tags</text></g><!--cluster vehicle_time/--><g id="cluster_vehicle_time/"><rect fill="transparent" height="203" rx="2.5" ry="2.5" style="stroke:#181818;stroke-width:1;" width="407" x="825" y="539.4844"/><text fill="#000000" font-family="sans-serif" font-size="14" font-weight="bold" lengthAdjust="spacing" textLength="103.667" x="976.6665" y="554.4795">vehicle_time/</text></g><!--cluster hpls_time/--><g id="cluster_hpls_time/"><rect fill="transparent" height="97" rx="2.5" ry="2.5" style="stroke:#181818;stroke-width:1;" width="162" x="639" y="539.4844"/><text fill="#000000" font-family="sans-serif" font-size="14" font-weight="bold" lengthAdjust="spacing" textLength="80.8076" x="679.5962" y="554.4795">hpls_time/</text></g><!--cluster steady_time/--><g id="cluster_steady_time/"><rect fill="transparent" height="97" rx="2.5" ry="2.5" style="stroke:#181818;stroke-width:1;" width="278" x="337" y="539.4844"/><text fill="#000000" font-family="sans-serif" font-size="14" font-weight="bold" lengthAdjust="spacing" textLength="100.8027" x="425.5986" y="554.4795">steady_time/</text></g><!--cluster system_time/--><g id="cluster_system_time/"><rect fill="transparent" height="97" rx="2.5" ry="2.5" style="stroke:#181818;stroke-width:1;" width="282" x="31" y="539.4844"/><text fill="#000000" font-family="sans-serif" font-size="14" font-weight="bold" lengthAdjust="spacing" textLength="104.2549" x="119.8726" y="554.4795">system_time/</text></g><!--cluster ptp/--><g id="cluster_ptp/"><rect fill="transparent" height="97" rx="2.5" ry="2.5" style="stroke:#181818;stroke-width:1;" width="565" x="667" y="766.4844"/><text fill="#000000" font-family="sans-serif" font-size="14" font-weight="bold" lengthAdjust="spacing" textLength="31.8486" x="933.5757" y="781.4795">ptp/</text></g><!--cluster Internal ? details/ (never included by clients)--><g id="cluster_Internal &#8212; details/ (never included by clients)"><rect fill="#F08080" height="203" rx="2.5" ry="2.5" style="stroke:#181818;stroke-width:1;" width="423" x="1280" y="539.4844"/><text fill="#000000" font-family="sans-serif" font-size="14" font-weight="bold" lengthAdjust="spacing" textLength="361.1084" x="1310.9458" y="554.4795">Internal &#8212; details/ (never included by clients)</text></g><!--entity app--><g id="elem_app"><rect fill="#F1F1F1" height="46.2969" rx="2.5" ry="2.5" style="stroke:#181818;stroke-width:0.5;" width="118.2236" x="1117" y="183.4844"/><rect fill="#F1F1F1" height="10" style="stroke:#181818;stroke-width:0.5;" width="15" x="1215.2236" y="188.4844"/><rect fill="#F1F1F1" height="2" style="stroke:#181818;stroke-width:0.5;" width="4" x="1213.2236" y="190.4844"/><rect fill="#F1F1F1" height="2" style="stroke:#181818;stroke-width:0.5;" width="4" x="1213.2236" y="194.4844"/><text fill="#000000" font-family="sans-serif" font-size="14" lengthAdjust="spacing" textLength="78.2236" x="1132" y="216.4795">Application</text></g><!--entity test--><g id="elem_test"><rect fill="#F1F1F1" height="46.2969" rx="2.5" ry="2.5" style="stroke:#181818;stroke-width:0.5;" width="102.8975" x="1270.5" y="183.4844"/><rect fill="#F1F1F1" height="10" style="stroke:#181818;stroke-width:0.5;" width="15" x="1353.3975" y="188.4844"/><rect fill="#F1F1F1" height="2" style="stroke:#181818;stroke-width:0.5;" width="4" x="1351.3975" y="190.4844"/><rect fill="#F1F1F1" height="2" style="stroke:#181818;stroke-width:0.5;" width="4" x="1351.3975" y="194.4844"/><text fill="#000000" font-family="sans-serif" font-size="14" lengthAdjust="spacing" textLength="62.8975" x="1285.5" y="216.4795">Unit Test</text></g><!--entity clock--><g id="elem_clock"><rect fill="#F1F1F1" height="46.2969" rx="2.5" ry="2.5" style="stroke:#181818;stroke-width:0.5;" width="127.5137" x="759" y="410.4844"/><rect fill="#F1F1F1" height="10" style="stroke:#181818;stroke-width:0.5;" width="15" x="866.5137" y="415.4844"/><rect fill="#F1F1F1" height="2" style="stroke:#181818;stroke-width:0.5;" width="4" x="864.5137" y="417.4844"/><rect fill="#F1F1F1" height="2" style="stroke:#181818;stroke-width:0.5;" width="4" x="864.5137" y="421.4844"/><text fill="#000000" font-family="sans-serif" font-size="14" lengthAdjust="spacing" textLength="87.5137" x="774" y="443.4795">Clock&lt;Tag&gt;</text></g><!--entity vclock--><g id="elem_vclock"><rect fill="#F1F1F1" height="46.2969" rx="2.5" ry="2.5" style="stroke:#181818;stroke-width:0.5;" width="165.8701" x="1026" y="304.4844"/><rect fill="#F1F1F1" height="10" style="stroke:#181818;stroke-width:0.5;" width="15" x="1171.8701" y="309.4844"/><rect fill="#F1F1F1" height="2" style="stroke:#181818;stroke-width:0.5;" width="4" x="1169.8701" y="311.4844"/><rect fill="#F1F1F1" height="2" style="stroke:#181818;stroke-width:0.5;" width="4" x="1169.8701" y="315.4844"/><text fill="#000000" font-family="sans-serif" font-size="14" lengthAdjust="spacing" textLength="125.8701" x="1041" y="337.4795">VehicleClock alias</text></g><!--entity hclock--><g id="elem_hclock"><rect fill="#F1F1F1" height="46.2969" rx="2.5" ry="2.5" style="stroke:#181818;stroke-width:0.5;" width="145.3145" x="845.5" y="304.4844"/><rect fill="#F1F1F1" height="10" style="stroke:#181818;stroke-width:0.5;" width="15" x="970.8145" y="309.4844"/><rect fill="#F1F1F1" height="2" style="stroke:#181818;stroke-width:0.5;" width="4" x="968.8145" y="311.4844"/><rect fill="#F1F1F1" height="2" style="stroke:#181818;stroke-width:0.5;" width="4" x="968.8145" y="315.4844"/><text fill="#000000" font-family="sans-serif" font-size="14" lengthAdjust="spacing" textLength="105.3145" x="860.5" y="337.4795">HplsClock alias</text></g><!--entity sclock--><g id="elem_sclock"><rect fill="#F1F1F1" height="46.2969" rx="2.5" ry="2.5" style="stroke:#181818;stroke-width:0.5;" width="163.457" x="647.5" y="304.4844"/><rect fill="#F1F1F1" height="10" style="stroke:#181818;stroke-width:0.5;" width="15" x="790.957" y="309.4844"/><rect fill="#F1F1F1" height="2" style="stroke:#181818;stroke-width:0.5;" width="4" x="788.957" y="311.4844"/><rect fill="#F1F1F1" height="2" style="stroke:#181818;stroke-width:0.5;" width="4" x="788.957" y="315.4844"/><text fill="#000000" font-family="sans-serif" font-size="14" lengthAdjust="spacing" textLength="123.457" x="662.5" y="337.4795">SteadyClock alias</text></g><!--entity sysclock--><g id="elem_sysclock"><rect fill="#F1F1F1" height="46.2969" rx="2.5" ry="2.5" style="stroke:#181818;stroke-width:0.5;" width="166.9229" x="445.5" y="304.4844"/><rect fill="#F1F1F1" height="10" style="stroke:#181818;stroke-width:0.5;" width="15" x="592.4229" y="309.4844"/><rect fill="#F1F1F1" height="2" style="stroke:#181818;stroke-width:0.5;" width="4" x="590.4229" y="311.4844"/><rect fill="#F1F1F1" height="2" style="stroke:#181818;stroke-width:0.5;" width="4" x="590.4229" y="315.4844"/><text fill="#000000" font-family="sans-serif" font-size="14" lengthAdjust="spacing" textLength="126.9229" x="460.5" y="337.4795">SystemClock alias</text></g><!--entity guard--><g id="elem_guard"><rect fill="#F1F1F1" height="46.2969" rx="2.5" ry="2.5" style="stroke:#181818;stroke-width:0.5;" width="312.624" x="1566.5" y="304.4844"/><rect fill="#F1F1F1" height="10" style="stroke:#181818;stroke-width:0.5;" width="15" x="1859.124" y="309.4844"/><rect fill="#F1F1F1" height="2" style="stroke:#181818;stroke-width:0.5;" width="4" x="1857.124" y="311.4844"/><rect fill="#F1F1F1" height="2" style="stroke:#181818;stroke-width:0.5;" width="4" x="1857.124" y="315.4844"/><text fill="#000000" font-family="sans-serif" font-size="14" lengthAdjust="spacing" textLength="272.624" x="1581.5" y="337.4795">test_utils::ScopedClockOverride&lt;Tag&gt;</text></g><!--entity factory--><g id="elem_factory"><rect fill="#F1F1F1" height="46.2969" rx="2.5" ry="2.5" style="stroke:#181818;stroke-width:0.5;" width="282.6416" x="1248.5" y="304.4844"/><rect fill="#F1F1F1" height="10" style="stroke:#181818;stroke-width:0.5;" width="15" x="1511.1416" y="309.4844"/><rect fill="#F1F1F1" height="2" style="stroke:#181818;stroke-width:0.5;" width="4" x="1509.1416" y="311.4844"/><rect fill="#F1F1F1" height="2" style="stroke:#181818;stroke-width:0.5;" width="4" x="1509.1416" y="315.4844"/><text fill="#000000" font-family="sans-serif" font-size="14" lengthAdjust="spacing" textLength="242.6416" x="1263.5" y="337.4795">test_utils::ClockTestFactory&lt;Tag&gt;</text></g><!--entity vtag--><g id="elem_vtag"><rect fill="#F1F1F1" height="46.2969" rx="2.5" ry="2.5" style="stroke:#181818;stroke-width:0.5;" width="153.251" x="849.5" y="574.4844"/><rect fill="#F1F1F1" height="10" style="stroke:#181818;stroke-width:0.5;" width="15" x="982.751" y="579.4844"/><rect fill="#F1F1F1" height="2" style="stroke:#181818;stroke-width:0.5;" width="4" x="980.751" y="581.4844"/><rect fill="#F1F1F1" height="2" style="stroke:#181818;stroke-width:0.5;" width="4" x="980.751" y="585.4844"/><text fill="#000000" font-family="sans-serif" font-size="14" lengthAdjust="spacing" textLength="113.251" x="864.5" y="607.4795">VehicleTime tag</text></g><!--entity vstatus--><g id="elem_vstatus"><rect fill="#F1F1F1" height="46.2969" rx="2.5" ry="2.5" style="stroke:#181818;stroke-width:0.5;" width="170.457" x="841" y="680.4844"/><rect fill="#F1F1F1" height="10" style="stroke:#181818;stroke-width:0.5;" width="15" x="991.457" y="685.4844"/><rect fill="#F1F1F1" height="2" style="stroke:#181818;stroke-width:0.5;" width="4" x="989.457" y="687.4844"/><rect fill="#F1F1F1" height="2" style="stroke:#181818;stroke-width:0.5;" width="4" x="989.457" y="691.4844"/><text fill="#000000" font-family="sans-serif" font-size="14" lengthAdjust="spacing" textLength="130.457" x="856" y="713.4795">VehicleTimeStatus</text></g><!--entity vcb--><g id="elem_vcb"><rect fill="#F1F1F1" height="46.2969" rx="2.5" ry="2.5" style="stroke:#181818;stroke-width:0.5;" width="170.2314" x="1046" y="680.4844"/><rect fill="#F1F1F1" height="10" style="stroke:#181818;stroke-width:0.5;" width="15" x="1196.2314" y="685.4844"/><rect fill="#F1F1F1" height="2" style="stroke:#181818;stroke-width:0.5;" width="4" x="1194.2314" y="687.4844"/><rect fill="#F1F1F1" height="2" style="stroke:#181818;stroke-width:0.5;" width="4" x="1194.2314" y="691.4844"/><text fill="#000000" font-family="sans-serif" font-size="14" lengthAdjust="spacing" textLength="130.2314" x="1061" y="713.4795">PTP callback types</text></g><!--entity htag--><g id="elem_htag"><rect fill="#F1F1F1" height="46.2969" rx="2.5" ry="2.5" style="stroke:#181818;stroke-width:0.5;" width="129.5645" x="655" y="574.4844"/><rect fill="#F1F1F1" height="10" style="stroke:#181818;stroke-width:0.5;" width="15" x="764.5645" y="579.4844"/><rect fill="#F1F1F1" height="2" style="stroke:#181818;stroke-width:0.5;" width="4" x="762.5645" y="581.4844"/><rect fill="#F1F1F1" height="2" style="stroke:#181818;stroke-width:0.5;" width="4" x="762.5645" y="585.4844"/><text fill="#000000" font-family="sans-serif" font-size="14" lengthAdjust="spacing" textLength="89.5645" x="670" y="607.4795">HirsTime tag</text></g><!--entity stag--><g id="elem_stag"><rect fill="#F1F1F1" height="46.2969" rx="2.5" ry="2.5" style="stroke:#181818;stroke-width:0.5;" width="246.377" x="353" y="574.4844"/><rect fill="#F1F1F1" height="10" style="stroke:#181818;stroke-width:0.5;" width="15" x="579.377" y="579.4844"/><rect fill="#F1F1F1" height="2" style="stroke:#181818;stroke-width:0.5;" width="4" x="577.377" y="581.4844"/><rect fill="#F1F1F1" height="2" style="stroke:#181818;stroke-width:0.5;" width="4" x="577.377" y="585.4844"/><text fill="#000000" font-family="sans-serif" font-size="14" lengthAdjust="spacing" textLength="206.377" x="368" y="607.4795">std::chrono::steady_clock tag</text></g><!--entity systag--><g id="elem_systag"><rect fill="#F1F1F1" height="46.2969" rx="2.5" ry="2.5" style="stroke:#181818;stroke-width:0.5;" width="249.8428" x="47" y="574.4844"/><rect fill="#F1F1F1" height="10" style="stroke:#181818;stroke-width:0.5;" width="15" x="276.8428" y="579.4844"/><rect fill="#F1F1F1" height="2" style="stroke:#181818;stroke-width:0.5;" width="4" x="274.8428" y="581.4844"/><rect fill="#F1F1F1" height="2" style="stroke:#181818;stroke-width:0.5;" width="4" x="274.8428" y="585.4844"/><text fill="#000000" font-family="sans-serif" font-size="14" lengthAdjust="spacing" textLength="209.8428" x="62" y="607.4795">std::chrono::system_clock tag</text></g><!--entity tss--><g id="elem_tss"><rect fill="#F1F1F1" height="46.2969" rx="2.5" ry="2.5" style="stroke:#181818;stroke-width:0.5;" width="229.5947" x="986" y="801.4844"/><rect fill="#F1F1F1" height="10" style="stroke:#181818;stroke-width:0.5;" width="15" x="1195.5947" y="806.4844"/><rect fill="#F1F1F1" height="2" style="stroke:#181818;stroke-width:0.5;" width="4" x="1193.5947" y="808.4844"/><rect fill="#F1F1F1" height="2" style="stroke:#181818;stroke-width:0.5;" width="4" x="1193.5947" y="812.4844"/><text fill="#000000" font-family="sans-serif" font-size="14" lengthAdjust="spacing" textLength="189.5947" x="1001" y="834.4795">TimeSlaveSyncData&lt;Tag&gt;</text></g><!--entity pdm--><g id="elem_pdm"><rect fill="#F1F1F1" height="46.2969" rx="2.5" ry="2.5" style="stroke:#181818;stroke-width:0.5;" width="267.917" x="683" y="801.4844"/><rect fill="#F1F1F1" height="10" style="stroke:#181818;stroke-width:0.5;" width="15" x="930.917" y="806.4844"/><rect fill="#F1F1F1" height="2" style="stroke:#181818;stroke-width:0.5;" width="4" x="928.917" y="808.4844"/><rect fill="#F1F1F1" height="2" style="stroke:#181818;stroke-width:0.5;" width="4" x="928.917" y="812.4844"/><text fill="#000000" font-family="sans-serif" font-size="14" lengthAdjust="spacing" textLength="227.917" x="698" y="834.4795">PDelayMeasurementData&lt;Tag&gt;</text></g><!--entity viface--><g id="elem_viface"><rect fill="#F1F1F1" height="46.2969" rx="2.5" ry="2.5" style="stroke:#181818;stroke-width:0.5;" width="189.5498" x="1497" y="574.4844"/><rect fill="#F1F1F1" height="10" style="stroke:#181818;stroke-width:0.5;" width="15" x="1666.5498" y="579.4844"/><rect fill="#F1F1F1" height="2" style="stroke:#181818;stroke-width:0.5;" width="4" x="1664.5498" y="581.4844"/><rect fill="#F1F1F1" height="2" style="stroke:#181818;stroke-width:0.5;" width="4" x="1664.5498" y="585.4844"/><text fill="#000000" font-family="sans-serif" font-size="14" lengthAdjust="spacing" textLength="149.5498" x="1512" y="607.4795">VehicleClockBackend</text></g><!--entity hiface--><g id="elem_hiface"><rect fill="#F1F1F1" height="46.2969" rx="2.5" ry="2.5" style="stroke:#181818;stroke-width:0.5;" width="165.8633" x="1296" y="574.4844"/><rect fill="#F1F1F1" height="10" style="stroke:#181818;stroke-width:0.5;" width="15" x="1441.8633" y="579.4844"/><rect fill="#F1F1F1" height="2" style="stroke:#181818;stroke-width:0.5;" width="4" x="1439.8633" y="581.4844"/><rect fill="#F1F1F1" height="2" style="stroke:#181818;stroke-width:0.5;" width="4" x="1439.8633" y="585.4844"/><text fill="#000000" font-family="sans-serif" font-size="14" lengthAdjust="spacing" textLength="125.8633" x="1311" y="607.4795">HirsClockBackend</text></g><!--entity prod--><g id="elem_prod"><rect fill="#F1F1F1" height="46.2969" rx="2.5" ry="2.5" style="stroke:#181818;stroke-width:0.5;" width="179.1318" x="1322.5" y="680.4844"/><rect fill="#F1F1F1" height="10" style="stroke:#181818;stroke-width:0.5;" width="15" x="1481.6318" y="685.4844"/><rect fill="#F1F1F1" height="2" style="stroke:#181818;stroke-width:0.5;" width="4" x="1479.6318" y="687.4844"/><rect fill="#F1F1F1" height="2" style="stroke:#181818;stroke-width:0.5;" width="4" x="1479.6318" y="691.4844"/><text fill="#000000" font-family="sans-serif" font-size="14" lengthAdjust="spacing" textLength="139.1318" x="1337.5" y="713.4795">Production backend</text></g><!--entity stub--><g id="elem_stub"><rect fill="#F1F1F1" height="46.2969" rx="2.5" ry="2.5" style="stroke:#181818;stroke-width:0.5;" width="136.2295" x="1537" y="680.4844"/><rect fill="#F1F1F1" height="10" style="stroke:#181818;stroke-width:0.5;" width="15" x="1653.2295" y="685.4844"/><rect fill="#F1F1F1" height="2" style="stroke:#181818;stroke-width:0.5;" width="4" x="1651.2295" y="687.4844"/><rect fill="#F1F1F1" height="2" style="stroke:#181818;stroke-width:0.5;" width="4" x="1651.2295" y="691.4844"/><text fill="#000000" font-family="sans-serif" font-size="14" lengthAdjust="spacing" textLength="96.2295" x="1552" y="713.4795">Stub backend</text></g><!--link app to vclock--><g id="link_app_vclock"><path d="M1154.5,229.5244 C1154.5,250.9244 1154.5,276.6144 1154.5,298.1144 " fill="transparent" id="app-to-vclock" style="stroke:#181818;stroke-width:1;"/><polygon fill="#181818" points="1154.5,304.1144,1158.5,295.1144,1154.5,299.1144,1150.5,295.1144,1154.5,304.1144" style="stroke:#181818;stroke-width:1;"/><polygon fill="transparent" points="997.5,253.8908,1001.5,257.8908,997.5,261.8908,993.5,257.8908" style="stroke:#B38D22;stroke-width:1;"/><text fill="#000000" font-family="sans-serif" font-size="13" lengthAdjust="spacing" textLength="149.792" x="1004.5" y="262.8913">include vehicle_clock.h</text></g><!--link app to hclock--><g id="link_app_hclock"><path d="M1116.81,206.4844 C1040.64,206.4844 918,206.4844 918,206.4844 C918,206.4844 918,263.3344 918,298.4444 " fill="transparent" id="app-to-hclock" style="stroke:#181818;stroke-width:1;"/><polygon fill="#181818" points="918,304.4444,922,295.4444,918,299.4444,914,295.4444,918,304.4444" style="stroke:#181818;stroke-width:1;"/><polygon fill="transparent" points="830.43,193.5508,834.43,197.5508,830.43,201.5508,826.43,197.5508" style="stroke:#B38D22;stroke-width:1;"/><text fill="#000000" font-family="sans-serif" font-size="13" lengthAdjust="spacing" textLength="130.3682" x="837.43" y="202.5513">include hpls_clock.h</text></g><!--link test to guard--><g id="link_test_guard"><path d="M1373.6,206.4844 C1481.91,206.4844 1723,206.4844 1723,206.4844 C1723,206.4844 1723,263.3344 1723,298.4444 " fill="transparent" id="test-to-guard" style="stroke:#181818;stroke-width:1;"/><polygon fill="#181818" points="1723,304.4444,1727,295.4444,1723,299.4444,1719,295.4444,1723,304.4444" style="stroke:#181818;stroke-width:1;"/><text fill="#000000" font-family="sans-serif" font-size="13" lengthAdjust="spacing" textLength="241.1475" x="1598.28" y="202.5513">ScopedClockOverride&lt;VehicleTime&gt;</text></g><!--link test to factory--><g id="link_test_factory"><path d="M1322,229.5244 C1322,250.9244 1322,276.6144 1322,298.1144 " fill="transparent" id="test-to-factory" style="stroke:#181818;stroke-width:1;"/><polygon fill="#181818" points="1322,304.1144,1326,295.1144,1322,299.1144,1318,295.1144,1322,304.1144" style="stroke:#181818;stroke-width:1;"/><text fill="#000000" font-family="sans-serif" font-size="13" lengthAdjust="spacing" textLength="280.2173" x="1041" y="279.8913">ClockTestFactory&lt;HirsTime&gt;::Make(mock)</text></g><!--link vclock to clock--><g id="link_vclock_clock"><path d="M1036,350.9644 C1036,379.1044 1036,422.4844 1036,422.4844 C1036,422.4844 955.91,422.4844 893.2,422.4844 " fill="transparent" id="vclock-to-clock" style="stroke:#181818;stroke-width:1;"/><polygon fill="#181818" points="887.2,422.4844,896.2,426.4844,892.2,422.4844,896.2,418.4844,887.2,422.4844" style="stroke:#181818;stroke-width:1;"/></g><!--link hclock to clock--><g id="link_hclock_clock"><path d="M866.25,350.4844 C866.25,368.1444 866.25,386.4244 866.25,404.1644 " fill="transparent" id="hclock-to-clock" style="stroke:#181818;stroke-width:1;"/><polygon fill="#181818" points="866.25,410.1644,870.25,401.1644,866.25,405.1644,862.25,401.1644,866.25,410.1644" style="stroke:#181818;stroke-width:1;"/></g><!--link sclock to clock--><g id="link_sclock_clock"><path d="M784.75,350.4844 C784.75,368.1444 784.75,386.4244 784.75,404.1644 " fill="transparent" id="sclock-to-clock" style="stroke:#181818;stroke-width:1;"/><polygon fill="#181818" points="784.75,410.1644,788.75,401.1644,784.75,405.1644,780.75,401.1644,784.75,410.1644" style="stroke:#181818;stroke-width:1;"/></g><!--link sysclock to clock--><g id="link_sysclock_clock"><path d="M605.75,350.9644 C605.75,379.1044 605.75,422.4844 605.75,422.4844 C605.75,422.4844 688.91,422.4844 752.99,422.4844 " fill="transparent" id="sysclock-to-clock" style="stroke:#181818;stroke-width:1;"/><polygon fill="#181818" points="758.99,422.4844,749.99,418.4844,753.99,422.4844,749.99,426.4844,758.99,422.4844" style="stroke:#181818;stroke-width:1;"/></g><!--link clock to vtag--><g id="link_clock_vtag"><path d="M868.25,456.6344 C868.25,487.8944 868.25,537.2544 868.25,568.4544 " fill="transparent" id="clock-to-vtag" style="stroke:#181818;stroke-width:1;"/><polygon fill="#181818" points="868.25,574.4544,872.25,565.4544,868.25,569.4544,864.25,565.4544,868.25,574.4544" style="stroke:#181818;stroke-width:1;"/></g><!--link clock to htag--><g id="link_clock_htag"><path d="M772,456.6344 C772,487.8944 772,537.2544 772,568.4544 " fill="transparent" id="clock-to-htag" style="stroke:#181818;stroke-width:1;"/><polygon fill="#181818" points="772,574.4544,776,565.4544,772,569.4544,768,565.4544,772,574.4544" style="stroke:#181818;stroke-width:1;"/></g><!--link clock to stag--><g id="link_clock_stag"><path d="M758.85,445.4844 C670.52,445.4844 522.25,445.4844 522.25,445.4844 C522.25,445.4844 522.25,525.8744 522.25,568.3944 " fill="transparent" id="clock-to-stag" style="stroke:#181818;stroke-width:1;"/><polygon fill="#181818" points="522.25,574.3944,526.25,565.3944,522.25,569.3944,518.25,565.3944,522.25,574.3944" style="stroke:#181818;stroke-width:1;"/></g><!--link clock to systag--><g id="link_clock_systag"><path d="M758.8,433.4844 C594.56,433.4844 172,433.4844 172,433.4844 C172,433.4844 172,523.1244 172,568.3344 " fill="transparent" id="clock-to-systag" style="stroke:#181818;stroke-width:1;"/><polygon fill="#181818" points="172,574.3344,176,565.3344,172,569.3344,168,565.3344,172,574.3344" style="stroke:#181818;stroke-width:1;"/></g><!--link vtag to vstatus--><g id="link_vtag_vstatus"><path d="M926,620.4844 C926,638.1444 926,656.4244 926,674.1644 " fill="transparent" id="vtag-to-vstatus" style="stroke:#181818;stroke-width:1;"/><polygon fill="#181818" points="926,680.1644,930,671.1644,926,675.1644,922,671.1644,926,680.1644" style="stroke:#181818;stroke-width:1;"/></g><!--link vtag to vcb--><g id="link_vtag_vcb"><path d="M1002.56,597.4844 C1056.44,597.4844 1119,597.4844 1119,597.4844 C1119,597.4844 1119,643.3044 1119,674.4844 " fill="transparent" id="vtag-to-vcb" style="stroke:#181818;stroke-width:1;"/><polygon fill="#181818" points="1119,680.4844,1123,671.4844,1119,675.4844,1115,671.4844,1119,680.4844" style="stroke:#181818;stroke-width:1;"/></g><!--link vcb to tss--><g id="link_vcb_tss"><path d="M1159.33,726.5244 C1159.33,747.9244 1159.33,773.6144 1159.33,795.1144 " fill="transparent" id="vcb-to-tss" style="stroke:#181818;stroke-width:1;"/><polygon fill="#181818" points="1159.33,801.1144,1163.33,792.1144,1159.33,796.1144,1155.33,792.1144,1159.33,801.1144" style="stroke:#181818;stroke-width:1;"/></g><!--link vcb to pdm--><g id="link_vcb_pdm"><path d="M1102.67,726.5444 C1102.67,743.8244 1102.67,764.4844 1102.67,764.4844 C1102.67,764.4844 896,764.4844 896,764.4844 C896,764.4844 896,778.5344 896,795.4544 " fill="transparent" id="vcb-to-pdm" style="stroke:#181818;stroke-width:1;"/><polygon fill="#181818" points="896,801.4544,900,792.4544,896,796.4544,892,792.4544,896,801.4544" style="stroke:#181818;stroke-width:1;"/></g><!--link clock to viface--><g id="link_clock_viface"><path d="M887.1,433.4844 C1058.47,433.4844 1514.25,433.4844 1514.25,433.4844 C1514.25,433.4844 1514.25,523.1244 1514.25,568.3344 " fill="transparent" id="clock-to-viface" style="stroke:#181818;stroke-width:1;stroke-dasharray:7.0,7.0;"/><polygon fill="#181818" points="1514.25,574.3344,1518.25,565.3344,1514.25,569.3344,1510.25,565.3344,1514.25,574.3344" style="stroke:#181818;stroke-width:1;"/><text fill="#000000" font-family="sans-serif" font-size="13" lengthAdjust="spacing" textLength="137.23" x="1133.1" y="429.5513">uses (via shared_ptr)</text></g><!--link clock to hiface--><g id="link_clock_hiface"><path d="M887.05,445.4844 C1033.25,445.4844 1379,445.4844 1379,445.4844 C1379,445.4844 1379,525.8744 1379,568.3944 " fill="transparent" id="clock-to-hiface" style="stroke:#181818;stroke-width:1;stroke-dasharray:7.0,7.0;"/><polygon fill="#181818" points="1379,574.3944,1383,565.3944,1379,569.3944,1375,565.3944,1379,574.3944" style="stroke:#181818;stroke-width:1;"/><text fill="#000000" font-family="sans-serif" font-size="13" lengthAdjust="spacing" textLength="137.23" x="1059.48" y="458.5513">uses (via shared_ptr)</text></g><!--reverse link viface to prod--><g id="link_viface_prod"><path d="M1478.59,597.4844 C1478.59,597.4844 1479.5,649.3044 1479.5,680.4844 " fill="transparent" id="viface-backto-prod" style="stroke:#181818;stroke-width:1;"/><polygon fill="transparent" points="1496.59,597.4844,1478.59,591.4844,1478.59,603.4844,1496.59,597.4844" style="stroke:#181818;stroke-width:1;"/></g><!--reverse link viface to stub--><g id="link_viface_stub"><path d="M1605,638.4844 C1605,656.1444 1605,662.4244 1605,680.1644 " fill="transparent" id="viface-backto-stub" style="stroke:#181818;stroke-width:1;"/><polygon fill="transparent" points="1605,620.4844,1599,638.4844,1611,638.4844,1605,620.4844" style="stroke:#181818;stroke-width:1;"/></g><!--SRC=[XLJRYXD147sVhoZqPVEGzNrO0ffbLL1SoAg8oDAPgKqtwNGFtJLP1bVm8_n2lyJgosHcagY1G4_LgLFt8aKQmLVMOLcIsY7y_laBNhfAAiAAMeVmJdJeV57uhJADS687ZQYsOeChwjZMCKoOZSOHOCs0ZREjgPTMMmUFWMsaryeWTGs2TIHjKMZSeAc1R0CQ7wW0_Zt1rVDtQYFfbMvn4GMtxLgh2YIAcYE2YqehDEH1cKgtDG99z3Y3z7kQihnsY6OH13SS0JvQjmKTCWiqjjg-wBFgxOzPFhDRMlHYkEDQpMkx4ye0YKrlxU7SxoYMfNL2nrZU6a9dX8OQIIWzoidWdcFBcSqo2nSfbQeeiZzujem6iBGrFeF4_mMrje_mFNhz-h9fk6g2b3NVG7WGJPCK7uqYk4DFKKpyA7wCY7ErOuWFeagJaMhLEuf5xVqiW-hgJcmMaIyYa-OJIbLfZ00GMWaV4ViHv4sZ_R5UZlGhugPtnmW_HdIUS7U2w39cd5d86LfIMf7YZWrvmKMeWZMwcvslPL3V1qjVbglADbX7Xn-uLqxLE6I_QOMhJsqYEhY_4HLPrmq63qamZJFCs7MQCGPwZYbEOOxcWDkd-jw7_UNU9Esuye4eJ6agEp_E8bOagCsjyV4zm6xlRg4IMeVDXh2wVGlN4VDZ6f3aRfw9veroVXAAx4CvilUnssSOFDLbMKbdZItBZ8gjEr3wlr76yVWlPK8TKNP_8ssecPB5CcgnnrLdgcj1OcWm-N4vhv6FptiKdY_iZlTtYctgNNOt7eV3iGW3cmy6Z-paKjImxY3VaCCCntlJZ_1u6LynDL-Jr4eLbhmuDEe484U0MsVhjWed9Txw7jAmkD_NTZrHUHQ4RFZwm7o-oCiF9JplhtS_nL5nAGz8UOACuzN3mdf5N5mvXftRoz6KBmQBl7DiSxAN_QWkolAzsEB5ZlMpeiXH1-DqLkInm9y8kXDHCGZYCWwVSlhfZpxJ81R1A5ddDHq4l8_yZ-ymSFqx35GckhnSv5vptgtd-tUnLmAy50xh-uRSR0IK_mPcdgkd-JprVYo87Vy3]--></g></svg>