<svg xmlns="http://www.w3.org/2000/svg" xmlns:xlink="http://www.w3.org/1999/xlink" contentStyleType="text/css" data-diagram-type="CLASS" height="1191px" preserveAspectRatio="none" style="width:1542px;height:1191px;background:#FFFFFF;" version="1.1" viewBox="0 0 1542 1191" width="1542px" zoomAndPan="magnify"><title>score::time &#8212; Class Overview</title><defs/><g><text fill="#000000" font-family="sans-serif" font-size="14" font-weight="bold" lengthAdjust="spacing" textLength="233.0098" x="647.833" y="22.9951">score::time &#8212; Class Overview</text><rect fill="transparent" height="79.1875" id="_legend" rx="7.5" ry="7.5" style="stroke:#000000;stroke-width:1;" width="301.7236" x="12" y="49.2969"/><rect fill="#90EE90" height="16.2969" style="stroke:transparent;stroke-width:1;" width="40.0518" x="17" y="56.2969"/><text fill="#000000" font-family="sans-serif" font-size="14" lengthAdjust="spacing" textLength="17.8008" x="17" y="69.292">&#160;&#160;&#160;&#160;</text><text fill="#000000" font-family="sans-serif" font-size="14" lengthAdjust="spacing" textLength="164.541" x="61.502" y="69.292">Public framework types</text><rect fill="#F5DEB3" height="16.2969" style="stroke:transparent;stroke-width:1;" width="40.0518" x="17" y="72.5938"/><text fill="#000000" font-family="sans-serif" font-size="14" lengthAdjust="spacing" textLength="40.0518" x="17" y="85.5889">&#160;&#160;&#160;&#160;&#160;&#160;&#160;&#160;&#160;</text><text fill="#000000" font-family="sans-serif" font-size="14" lengthAdjust="spacing" textLength="229.4209" x="61.502" y="85.5889">Time-domain tag structs (public)</text><rect fill="#ADD8E6" height="16.2969" style="stroke:transparent;stroke-width:1;" width="40.0518" x="17" y="88.8906"/><text fill="#000000" font-family="sans-serif" font-size="14" lengthAdjust="spacing" textLength="22.251" x="17" y="101.8857">&#160;&#160;&#160;&#160;&#160;</text><text fill="#000000" font-family="sans-serif" font-size="14" lengthAdjust="spacing" textLength="209.1318" x="61.502" y="101.8857">PTP notification types (public)</text><rect fill="#F08080" height="16.2969" style="stroke:transparent;stroke-width:1;" width="40.0518" x="17" y="105.1875"/><text fill="#000000" font-family="sans-serif" font-size="14" lengthAdjust="spacing" textLength="17.8008" x="17" y="118.1826">&#160;&#160;&#160;&#160;</text><text fill="#000000" font-family="sans-serif" font-size="14" lengthAdjust="spacing" textLength="195.1182" x="61.502" y="118.1826">Internal interfaces (details/)</text><line style="stroke:#000000;stroke-width:1;" x1="17" x2="308.7236" y1="56.2969" y2="56.2969"/><line style="stroke:#000000;stroke-width:1;" x1="17" x2="308.7236" y1="72.5938" y2="72.5938"/><line style="stroke:#000000;stroke-width:1;" x1="17" x2="308.7236" y1="88.8906" y2="88.8906"/><line style="stroke:#000000;stroke-width:1;" x1="17" x2="308.7236" y1="105.1875" y2="105.1875"/><line style="stroke:#000000;stroke-width:1;" x1="17" x2="308.7236" y1="121.4844" y2="121.4844"/><line style="stroke:#000000;stroke-width:1;" x1="17" x2="17" y1="56.2969" y2="121.4844"/><line style="stroke:#000000;stroke-width:1;" x1="57.0518" x2="57.0518" y1="56.2969" y2="121.4844"/><line style="stroke:#000000;stroke-width:1;" x1="308.7236" x2="308.7236" y1="56.2969" y2="121.4844"/><!--class clock--><g id="elem_clock"><rect codeLine="16" fill="#90EE90" height="194.6719" id="clock" rx="2.5" ry="2.5" style="stroke:#888888;stroke-width:0.5;" width="428.124" x="909" y="325.4844"/><ellipse cx="1086.644" cy="341.4844" fill="#ADD1B2" rx="11" ry="11" style="stroke:#181818;stroke-width:1;"/><path d="M1089.6128,347.125 Q1089.0347,347.4219 1088.394,347.5625 Q1087.7534,347.7188 1087.0503,347.7188 Q1084.5503,347.7188 1083.2222,346.0781 Q1081.9097,344.4219 1081.9097,341.2969 Q1081.9097,338.1719 1083.2222,336.5156 Q1084.5503,334.8594 1087.0503,334.8594 Q1087.7534,334.8594 1088.394,335.0156 Q1089.0503,335.1719 1089.6128,335.4688 L1089.6128,338.1875 Q1088.9878,337.6094 1088.394,337.3438 Q1087.8003,337.0625 1087.1753,337.0625 Q1085.8315,337.0625 1085.144,338.1406 Q1084.4565,339.2031 1084.4565,341.2969 Q1084.4565,343.3906 1085.144,344.4688 Q1085.8315,345.5313 1087.1753,345.5313 Q1087.8003,345.5313 1088.394,345.2656 Q1088.9878,344.9844 1089.6128,344.4063 L1089.6128,347.125 Z " fill="#000000"/><text fill="#000000" font-family="sans-serif" font-size="14" lengthAdjust="spacing" textLength="38.0352" x="1107.144" y="346.3311">Clock</text><rect fill="#FAFAFA" height="15.9688" style="stroke:#888888;stroke-width:1;stroke-dasharray:2.0,2.0;" width="24.3008" x="1315.8232" y="322.4844"/><text fill="#000000" font-family="sans-serif" font-size="12" font-style="italic" lengthAdjust="spacing" textLength="22.3008" x="1316.8232" y="334.623">Tag</text><line style="stroke:#888888;stroke-width:0.5;" x1="910" x2="1336.124" y1="357.4844" y2="357.4844"/><ellipse cx="920" cy="371.1328" fill="#84BE84" rx="3" ry="3" style="stroke:#038048;stroke-width:1;"/><text fill="#000000" font-family="sans-serif" font-size="14" lengthAdjust="spacing" text-decoration="underline" textLength="196.5537" x="929" y="374.4795">GetInstance() : Clock&lt;Tag&gt;</text><ellipse cx="920" cy="387.4297" fill="#84BE84" rx="3" ry="3" style="stroke:#038048;stroke-width:1;"/><text fill="#000000" font-family="sans-serif" font-size="14" lengthAdjust="spacing" textLength="120.4766" x="929" y="390.7764">Now() : Snapshot</text><ellipse cx="920" cy="403.7266" fill="#84BE84" rx="3" ry="3" style="stroke:#038048;stroke-width:1;"/><text fill="#000000" font-family="sans-serif" font-size="14" lengthAdjust="spacing" textLength="237.4395" x="929" y="407.0732">Subscribe&lt;EventType&gt;(cb) : void</text><ellipse cx="920" cy="420.0234" fill="#84BE84" rx="3" ry="3" style="stroke:#038048;stroke-width:1;"/><text fill="#000000" font-family="sans-serif" font-size="14" lengthAdjust="spacing" textLength="238.3828" x="929" y="423.3701">Unsubscribe&lt;EventType&gt;() : void</text><ellipse cx="920" cy="436.3203" fill="#84BE84" rx="3" ry="3" style="stroke:#038048;stroke-width:1;"/><text fill="#000000" font-family="sans-serif" font-size="14" lengthAdjust="spacing" textLength="269.7939" x="929" y="439.667">IsAvailable() : bool  [VehicleTime only]</text><ellipse cx="920" cy="452.6172" fill="#84BE84" rx="3" ry="3" style="stroke:#038048;stroke-width:1;"/><text fill="#000000" font-family="sans-serif" font-size="14" lengthAdjust="spacing" textLength="402.124" x="929" y="455.9639">WaitUntilAvailable(token, until) : bool  [VehicleTime only]</text><line style="stroke:#888888;stroke-width:1;" x1="910" x2="1336.124" y1="463.2656" y2="463.2656"/><rect fill="transparent" height="6" style="stroke:#C82930;stroke-width:1;" width="6" x="917" y="473.9141"/><text fill="#000000" font-family="sans-serif" font-size="14" lengthAdjust="spacing" textLength="209.877" x="929" y="480.2607">impl_ : shared_ptr&lt;Backend&gt;</text><rect fill="transparent" height="6" style="stroke:#C82930;stroke-width:1;" width="6" x="917" y="490.2109"/><text fill="#000000" font-family="sans-serif" font-size="14" lengthAdjust="spacing" text-decoration="underline" textLength="276.0898" x="929" y="496.5576">instance_cache_ : weak_ptr&lt;Backend&gt;</text><rect fill="transparent" height="6" style="stroke:#C82930;stroke-width:1;" width="6" x="917" y="506.5078"/><text fill="#000000" font-family="sans-serif" font-size="14" lengthAdjust="spacing" text-decoration="underline" textLength="304.2471" x="929" y="512.8545">instance_override_ : shared_ptr&lt;Backend&gt;</text></g><!--class guard--><g id="elem_guard"><rect codeLine="29" fill="#90EE90" height="96.8906" id="guard" rx="2.5" ry="2.5" style="stroke:#888888;stroke-width:0.5;" width="399.5566" x="709" y="151.4844"/><ellipse cx="779.8052" cy="167.4844" fill="#ADD1B2" rx="11" ry="11" style="stroke:#181818;stroke-width:1;"/><path d="M782.7739,173.125 Q782.1958,173.4219 781.5552,173.5625 Q780.9146,173.7188 780.2114,173.7188 Q777.7114,173.7188 776.3833,172.0781 Q775.0708,170.4219 775.0708,167.2969 Q775.0708,164.1719 776.3833,162.5156 Q777.7114,160.8594 780.2114,160.8594 Q780.9146,160.8594 781.5552,161.0156 Q782.2114,161.1719 782.7739,161.4688 L782.7739,164.1875 Q782.1489,163.6094 781.5552,163.3438 Q780.9614,163.0625 780.3364,163.0625 Q778.9927,163.0625 778.3052,164.1406 Q777.6177,165.2031 777.6177,167.2969 Q777.6177,169.3906 778.3052,170.4688 Q778.9927,171.5313 780.3364,171.5313 Q780.9614,171.5313 781.5552,171.2656 Q782.1489,170.9844 782.7739,170.4063 L782.7739,173.125 Z " fill="#000000"/><text fill="#000000" font-family="sans-serif" font-size="14" lengthAdjust="spacing" textLength="223.1455" x="800.3052" y="172.3311">test_utils::ScopedClockOverride</text><rect fill="#FAFAFA" height="15.9688" style="stroke:#888888;stroke-width:1;stroke-dasharray:2.0,2.0;" width="24.3008" x="1087.2559" y="148.4844"/><text fill="#000000" font-family="sans-serif" font-size="12" font-style="italic" lengthAdjust="spacing" textLength="22.3008" x="1088.2559" y="160.623">Tag</text><line style="stroke:#888888;stroke-width:0.5;" x1="710" x2="1107.5566" y1="183.4844" y2="183.4844"/><ellipse cx="720" cy="197.1328" fill="#84BE84" rx="3" ry="3" style="stroke:#038048;stroke-width:1;"/><text fill="#000000" font-family="sans-serif" font-size="14" lengthAdjust="spacing" textLength="373.5566" x="729" y="200.4795">ScopedClockOverride(const shared_ptr&lt;Backend&gt;&amp;)</text><ellipse cx="720" cy="213.4297" fill="#84BE84" rx="3" ry="3" style="stroke:#038048;stroke-width:1;"/><text fill="#000000" font-family="sans-serif" font-size="14" lengthAdjust="spacing" textLength="173.0449" x="729" y="216.7764">~ScopedClockOverride()</text><line style="stroke:#888888;stroke-width:1;" x1="710" x2="1107.5566" y1="224.0781" y2="224.0781"/><text fill="#000000" font-family="sans-serif" font-size="14" lengthAdjust="spacing" textLength="185.124" x="715" y="241.0732">move-only, non-re-entrant</text></g><!--class factory--><g id="elem_factory"><rect codeLine="36" fill="#90EE90" height="80.5938" id="factory" rx="2.5" ry="2.5" style="stroke:#888888;stroke-width:0.5;" width="387.6758" x="1144" y="159.4844"/><ellipse cx="1223.856" cy="175.4844" fill="#ADD1B2" rx="11" ry="11" style="stroke:#181818;stroke-width:1;"/><path d="M1226.8247,181.125 Q1226.2466,181.4219 1225.606,181.5625 Q1224.9653,181.7188 1224.2622,181.7188 Q1221.7622,181.7188 1220.4341,180.0781 Q1219.1216,178.4219 1219.1216,175.2969 Q1219.1216,172.1719 1220.4341,170.5156 Q1221.7622,168.8594 1224.2622,168.8594 Q1224.9653,168.8594 1225.606,169.0156 Q1226.2622,169.1719 1226.8247,169.4688 L1226.8247,172.1875 Q1226.1997,171.6094 1225.606,171.3438 Q1225.0122,171.0625 1224.3872,171.0625 Q1223.0435,171.0625 1222.356,172.1406 Q1221.6685,173.2031 1221.6685,175.2969 Q1221.6685,177.3906 1222.356,178.4688 Q1223.0435,179.5313 1224.3872,179.5313 Q1225.0122,179.5313 1225.606,179.2656 Q1226.1997,178.9844 1226.8247,178.4063 L1226.8247,181.125 Z " fill="#000000"/><text fill="#000000" font-family="sans-serif" font-size="14" lengthAdjust="spacing" textLength="193.1631" x="1244.356" y="180.3311">test_utils::ClockTestFactory</text><rect fill="#FAFAFA" height="15.9688" style="stroke:#888888;stroke-width:1;stroke-dasharray:2.0,2.0;" width="24.3008" x="1510.375" y="156.4844"/><text fill="#000000" font-family="sans-serif" font-size="12" font-style="italic" lengthAdjust="spacing" textLength="22.3008" x="1511.375" y="168.623">Tag</text><line style="stroke:#888888;stroke-width:0.5;" x1="1145" x2="1530.6758" y1="191.4844" y2="191.4844"/><ellipse cx="1155" cy="205.1328" fill="#84BE84" rx="3" ry="3" style="stroke:#038048;stroke-width:1;"/><text fill="#000000" font-family="sans-serif" font-size="14" lengthAdjust="spacing" text-decoration="underline" textLength="361.6758" x="1164" y="208.4795">Make(const shared_ptr&lt;Backend&gt;&amp;) : Clock&lt;Tag&gt;</text><line style="stroke:#888888;stroke-width:1;" x1="1145" x2="1530.6758" y1="215.7813" y2="215.7813"/><text fill="#000000" font-family="sans-serif" font-size="14" lengthAdjust="spacing" textLength="173.25" x="1150" y="232.7764">all-static, no global state</text></g><!--class snapshot--><g id="elem_snapshot"><rect codeLine="42" fill="#90EE90" height="80.5938" id="snapshot" rx="2.5" ry="2.5" style="stroke:#888888;stroke-width:0.5;" width="260.3496" x="117" y="637.9844"/><ellipse cx="132" cy="653.9844" fill="#ADD1B2" rx="11" ry="11" style="stroke:#181818;stroke-width:1;"/><path d="M134.9688,659.625 Q134.3906,659.9219 133.75,660.0625 Q133.1094,660.2188 132.4063,660.2188 Q129.9063,660.2188 128.5781,658.5781 Q127.2656,656.9219 127.2656,653.7969 Q127.2656,650.6719 128.5781,649.0156 Q129.9063,647.3594 132.4063,647.3594 Q133.1094,647.3594 133.75,647.5156 Q134.4063,647.6719 134.9688,647.9688 L134.9688,650.6875 Q134.3438,650.1094 133.75,649.8438 Q133.1563,649.5625 132.5313,649.5625 Q131.1875,649.5625 130.5,650.6406 Q129.8125,651.7031 129.8125,653.7969 Q129.8125,655.8906 130.5,656.9688 Q131.1875,658.0313 132.5313,658.0313 Q133.1563,658.0313 133.75,657.7656 Q134.3438,657.4844 134.9688,656.9063 L134.9688,659.625 Z " fill="#000000"/><text fill="#000000" font-family="sans-serif" font-size="14" lengthAdjust="spacing" textLength="103.4824" x="146" y="658.8311">ClockSnapshot</text><rect fill="#FAFAFA" height="15.9688" style="stroke:#888888;stroke-width:1;stroke-dasharray:2.0,2.0;" width="122.8672" x="257.4824" y="634.9844"/><text fill="#000000" font-family="sans-serif" font-size="12" font-style="italic" lengthAdjust="spacing" textLength="120.8672" x="258.4824" y="647.123">TimepointT, StatusT</text><line style="stroke:#888888;stroke-width:0.5;" x1="118" x2="376.3496" y1="669.9844" y2="669.9844"/><line style="stroke:#888888;stroke-width:0.5;" x1="118" x2="376.3496" y1="677.9844" y2="677.9844"/><ellipse cx="128" cy="691.6328" fill="#84BE84" rx="3" ry="3" style="stroke:#038048;stroke-width:1;"/><text fill="#000000" font-family="sans-serif" font-size="14" lengthAdjust="spacing" textLength="173.4414" x="137" y="694.9795">TimePoint() : TimepointT</text><ellipse cx="128" cy="707.9297" fill="#84BE84" rx="3" ry="3" style="stroke:#038048;stroke-width:1;"/><text fill="#000000" font-family="sans-serif" font-size="14" lengthAdjust="spacing" textLength="122.3154" x="137" y="711.2764">Status() : StatusT</text></g><!--class status--><g id="elem_status"><rect codeLine="47" fill="#90EE90" height="113.1875" id="status" rx="2.5" ry="2.5" style="stroke:#888888;stroke-width:0.5;" width="377.2646" x="58.5" y="1071.4844"/><ellipse cx="166.0493" cy="1087.4844" fill="#ADD1B2" rx="11" ry="11" style="stroke:#181818;stroke-width:1;"/><path d="M169.0181,1093.125 Q168.4399,1093.4219 167.7993,1093.5625 Q167.1587,1093.7188 166.4556,1093.7188 Q163.9556,1093.7188 162.6274,1092.0781 Q161.3149,1090.4219 161.3149,1087.2969 Q161.3149,1084.1719 162.6274,1082.5156 Q163.9556,1080.8594 166.4556,1080.8594 Q167.1587,1080.8594 167.7993,1081.0156 Q168.4556,1081.1719 169.0181,1081.4688 L169.0181,1084.1875 Q168.3931,1083.6094 167.7993,1083.3438 Q167.2056,1083.0625 166.5806,1083.0625 Q165.2368,1083.0625 164.5493,1084.1406 Q163.8618,1085.2031 163.8618,1087.2969 Q163.8618,1089.3906 164.5493,1090.4688 Q165.2368,1091.5313 166.5806,1091.5313 Q167.2056,1091.5313 167.7993,1091.2656 Q168.3931,1090.9844 169.0181,1090.4063 L169.0181,1093.125 Z " fill="#000000"/><text fill="#000000" font-family="sans-serif" font-size="14" lengthAdjust="spacing" textLength="82.6465" x="186.5493" y="1092.3311">ClockStatus</text><rect fill="#FAFAFA" height="15.9688" style="stroke:#888888;stroke-width:1;stroke-dasharray:2.0,2.0;" width="69.0195" x="369.7451" y="1068.4844"/><text fill="#000000" font-family="sans-serif" font-size="12" font-style="italic" lengthAdjust="spacing" textLength="67.0195" x="370.7451" y="1080.623">FlagEnumT</text><line style="stroke:#888888;stroke-width:0.5;" x1="59.5" x2="434.7646" y1="1103.4844" y2="1103.4844"/><line style="stroke:#888888;stroke-width:0.5;" x1="59.5" x2="434.7646" y1="1111.4844" y2="1111.4844"/><ellipse cx="69.5" cy="1125.1328" fill="#84BE84" rx="3" ry="3" style="stroke:#038048;stroke-width:1;"/><text fill="#000000" font-family="sans-serif" font-size="14" lengthAdjust="spacing" textLength="165.1152" x="78.5" y="1128.4795">IsFlagActive(flag) : bool</text><ellipse cx="69.5" cy="1141.4297" fill="#84BE84" rx="3" ry="3" style="stroke:#038048;stroke-width:1;"/><text fill="#000000" font-family="sans-serif" font-size="14" lengthAdjust="spacing" textLength="222.3867" x="78.5" y="1144.7764">IsAnyOfFlagsActive(flags) : bool</text><ellipse cx="69.5" cy="1157.7266" fill="#84BE84" rx="3" ry="3" style="stroke:#038048;stroke-width:1;"/><text fill="#000000" font-family="sans-serif" font-size="14" lengthAdjust="spacing" textLength="137.2109" x="78.5" y="1161.0732">AddFlag(flag) : void</text><ellipse cx="69.5" cy="1174.0234" fill="#84BE84" rx="3" ry="3" style="stroke:#038048;stroke-width:1;"/><text fill="#000000" font-family="sans-serif" font-size="14" lengthAdjust="spacing" textLength="351.2646" x="78.5" y="1177.3701">PrintTo() : ostringstream  [specialization required]</text></g><!--class vtag--><g id="elem_vtag"><rect codeLine="55" fill="#F5DEB3" height="129.4844" id="vtag" rx="2.5" ry="2.5" style="stroke:#888888;stroke-width:0.5;" width="368.002" x="412" y="613.9844"/><ellipse cx="548.8281" cy="629.9844" fill="#ADD1B2" rx="11" ry="11" style="stroke:#181818;stroke-width:1;"/><path d="M551.7969,635.625 Q551.2188,635.9219 550.5781,636.0625 Q549.9375,636.2188 549.2344,636.2188 Q546.7344,636.2188 545.4063,634.5781 Q544.0938,632.9219 544.0938,629.7969 Q544.0938,626.6719 545.4063,625.0156 Q546.7344,623.3594 549.2344,623.3594 Q549.9375,623.3594 550.5781,623.5156 Q551.2344,623.6719 551.7969,623.9688 L551.7969,626.6875 Q551.1719,626.1094 550.5781,625.8438 Q549.9844,625.5625 549.3594,625.5625 Q548.0156,625.5625 547.3281,626.6406 Q546.6406,627.7031 546.6406,629.7969 Q546.6406,631.8906 547.3281,632.9688 Q548.0156,634.0313 549.3594,634.0313 Q549.9844,634.0313 550.5781,633.7656 Q551.1719,633.4844 551.7969,632.9063 L551.7969,635.625 Z " fill="#000000"/><text fill="#000000" font-family="sans-serif" font-size="14" lengthAdjust="spacing" textLength="85.8457" x="569.3281" y="634.8311">VehicleTime</text><line style="stroke:#888888;stroke-width:0.5;" x1="413" x2="779.002" y1="645.9844" y2="645.9844"/><ellipse cx="423" cy="659.6328" fill="transparent" rx="3" ry="3" style="stroke:#038048;stroke-width:1;"/><text fill="#000000" font-family="sans-serif" font-size="14" lengthAdjust="spacing" textLength="118.4668" x="432" y="662.9795">enum StatusFlag</text><ellipse cx="423" cy="675.9297" fill="transparent" rx="3" ry="3" style="stroke:#038048;stroke-width:1;"/><text fill="#000000" font-family="sans-serif" font-size="14" lengthAdjust="spacing" textLength="215.8174" x="432" y="679.2764">using Duration = nanoseconds</text><ellipse cx="423" cy="692.2266" fill="transparent" rx="3" ry="3" style="stroke:#038048;stroke-width:1;"/><text fill="#000000" font-family="sans-serif" font-size="14" lengthAdjust="spacing" textLength="342.002" x="432" y="695.5732">using Timepoint = time_point&lt;VehicleTime, ns&gt;</text><ellipse cx="423" cy="708.5234" fill="transparent" rx="3" ry="3" style="stroke:#038048;stroke-width:1;"/><text fill="#000000" font-family="sans-serif" font-size="14" lengthAdjust="spacing" textLength="306.1133" x="432" y="711.8701">using TimeSlaveSyncDataReceivedCallback</text><ellipse cx="423" cy="724.8203" fill="transparent" rx="3" ry="3" style="stroke:#038048;stroke-width:1;"/><text fill="#000000" font-family="sans-serif" font-size="14" lengthAdjust="spacing" textLength="305.0537" x="432" y="728.167">using PDelayMeasurementFinishedCallback</text><line style="stroke:#888888;stroke-width:0.5;" x1="413" x2="779.002" y1="735.4688" y2="735.4688"/></g><!--class vstatus--><g id="elem_vstatus"><rect codeLine="63" fill="#F5DEB3" height="174.375" id="vstatus" rx="2.5" ry="2.5" style="stroke:#888888;stroke-width:0.5;" width="348.6016" x="72.5" y="836.4844"/><ellipse cx="177.3223" cy="852.4844" fill="#ADD1B2" rx="11" ry="11" style="stroke:#181818;stroke-width:1;"/><path d="M180.291,858.125 Q179.7129,858.4219 179.0723,858.5625 Q178.4316,858.7188 177.7285,858.7188 Q175.2285,858.7188 173.9004,857.0781 Q172.5879,855.4219 172.5879,852.2969 Q172.5879,849.1719 173.9004,847.5156 Q175.2285,845.8594 177.7285,845.8594 Q178.4316,845.8594 179.0723,846.0156 Q179.7285,846.1719 180.291,846.4688 L180.291,849.1875 Q179.666,848.6094 179.0723,848.3438 Q178.4785,848.0625 177.8535,848.0625 Q176.5098,848.0625 175.8223,849.1406 Q175.1348,850.2031 175.1348,852.2969 Q175.1348,854.3906 175.8223,855.4688 Q176.5098,856.5313 177.8535,856.5313 Q178.4785,856.5313 179.0723,856.2656 Q179.666,855.9844 180.291,855.4063 L180.291,858.125 Z " fill="#000000"/><text fill="#000000" font-family="sans-serif" font-size="14" lengthAdjust="spacing" textLength="130.457" x="197.8223" y="857.3311">VehicleTimeStatus</text><line style="stroke:#888888;stroke-width:0.5;" x1="73.5" x2="420.1016" y1="868.4844" y2="868.4844"/><ellipse cx="83.5" cy="882.1328" fill="transparent" rx="3" ry="3" style="stroke:#038048;stroke-width:1;"/><text fill="#000000" font-family="sans-serif" font-size="14" lengthAdjust="spacing" textLength="322.6016" x="92.5" y="885.4795">flags : ClockStatus&lt;VehicleTime::StatusFlag&gt;</text><ellipse cx="83.5" cy="898.4297" fill="transparent" rx="3" ry="3" style="stroke:#038048;stroke-width:1;"/><text fill="#000000" font-family="sans-serif" font-size="14" lengthAdjust="spacing" textLength="161.8408" x="92.5" y="901.7764">rate_deviation : double</text><ellipse cx="83.5" cy="935.0234" fill="#84BE84" rx="3" ry="3" style="stroke:#038048;stroke-width:1;"/><text fill="#000000" font-family="sans-serif" font-size="14" lengthAdjust="spacing" textLength="121.96" x="92.5" y="938.3701">IsReliable() : bool</text><ellipse cx="83.5" cy="951.3203" fill="#84BE84" rx="3" ry="3" style="stroke:#038048;stroke-width:1;"/><text fill="#000000" font-family="sans-serif" font-size="14" lengthAdjust="spacing" textLength="211.1006" x="92.5" y="954.667">HasBeenSynchronized() : bool</text><ellipse cx="83.5" cy="967.6172" fill="#84BE84" rx="3" ry="3" style="stroke:#038048;stroke-width:1;"/><text fill="#000000" font-family="sans-serif" font-size="14" lengthAdjust="spacing" textLength="140.0273" x="92.5" y="970.9639">IsConsistent() : bool</text><ellipse cx="83.5" cy="983.9141" fill="#84BE84" rx="3" ry="3" style="stroke:#038048;stroke-width:1;"/><text fill="#000000" font-family="sans-serif" font-size="14" lengthAdjust="spacing" textLength="171.6299" x="92.5" y="987.2607">RateDeviation() : double</text><ellipse cx="83.5" cy="1000.2109" fill="#84BE84" rx="3" ry="3" style="stroke:#038048;stroke-width:1;"/><text fill="#000000" font-family="sans-serif" font-size="14" lengthAdjust="spacing" textLength="165.1152" x="92.5" y="1003.5576">IsFlagActive(flag) : bool</text><line style="stroke:#888888;stroke-width:1;stroke-dasharray:1.0,2.0;" x1="73.5" x2="120.5444" y1="917.2266" y2="917.2266"/><text fill="#000000" font-family="sans-serif" font-size="14" lengthAdjust="spacing" textLength="252.5127" x="120.5444" y="921.5732">VehicleTime-specific quality queries</text><line style="stroke:#888888;stroke-width:1;stroke-dasharray:1.0,2.0;" x1="373.0571" x2="420.1016" y1="917.2266" y2="917.2266"/></g><!--class htag--><g id="elem_htag"><rect codeLine="74" fill="#F5DEB3" height="80.5938" id="htag" rx="2.5" ry="2.5" style="stroke:#888888;stroke-width:0.5;" width="344.3154" x="7" y="159.4844"/><ellipse cx="143.8281" cy="175.4844" fill="#ADD1B2" rx="11" ry="11" style="stroke:#181818;stroke-width:1;"/><path d="M146.7969,181.125 Q146.2188,181.4219 145.5781,181.5625 Q144.9375,181.7188 144.2344,181.7188 Q141.7344,181.7188 140.4063,180.0781 Q139.0938,178.4219 139.0938,175.2969 Q139.0938,172.1719 140.4063,170.5156 Q141.7344,168.8594 144.2344,168.8594 Q144.9375,168.8594 145.5781,169.0156 Q146.2344,169.1719 146.7969,169.4688 L146.7969,172.1875 Q146.1719,171.6094 145.5781,171.3438 Q144.9844,171.0625 144.3594,171.0625 Q143.0156,171.0625 142.3281,172.1406 Q141.6406,173.2031 141.6406,175.2969 Q141.6406,177.3906 142.3281,178.4688 Q143.0156,179.5313 144.3594,179.5313 Q144.9844,179.5313 145.5781,179.2656 Q146.1719,178.9844 146.7969,178.4063 L146.7969,181.125 Z " fill="#000000"/><text fill="#000000" font-family="sans-serif" font-size="14" lengthAdjust="spacing" textLength="62.1592" x="164.3281" y="180.3311">HirsTime</text><line style="stroke:#888888;stroke-width:0.5;" x1="8" x2="350.3154" y1="191.4844" y2="191.4844"/><ellipse cx="18" cy="205.1328" fill="transparent" rx="3" ry="3" style="stroke:#038048;stroke-width:1;"/><text fill="#000000" font-family="sans-serif" font-size="14" lengthAdjust="spacing" textLength="215.8174" x="27" y="208.4795">using Duration = nanoseconds</text><ellipse cx="18" cy="221.4297" fill="transparent" rx="3" ry="3" style="stroke:#038048;stroke-width:1;"/><text fill="#000000" font-family="sans-serif" font-size="14" lengthAdjust="spacing" textLength="318.3154" x="27" y="224.7764">using Timepoint = time_point&lt;HirsTime, ns&gt;</text><line style="stroke:#888888;stroke-width:0.5;" x1="8" x2="350.3154" y1="232.0781" y2="232.0781"/></g><g id="elem_ntag"><path d="M386.5,164.4844 L386.5,195.9844 L351.07,199.9844 L386.5,203.9844 L386.5,235.0156 A0,0 0 0 0 386.5,235.0156 L673.0605,235.0156 A0,0 0 0 0 673.0605,235.0156 L673.0605,174.4844 L663.0605,164.4844 L386.5,164.4844 A0,0 0 0 0 386.5,164.4844 " fill="#FEFFDD" style="stroke:#181818;stroke-width:0.5;"/><path d="M663.0605,164.4844 L663.0605,174.4844 L673.0605,174.4844 L663.0605,164.4844 " fill="#FEFFDD" style="stroke:#181818;stroke-width:0.5;"/><text fill="#000000" font-family="sans-serif" font-size="13" lengthAdjust="spacing" textLength="194.7778" x="392.5" y="181.5513">std::chrono::steady_clock and</text><text fill="#000000" font-family="sans-serif" font-size="13" lengthAdjust="spacing" textLength="225.2847" x="392.5" y="196.6841">std::chrono::system_clock are also</text><text fill="#000000" font-family="sans-serif" font-size="13" lengthAdjust="spacing" textLength="265.5605" x="392.5" y="211.8169">valid Tag types &#8212; built-in specializations</text><text fill="#000000" font-family="sans-serif" font-size="13" lengthAdjust="spacing" textLength="167.7178" x="392.5" y="226.9497">provided by clock_traits.h</text></g><!--class tss--><g id="elem_tss"><rect codeLine="87" fill="#ADD8E6" height="96.8906" id="tss" rx="2.5" ry="2.5" style="stroke:#888888;stroke-width:0.5;" width="198.417" x="457" y="874.9844"/><ellipse cx="472" cy="890.9844" fill="#ADD1B2" rx="11" ry="11" style="stroke:#181818;stroke-width:1;"/><path d="M474.9688,896.625 Q474.3906,896.9219 473.75,897.0625 Q473.1094,897.2188 472.4063,897.2188 Q469.9063,897.2188 468.5781,895.5781 Q467.2656,893.9219 467.2656,890.7969 Q467.2656,887.6719 468.5781,886.0156 Q469.9063,884.3594 472.4063,884.3594 Q473.1094,884.3594 473.75,884.5156 Q474.4063,884.6719 474.9688,884.9688 L474.9688,887.6875 Q474.3438,887.1094 473.75,886.8438 Q473.1563,886.5625 472.5313,886.5625 Q471.1875,886.5625 470.5,887.6406 Q469.8125,888.7031 469.8125,890.7969 Q469.8125,892.8906 470.5,893.9688 Q471.1875,895.0313 472.5313,895.0313 Q473.1563,895.0313 473.75,894.7656 Q474.3438,894.4844 474.9688,893.9063 L474.9688,896.625 Z " fill="#000000"/><text fill="#000000" font-family="sans-serif" font-size="14" lengthAdjust="spacing" textLength="140.1162" x="486" y="895.8311">TimeSlaveSyncData</text><rect fill="#FAFAFA" height="15.9688" style="stroke:#888888;stroke-width:1;stroke-dasharray:2.0,2.0;" width="24.3008" x="634.1162" y="871.9844"/><text fill="#000000" font-family="sans-serif" font-size="12" font-style="italic" lengthAdjust="spacing" textLength="22.3008" x="635.1162" y="884.123">Tag</text><line style="stroke:#888888;stroke-width:0.5;" x1="458" x2="654.417" y1="906.9844" y2="906.9844"/><ellipse cx="468" cy="920.6328" fill="transparent" rx="3" ry="3" style="stroke:#038048;stroke-width:1;"/><text fill="#000000" font-family="sans-serif" font-size="14" lengthAdjust="spacing" textLength="152.9746" x="477" y="923.9795">time_slave_sync_data</text><ellipse cx="468" cy="936.9297" fill="transparent" rx="3" ry="3" style="stroke:#038048;stroke-width:1;"/><text fill="#000000" font-family="sans-serif" font-size="14" lengthAdjust="spacing" textLength="89.1133" x="477" y="940.2764">port_identity</text><ellipse cx="468" cy="953.2266" fill="transparent" rx="3" ry="3" style="stroke:#038048;stroke-width:1;"/><text fill="#000000" font-family="sans-serif" font-size="14" lengthAdjust="spacing" textLength="75.5166" x="477" y="956.5732">timestamp</text><line style="stroke:#888888;stroke-width:0.5;" x1="458" x2="654.417" y1="963.875" y2="963.875"/></g><!--class pdm--><g id="elem_pdm"><rect codeLine="93" fill="#ADD8E6" height="80.5938" id="pdm" rx="2.5" ry="2.5" style="stroke:#888888;stroke-width:0.5;" width="236.7393" x="690.5" y="882.9844"/><ellipse cx="705.5" cy="898.9844" fill="#ADD1B2" rx="11" ry="11" style="stroke:#181818;stroke-width:1;"/><path d="M708.4688,904.625 Q707.8906,904.9219 707.25,905.0625 Q706.6094,905.2188 705.9063,905.2188 Q703.4063,905.2188 702.0781,903.5781 Q700.7656,901.9219 700.7656,898.7969 Q700.7656,895.6719 702.0781,894.0156 Q703.4063,892.3594 705.9063,892.3594 Q706.6094,892.3594 707.25,892.5156 Q707.9063,892.6719 708.4688,892.9688 L708.4688,895.6875 Q707.8438,895.1094 707.25,894.8438 Q706.6563,894.5625 706.0313,894.5625 Q704.6875,894.5625 704,895.6406 Q703.3125,896.7031 703.3125,898.7969 Q703.3125,900.8906 704,901.9688 Q704.6875,903.0313 706.0313,903.0313 Q706.6563,903.0313 707.25,902.7656 Q707.8438,902.4844 708.4688,901.9063 L708.4688,904.625 Z " fill="#000000"/><text fill="#000000" font-family="sans-serif" font-size="14" lengthAdjust="spacing" textLength="178.4385" x="719.5" y="903.8311">PDelayMeasurementData</text><rect fill="#FAFAFA" height="15.9688" style="stroke:#888888;stroke-width:1;stroke-dasharray:2.0,2.0;" width="24.3008" x="905.9385" y="879.9844"/><text fill="#000000" font-family="sans-serif" font-size="12" font-style="italic" lengthAdjust="spacing" textLength="22.3008" x="906.9385" y="892.123">Tag</text><line style="stroke:#888888;stroke-width:0.5;" x1="691.5" x2="926.2393" y1="914.9844" y2="914.9844"/><ellipse cx="701.5" cy="928.6328" fill="transparent" rx="3" ry="3" style="stroke:#038048;stroke-width:1;"/><text fill="#000000" font-family="sans-serif" font-size="14" lengthAdjust="spacing" textLength="94.0557" x="710.5" y="931.9795">pdelay_result</text><ellipse cx="701.5" cy="944.9297" fill="transparent" rx="3" ry="3" style="stroke:#038048;stroke-width:1;"/><text fill="#000000" font-family="sans-serif" font-size="14" lengthAdjust="spacing" textLength="89.1133" x="710.5" y="948.2764">port_identity</text><line style="stroke:#888888;stroke-width:0.5;" x1="691.5" x2="926.2393" y1="955.5781" y2="955.5781"/></g><!--class viface--><g id="elem_viface"><rect codeLine="99" fill="#F08080" height="162.0781" id="viface" rx="2.5" ry="2.5" style="stroke:#888888;stroke-width:0.5;" width="341.2871" x="952.5" y="597.4844"/><ellipse cx="1044.1187" cy="613.4844" fill="#A9DCDF" rx="11" ry="11" style="stroke:#181818;stroke-width:1;"/><path d="M1044.228,608.8281 L1043.0718,613.9063 L1045.3999,613.9063 L1044.228,608.8281 Z M1042.7437,606.5938 L1045.728,606.5938 L1049.0874,618.9844 L1046.6343,618.9844 L1045.8687,615.9219 L1042.5874,615.9219 L1041.8374,618.9844 L1039.3999,618.9844 L1042.7437,606.5938 Z " fill="#000000"/><text fill="#000000" font-family="sans-serif" font-size="14" font-style="italic" lengthAdjust="spacing" textLength="149.5498" x="1064.6187" y="618.3311">VehicleClockBackend</text><line style="stroke:#888888;stroke-width:0.5;" x1="953.5" x2="1292.7871" y1="629.4844" y2="629.4844"/><line style="stroke:#888888;stroke-width:0.5;" x1="953.5" x2="1292.7871" y1="637.4844" y2="637.4844"/><ellipse cx="963.5" cy="651.1328" fill="#84BE84" rx="3" ry="3" style="stroke:#038048;stroke-width:1;"/><text fill="#000000" font-family="sans-serif" font-size="14" font-style="italic" lengthAdjust="spacing" textLength="120.4766" x="972.5" y="654.4795">Now() : Snapshot</text><ellipse cx="963.5" cy="667.4297" fill="#84BE84" rx="3" ry="3" style="stroke:#038048;stroke-width:1;"/><text fill="#000000" font-family="sans-serif" font-size="14" font-style="italic" lengthAdjust="spacing" textLength="130.0605" x="972.5" y="670.7764">IsAvailable() : bool</text><ellipse cx="963.5" cy="683.7266" fill="#84BE84" rx="3" ry="3" style="stroke:#038048;stroke-width:1;"/><text fill="#000000" font-family="sans-serif" font-size="14" font-style="italic" lengthAdjust="spacing" textLength="262.3906" x="972.5" y="687.0732">WaitUntilAvailable(token, until) : bool</text><ellipse cx="963.5" cy="700.0234" fill="#84BE84" rx="3" ry="3" style="stroke:#038048;stroke-width:1;"/><text fill="#000000" font-family="sans-serif" font-size="14" font-style="italic" lengthAdjust="spacing" textLength="314.3438" x="972.5" y="703.3701">SetTimeSlaveSyncDataReceivedCallback(cb)</text><ellipse cx="963.5" cy="716.3203" fill="#84BE84" rx="3" ry="3" style="stroke:#038048;stroke-width:1;"/><text fill="#000000" font-family="sans-serif" font-size="14" font-style="italic" lengthAdjust="spacing" textLength="315.2871" x="972.5" y="719.667">UnsetTimeSlaveSyncDataReceivedCallback()</text><ellipse cx="963.5" cy="732.6172" fill="#84BE84" rx="3" ry="3" style="stroke:#038048;stroke-width:1;"/><text fill="#000000" font-family="sans-serif" font-size="14" font-style="italic" lengthAdjust="spacing" textLength="313.2842" x="972.5" y="735.9639">SetPDelayMeasurementFinishedCallback(cb)</text><ellipse cx="963.5" cy="748.9141" fill="#84BE84" rx="3" ry="3" style="stroke:#038048;stroke-width:1;"/><text fill="#000000" font-family="sans-serif" font-size="14" font-style="italic" lengthAdjust="spacing" textLength="314.2275" x="972.5" y="752.2607">UnsetPDelayMeasurementFinishedCallback()</text></g><!--class hiface--><g id="elem_hiface"><rect codeLine="109" fill="#F08080" height="64.2969" id="hiface" rx="2.5" ry="2.5" style="stroke:#888888;stroke-width:0.5;" width="157.8633" x="1333" y="646.4844"/><ellipse cx="1348" cy="662.4844" fill="#A9DCDF" rx="11" ry="11" style="stroke:#181818;stroke-width:1;"/><path d="M1348.1094,657.8281 L1346.9531,662.9063 L1349.2813,662.9063 L1348.1094,657.8281 Z M1346.625,655.5938 L1349.6094,655.5938 L1352.9688,667.9844 L1350.5156,667.9844 L1349.75,664.9219 L1346.4688,664.9219 L1345.7188,667.9844 L1343.2813,667.9844 L1346.625,655.5938 Z " fill="#000000"/><text fill="#000000" font-family="sans-serif" font-size="14" font-style="italic" lengthAdjust="spacing" textLength="125.8633" x="1362" y="667.3311">HirsClockBackend</text><line style="stroke:#888888;stroke-width:0.5;" x1="1334" x2="1489.8633" y1="678.4844" y2="678.4844"/><line style="stroke:#888888;stroke-width:0.5;" x1="1334" x2="1489.8633" y1="686.4844" y2="686.4844"/><ellipse cx="1344" cy="700.1328" fill="#84BE84" rx="3" ry="3" style="stroke:#038048;stroke-width:1;"/><text fill="#000000" font-family="sans-serif" font-size="14" font-style="italic" lengthAdjust="spacing" textLength="120.4766" x="1353" y="703.4795">Now() : Snapshot</text></g><!--class vmock--><g id="elem_vmock"><rect codeLine="113" fill="#F08080" height="145.7813" id="vmock" rx="2.5" ry="2.5" style="stroke:#888888;stroke-width:0.5;" width="320.8135" x="962.5" y="850.4844"/><ellipse cx="1055.8379" cy="866.4844" fill="#ADD1B2" rx="11" ry="11" style="stroke:#181818;stroke-width:1;"/><path d="M1058.8066,872.125 Q1058.2285,872.4219 1057.5879,872.5625 Q1056.9473,872.7188 1056.2441,872.7188 Q1053.7441,872.7188 1052.416,871.0781 Q1051.1035,869.4219 1051.1035,866.2969 Q1051.1035,863.1719 1052.416,861.5156 Q1053.7441,859.8594 1056.2441,859.8594 Q1056.9473,859.8594 1057.5879,860.0156 Q1058.2441,860.1719 1058.8066,860.4688 L1058.8066,863.1875 Q1058.1816,862.6094 1057.5879,862.3438 Q1056.9941,862.0625 1056.3691,862.0625 Q1055.0254,862.0625 1054.3379,863.1406 Q1053.6504,864.2031 1053.6504,866.2969 Q1053.6504,868.3906 1054.3379,869.4688 Q1055.0254,870.5313 1056.3691,870.5313 Q1056.9941,870.5313 1057.5879,870.2656 Q1058.1816,869.9844 1058.8066,869.4063 L1058.8066,872.125 Z " fill="#000000"/><text fill="#000000" font-family="sans-serif" font-size="14" lengthAdjust="spacing" textLength="125.6377" x="1076.3379" y="871.3311">VehicleClockMock</text><line style="stroke:#888888;stroke-width:0.5;" x1="963.5" x2="1282.3135" y1="882.4844" y2="882.4844"/><text fill="#000000" font-family="sans-serif" font-size="14" lengthAdjust="spacing" textLength="239.4766" x="968.5" y="899.4795">MOCK_METHOD: Now, IsAvailable,</text><text fill="#000000" font-family="sans-serif" font-size="14" lengthAdjust="spacing" textLength="132.8291" x="968.5" y="915.7764">WaitUntilAvailable,</text><text fill="#000000" font-family="sans-serif" font-size="14" lengthAdjust="spacing" textLength="291.2861" x="968.5" y="932.0732">SetTimeSlaveSyncDataReceivedCallback,</text><text fill="#000000" font-family="sans-serif" font-size="14" lengthAdjust="spacing" textLength="308.8135" x="968.5" y="948.3701">UnsetTimeSlaveSyncDataReceivedCallback,</text><text fill="#000000" font-family="sans-serif" font-size="14" lengthAdjust="spacing" textLength="290.2266" x="968.5" y="964.667">SetPDelayMeasurementFinishedCallback,</text><text fill="#000000" font-family="sans-serif" font-size="14" lengthAdjust="spacing" textLength="303.3037" x="968.5" y="980.9639">UnsetPDelayMeasurementFinishedCallback</text><line style="stroke:#888888;stroke-width:0.5;" x1="963.5" x2="1282.3135" y1="988.2656" y2="988.2656"/></g><!--class hmock--><g id="elem_hmock"><rect codeLine="122" fill="#F08080" height="64.2969" id="hmock" rx="2.5" ry="2.5" style="stroke:#888888;stroke-width:0.5;" width="194.3125" x="1319" y="891.4844"/><ellipse cx="1334" cy="907.4844" fill="#ADD1B2" rx="11" ry="11" style="stroke:#181818;stroke-width:1;"/><path d="M1336.9688,913.125 Q1336.3906,913.4219 1335.75,913.5625 Q1335.1094,913.7188 1334.4063,913.7188 Q1331.9063,913.7188 1330.5781,912.0781 Q1329.2656,910.4219 1329.2656,907.2969 Q1329.2656,904.1719 1330.5781,902.5156 Q1331.9063,900.8594 1334.4063,900.8594 Q1335.1094,900.8594 1335.75,901.0156 Q1336.4063,901.1719 1336.9688,901.4688 L1336.9688,904.1875 Q1336.3438,903.6094 1335.75,903.3438 Q1335.1563,903.0625 1334.5313,903.0625 Q1333.1875,903.0625 1332.5,904.1406 Q1331.8125,905.2031 1331.8125,907.2969 Q1331.8125,909.3906 1332.5,910.4688 Q1333.1875,911.5313 1334.5313,911.5313 Q1335.1563,911.5313 1335.75,911.2656 Q1336.3438,910.9844 1336.9688,910.4063 L1336.9688,913.125 Z " fill="#000000"/><text fill="#000000" font-family="sans-serif" font-size="14" lengthAdjust="spacing" textLength="162.3125" x="1348" y="912.3311">HirsClockBackendMock</text><line style="stroke:#888888;stroke-width:0.5;" x1="1320" x2="1512.3125" y1="923.4844" y2="923.4844"/><text fill="#000000" font-family="sans-serif" font-size="14" lengthAdjust="spacing" textLength="150.5137" x="1325" y="940.4795">MOCK_METHOD: Now</text><line style="stroke:#888888;stroke-width:0.5;" x1="1320" x2="1512.3125" y1="947.7813" y2="947.7813"/></g><!--link clock to viface--><g id="link_clock_viface"><path codeLine="127" d="M1123,532.5444 C1123,557.8744 1123,566.9044 1123,591.2744 " fill="transparent" id="clock-viface" style="stroke:#181818;stroke-width:1;"/><polygon fill="#181818" points="1123,520.5444,1119,526.5444,1123,532.5444,1127,526.5444,1123,520.5444" style="stroke:#181818;stroke-width:1;"/><polygon fill="#181818" points="1123,597.2744,1127,588.2744,1123,592.2744,1119,588.2744,1123,597.2744" style="stroke:#181818;stroke-width:1;"/><text fill="#000000" font-family="sans-serif" font-size="13" lengthAdjust="spacing" textLength="128.6289" x="1124" y="563.5513">impl_ (VehicleTime)</text><text fill="#000000" font-family="sans-serif" font-size="13" lengthAdjust="spacing" textLength="8.271" x="1114.7116" y="540.3435">1</text><text fill="#000000" font-family="sans-serif" font-size="13" lengthAdjust="spacing" textLength="8.271" x="1114.643" y="586.443">1</text></g><!--link clock to hiface--><g id="link_clock_hiface"><path codeLine="128" d="M1242.1011,528.4576 C1292.9911,573.0976 1336.3896,611.1575 1372.0796,642.4675 " fill="transparent" id="clock-hiface" style="stroke:#181818;stroke-width:1;"/><polygon fill="#181818" points="1233.08,520.5444,1234.9528,527.508,1242.1011,528.4576,1240.2283,521.4939,1233.08,520.5444" style="stroke:#181818;stroke-width:1;"/><polygon fill="#181818" points="1376.59,646.4244,1372.4623,637.4822,1372.8314,643.127,1367.1866,643.496,1376.59,646.4244" style="stroke:#181818;stroke-width:1;"/><text fill="#000000" font-family="sans-serif" font-size="13" lengthAdjust="spacing" textLength="106.6343" x="1285" y="563.5513">impl_ (HirsTime)</text><text fill="#000000" font-family="sans-serif" font-size="13" lengthAdjust="spacing" textLength="8.271" x="1232.8756" y="540.3435">1</text><text fill="#000000" font-family="sans-serif" font-size="13" lengthAdjust="spacing" textLength="8.271" x="1360.5037" y="635.3151">1</text></g><!--link guard to clock--><g id="link_guard_clock"><path codeLine="129" d="M955.17,248.6644 C976.92,271.1244 999.5161,294.4641 1025.2361,321.0241 " fill="transparent" id="guard-to-clock" style="stroke:#181818;stroke-width:1;stroke-dasharray:7.0,7.0;"/><polygon fill="#181818" points="1029.41,325.3344,1026.0226,316.0864,1025.9317,321.7425,1020.2756,321.6516,1029.41,325.3344" style="stroke:#181818;stroke-width:1;"/><text fill="#000000" font-family="sans-serif" font-size="13" lengthAdjust="spacing" textLength="211.0786" x="998" y="291.5513">OverrideForTest / ResetOverride</text></g><!--link factory to clock--><g id="link_factory_clock"><path codeLine="130" d="M1299.56,240.4944 C1276.49,264.2044 1250.2433,291.1832 1221.1633,321.0832 " fill="transparent" id="factory-to-clock" style="stroke:#181818;stroke-width:1;stroke-dasharray:7.0,7.0;"/><polygon fill="#181818" points="1216.98,325.3844,1226.1224,321.7214,1220.466,321.8,1220.3874,316.1437,1216.98,325.3844" style="stroke:#181818;stroke-width:1;"/><text fill="#000000" font-family="sans-serif" font-size="13" lengthAdjust="spacing" textLength="194.0542" x="1263" y="291.5513">Make() &#8212; private ctor (friend)</text></g><!--link clock to snapshot--><g id="link_clock_snapshot"><path codeLine="132" d="M908.78,459.4844 C761.1,487.6644 561.95,533.1144 394,597.4844 C365.78,608.2944 341.448,620.5725 316.308,634.8425 " fill="transparent" id="clock-to-snapshot" style="stroke:#181818;stroke-width:1;"/><polygon fill="#181818" points="311.09,637.8044,320.8916,636.8403,315.4383,635.3362,316.9424,629.8829,311.09,637.8044" style="stroke:#181818;stroke-width:1;"/><text fill="#000000" font-family="sans-serif" font-size="13" lengthAdjust="spacing" textLength="124.2935" x="531" y="563.5513">returns from Now()</text></g><!--reverse link snapshot to vstatus--><g id="link_snapshot_vstatus"><path codeLine="133" d="M247,731.0644 C247,762.7344 247,796.3144 247,836.2944 " fill="transparent" id="snapshot-backto-vstatus" style="stroke:#181818;stroke-width:1;"/><polygon fill="#181818" points="247,719.0644,243,725.0644,247,731.0644,251,725.0644,247,719.0644" style="stroke:#181818;stroke-width:1;"/><text fill="#000000" font-family="sans-serif" font-size="13" lengthAdjust="spacing" textLength="51.5684" x="248" y="802.5513">Status()</text></g><!--reverse link viface to vmock--><g id="link_viface_vmock"><path codeLine="135" d="M1123,777.7244 C1123,806.8944 1123,821.6644 1123,850.1144 " fill="transparent" id="viface-backto-vmock" style="stroke:#181818;stroke-width:1;"/><polygon fill="transparent" points="1123,759.7244,1117,777.7244,1129,777.7244,1123,759.7244" style="stroke:#181818;stroke-width:1;"/><text fill="#000000" font-family="sans-serif" font-size="13" lengthAdjust="spacing" textLength="73.4043" x="1124" y="802.5513">test double</text></g><!--reverse link hiface to hmock--><g id="link_hiface_hmock"><path codeLine="136" d="M1412.807,728.7519 C1413.577,775.4119 1414.72,844.7444 1415.49,891.3344 " fill="transparent" id="hiface-backto-hmock" style="stroke:#181818;stroke-width:1;"/><polygon fill="transparent" points="1412.51,710.7544,1406.8078,728.8509,1418.8062,728.6529,1412.51,710.7544" style="stroke:#181818;stroke-width:1;"/><text fill="#000000" font-family="sans-serif" font-size="13" lengthAdjust="spacing" textLength="73.4043" x="1415" y="802.5513">test double</text></g><!--link vtag to vstatus--><g id="link_vtag_vstatus"><path codeLine="138" d="M504.76,743.0144 C463.76,771.5544 419.674,802.2559 375.454,833.0459 " fill="transparent" id="vtag-to-vstatus" style="stroke:#181818;stroke-width:1;"/><polygon fill="#181818" points="370.53,836.4744,380.2016,834.6143,374.6333,833.6173,375.6303,828.049,370.53,836.4744" style="stroke:#181818;stroke-width:1;"/></g><!--link vtag to tss--><g id="link_vtag_tss"><path codeLine="139" d="M585.54,743.0144 C578.76,784.2144 571.0449,831.1141 564.8449,868.7641 " fill="transparent" id="vtag-to-tss" style="stroke:#181818;stroke-width:1;"/><polygon fill="#181818" points="563.87,874.6844,569.2792,866.4539,564.6824,869.7508,561.3855,865.154,563.87,874.6844" style="stroke:#181818;stroke-width:1;"/></g><!--link vtag to pdm--><g id="link_vtag_pdm"><path codeLine="140" d="M651.69,743.0144 C690.51,787.3044 737.1548,840.5226 770.3448,878.3826 " fill="transparent" id="vtag-to-pdm" style="stroke:#181818;stroke-width:1;"/><polygon fill="#181818" points="774.3,882.8944,771.375,873.4899,771.004,879.1346,765.3593,878.7636,774.3,882.8944" style="stroke:#181818;stroke-width:1;"/></g><!--reverse link vstatus to status--><g id="link_vstatus_status"><path codeLine="141" d="M247,1022.6544 C247,1043.2144 247,1052.6244 247,1071.3844 " fill="transparent" id="vstatus-backto-status" style="stroke:#181818;stroke-width:1;"/><polygon fill="#181818" points="247,1010.6544,243,1016.6544,247,1022.6544,251,1016.6544,247,1010.6544" style="stroke:#181818;stroke-width:1;"/></g><!--SRC=[fLVRRjis6BxNKn0fiDbRx69tW-0PI9sc3ROiGUsk5qLXqD9lYp1DQYJbm3qCUuWzuPvaFm-IQ4jDiir1Oedy_lCnXXaEH6TIGPeQjWFozvz_aHcdMfFRFQWzW_iaqLicIgheZgnejjqeMOby9hbKvBvW1gBxp5A-E04zkxgmFnsOL3ce0FdHVPA4mmP4Jemi2OUrIGX-FfF9ir_OfZ2l582O-gExQiLPHjR83kwbsX9pA46Jey_dXlnT0THCsmkoG5j7kTnH9eYX6wADgZAZoQ1qV8V7v4xw2rx1D93VBUw8a8QjMKODao98ZwbFoMTIKHwKlnO6bA2SCFkmffcbpS5GnlNpOQqyEiAx8qc-9QFHY5mrnk9Rufn8pcPSPjl9WcwcPuHgT2s-aiXVv9FJutloIHlKDVj2Ne6v5lWYCXWCIKfQ3W7vgxnt5tD1Irr84uxdrKfdYgrWyd8FmYpGvEaWMrdaNh8yeDuAtOSxGLthYprQIrVSwx2IaXFo_ZSeMCR1HeT8mGyV0lmTPUQjC8otL4PkGPoJofu-oW7TvRu8svLyYMXTK0NviZHgOjCLdJmDYCPDBFXecT6i04jq3tJxD1A9jQDO3byJzIMfmsT0csM5DkWqdMUoXDo5upOmQ0ExgQZAUmFRGpR89AhI9_gROQ3weuzi67jhXrQCh0_FCTV5IC48ewceC5zHtx5QuC4LpOnKXrRtjJzuE2rlwFP1lRkP6lIad8yy4wiesN2vmjAo9n1fwcZhZ9xO_2Wbbj_YdCmHMUc5LrK7HA-kbkhEKhcSRNdKWN2CVEbudXtvxdXonUdcfQXsjKntsYlnMbliHMRO7WPhVAnJlQqZSRXTMv2EKFe4Tf7d5j9mY2hnJbaBfDDQOXjaOeD_0RiqUQzBo1ZbxADlSWf-hnW6veCroxSaZ8MEkr5KViwqlMskllqsDW5Q7XnabGgdbKR9vB9INjPFH50XDM12vFe8qhWTCNPaBTtB99ACQQ2d7PevftkO7qHsIGrz0ncWi_8P9eyTQaVekqlWz703L5SATfZqLqmmNKJeDgoHM6-IDxiEwR7bBZHr7eTSY1XW1sYyKkkFxe1b3dlctPAINEAC0NSx7fE8UkIYXHE9_5vXpCm1lq4n72tZSPCjRu2pewORRbvJ_GBpphgdK5AmZv0FEgasm-9asa38_-Zk3MfvMIlfBYCr7yhYrf6lcT9DsXGzQVD_4wGMuBC31UC01ojCc924skHfwkoNQOfsqlomzFEKYhm7SK3ChaOevCMrTB0z-Z-tjH7s0hjKhIh6pGZNZUEYyggNIkwn_-PaTV0JV8cDbXazBkmMO5SDg2lEhXwUQrHsdVnkUw_HTMUn2qpZJUSORKcM6ccMEHA5gr8giqHjSBAQGmJ7dDwLKSGwPN8ikCntVOBBt58j5UYAcrw9JNDfrYHhALrXMy8vGeuBpvLI61A-z9ZTfqYqTBMZfkRnvMihJeJesr2wg2Sk9bt2EPX7cv9ThhgKk60zXNROA_FHrlQ0pCTfXpPsfu6oTTU9Kl7VejJfkuxn3VxwsE_QvJTcUdCx-tbvytBn-lOojKpFu-YUEqWtaFxyAN7ooAV5fU7wg3SZhlzc89swkt5EyKJdjFM7myBtg8ALTRknFCv-E2FVZKPJzn3gBGshzI2QICC-V762hzloCF4RxdWy3V_4fAJUIw-aidibUOugeJlguwJUAsCQjqOENSij5TlZO28MH0Phd8KY7oP1AQjFi-obkDkOIWbSLPNS-RnBcblKlPdeQRFb9KamVVBPtk-yUBiGryElYEwBdll4RKTMaS2zFS2ktRvW9qrg-LQN04xSb1ohiPzW_m00]--></g></svg>