<svg xmlns="http://www.w3.org/2000/svg" xmlns:xlink="http://www.w3.org/1999/xlink" contentStyleType="text/css" data-diagram-type="CLASS" height="1028px" preserveAspectRatio="none" style="width:1718px;height:1028px;background:#FFFFFF;" version="1.1" viewBox="0 0 1718 1028" width="1718px" zoomAndPan="magnify"><defs/><g><!--cluster score_time::ipc--><g id="cluster_score_time::ipc"><path d="M1191.96,285 L1312.5,285 A3.75,3.75 0 0 1 1315,287.5 L1322,307.2969 L1532.96,307.2969 A2.5,2.5 0 0 1 1535.46,309.7969 L1535.46,1018.5 A2.5,2.5 0 0 1 1532.96,1021 L1191.96,1021 A2.5,2.5 0 0 1 1189.46,1018.5 L1189.46,287.5 A2.5,2.5 0 0 1 1191.96,285 " fill="#FFFFFF" style="stroke:#000000;stroke-width:1;"/><line style="stroke:#000000;stroke-width:1;" x1="1189.46" x2="1322" y1="307.2969" y2="307.2969"/><text fill="#000000" font-family="Verdana" font-size="14" font-weight="bold" lengthAdjust="spacing" textLength="119.54" x="1193.46" y="299.9951">score_time::ipc</text></g><!--cluster score_time::utils--><g id="cluster_score_time::utils"><path d="M130.96,305.5 L262.9707,305.5 A3.75,3.75 0 0 1 265.4707,308 L272.4707,327.7969 L1162.96,327.7969 A2.5,2.5 0 0 1 1165.46,330.2969 L1165.46,471 A2.5,2.5 0 0 1 1162.96,473.5 L130.96,473.5 A2.5,2.5 0 0 1 128.46,471 L128.46,308 A2.5,2.5 0 0 1 130.96,305.5 " fill="#FFFFFF" style="stroke:#000000;stroke-width:1;"/><line style="stroke:#000000;stroke-width:1;" x1="128.46" x2="272.4707" y1="327.7969" y2="327.7969"/><text fill="#000000" font-family="Verdana" font-size="14" font-weight="bold" lengthAdjust="spacing" textLength="131.0107" x="132.46" y="320.4951">score_time::utils</text></g><!--cluster tsyncd--><g id="cluster_tsyncd"><path d="M503.96,11 L557.3985,11 A3.75,3.75 0 0 1 559.8985,13.5 L566.8985,33.2969 L712.96,33.2969 A2.5,2.5 0 0 1 715.46,35.7969 L715.46,233.5 A2.5,2.5 0 0 1 712.96,236 L503.96,236 A2.5,2.5 0 0 1 501.46,233.5 L501.46,13.5 A2.5,2.5 0 0 1 503.96,11 " fill="#FFFFFF" style="stroke:#000000;stroke-width:1;"/><line style="stroke:#000000;stroke-width:1;" x1="501.46" x2="566.8985" y1="33.2969" y2="33.2969"/><text fill="#000000" font-family="Verdana" font-size="14" font-weight="bold" lengthAdjust="spacing" textLength="52.4385" x="505.46" y="25.9951">tsyncd</text></g><!--class SharedState--><g id="elem_SharedState"><rect codeLine="4" fill="#FFFFFF" height="231.2656" id="SharedState" rx="2.5" ry="2.5" style="stroke:#000000;stroke-width:1;" width="314.001" x="1205.46" y="555"/><ellipse cx="1315.3843" cy="569" fill="#FFFFFF" rx="9" ry="9" style="stroke:#000000;stroke-width:1;"/><path d="M1318.3531,574.6406 Q1317.7749,574.9375 1317.1343,575.0781 Q1316.4937,575.2344 1315.7906,575.2344 Q1313.2906,575.2344 1311.9624,573.5938 Q1310.6499,571.9375 1310.6499,568.8125 Q1310.6499,565.6875 1311.9624,564.0313 Q1313.2906,562.375 1315.7906,562.375 Q1316.4937,562.375 1317.1343,562.5313 Q1317.7906,562.6875 1318.3531,562.9844 L1318.3531,565.7031 Q1317.7281,565.125 1317.1343,564.8594 Q1316.5406,564.5781 1315.9156,564.5781 Q1314.5718,564.5781 1313.8843,565.6563 Q1313.1968,566.7188 1313.1968,568.8125 Q1313.1968,570.9063 1313.8843,571.9844 Q1314.5718,573.0469 1315.9156,573.0469 Q1316.5406,573.0469 1317.1343,572.7813 Q1317.7281,572.5 1318.3531,571.9219 L1318.3531,574.6406 Z " fill="#000000"/><text fill="#000000" font-family="Verdana" font-size="14" lengthAdjust="spacing" textLength="86.6523" x="1332.8843" y="573.8467">SharedState</text><line style="stroke:#000000;stroke-width:1;" x1="1206.46" x2="1518.461" y1="583" y2="583"/><ellipse cx="1216.46" cy="596.6484" fill="transparent" rx="3" ry="3" style="stroke:#000000;stroke-width:1;"/><text fill="#000000" font-family="Verdana" font-size="14" lengthAdjust="spacing" text-decoration="underline" textLength="115.835" x="1223.46" y="599.9951">kMagic: uint32_t</text><ellipse cx="1216.46" cy="612.9453" fill="transparent" rx="3" ry="3" style="stroke:#000000;stroke-width:1;"/><text fill="#000000" font-family="Verdana" font-size="14" lengthAdjust="spacing" text-decoration="underline" textLength="127.2715" x="1223.46" y="616.292">kVersion: uint16_t</text><line style="stroke:#000000;stroke-width:1;" x1="1206.46" x2="1518.461" y1="623.5938" y2="623.5938"/><ellipse cx="1216.46" cy="637.2422" fill="transparent" rx="3" ry="3" style="stroke:#000000;stroke-width:1;"/><text fill="#000000" font-family="Verdana" font-size="14" lengthAdjust="spacing" textLength="180.6055" x="1223.46" y="640.5889">magic: atomic&lt;uint32_t&gt;</text><ellipse cx="1216.46" cy="653.5391" fill="transparent" rx="3" ry="3" style="stroke:#000000;stroke-width:1;"/><text fill="#000000" font-family="Verdana" font-size="14" lengthAdjust="spacing" textLength="189.1914" x="1223.46" y="656.8857">version: atomic&lt;uint16_t&gt;</text><ellipse cx="1216.46" cy="669.8359" fill="transparent" rx="3" ry="3" style="stroke:#000000;stroke-width:1;"/><text fill="#000000" font-family="Verdana" font-size="14" lengthAdjust="spacing" textLength="219.5703" x="1223.46" y="673.1826">vehicle_seq: atomic&lt;uint64_t&gt;</text><ellipse cx="1216.46" cy="686.1328" fill="transparent" rx="3" ry="3" style="stroke:#000000;stroke-width:1;"/><text fill="#000000" font-family="Verdana" font-size="14" lengthAdjust="spacing" textLength="242.4434" x="1223.46" y="689.4795">vehicle_base_ns: atomic&lt;int64_t&gt;</text><ellipse cx="1216.46" cy="702.4297" fill="transparent" rx="3" ry="3" style="stroke:#000000;stroke-width:1;"/><text fill="#000000" font-family="Verdana" font-size="14" lengthAdjust="spacing" textLength="289.085" x="1223.46" y="705.7764">vehicle_base_mono_ns: atomic&lt;int64_t&gt;</text><ellipse cx="1216.46" cy="718.7266" fill="transparent" rx="3" ry="3" style="stroke:#000000;stroke-width:1;"/><text fill="#000000" font-family="Verdana" font-size="14" lengthAdjust="spacing" textLength="284.9219" x="1223.46" y="722.0732">vehicle_acc: atomic&lt;AccuracyQualifier&gt;</text><ellipse cx="1216.46" cy="735.0234" fill="transparent" rx="3" ry="3" style="stroke:#000000;stroke-width:1;"/><text fill="#000000" font-family="Verdana" font-size="14" lengthAdjust="spacing" textLength="290.001" x="1223.46" y="738.3701">vehicle_tpq: atomic&lt;TimePointQualifier&gt;</text><line style="stroke:#000000;stroke-width:1;" x1="1206.46" x2="1518.461" y1="745.6719" y2="745.6719"/><ellipse cx="1216.46" cy="759.3203" fill="transparent" rx="3" ry="3" style="stroke:#000000;stroke-width:1;"/><text fill="#000000" font-family="Verdana" font-size="14" lengthAdjust="spacing" textLength="221.2588" x="1223.46" y="762.667">vehicle_log[256]: SyncLogEntry</text><ellipse cx="1216.46" cy="775.6172" fill="transparent" rx="3" ry="3" style="stroke:#000000;stroke-width:1;"/><text fill="#000000" font-family="Verdana" font-size="14" lengthAdjust="spacing" textLength="196.1572" x="1223.46" y="778.9639">abs_log[256]: SyncLogEntry</text></g><!--class SyncLogEntry--><g id="elem_SyncLogEntry"><rect codeLine="20" fill="#FFFFFF" height="141.7813" id="SyncLogEntry" rx="2.5" ry="2.5" style="stroke:#000000;stroke-width:1;" width="250.3652" x="1237.46" y="863"/><ellipse cx="1310.771" cy="877" fill="#FFFFFF" rx="9" ry="9" style="stroke:#000000;stroke-width:1;"/><path d="M1313.7398,882.6406 Q1313.1617,882.9375 1312.521,883.0781 Q1311.8804,883.2344 1311.1773,883.2344 Q1308.6773,883.2344 1307.3492,881.5938 Q1306.0367,879.9375 1306.0367,876.8125 Q1306.0367,873.6875 1307.3492,872.0313 Q1308.6773,870.375 1311.1773,870.375 Q1311.8804,870.375 1312.521,870.5313 Q1313.1773,870.6875 1313.7398,870.9844 L1313.7398,873.7031 Q1313.1148,873.125 1312.521,872.8594 Q1311.9273,872.5781 1311.3023,872.5781 Q1309.9585,872.5781 1309.271,873.6563 Q1308.5835,874.7188 1308.5835,876.8125 Q1308.5835,878.9063 1309.271,879.9844 Q1309.9585,881.0469 1311.3023,881.0469 Q1311.9273,881.0469 1312.521,880.7813 Q1313.1148,880.5 1313.7398,879.9219 L1313.7398,882.6406 Z " fill="#000000"/><text fill="#000000" font-family="Verdana" font-size="14" lengthAdjust="spacing" textLength="96.2432" x="1328.271" y="881.8467">SyncLogEntry</text><line style="stroke:#000000;stroke-width:1;" x1="1238.46" x2="1486.8252" y1="891" y2="891"/><ellipse cx="1248.46" cy="904.6484" fill="transparent" rx="3" ry="3" style="stroke:#000000;stroke-width:1;"/><text fill="#000000" font-family="Verdana" font-size="14" lengthAdjust="spacing" textLength="162.709" x="1255.46" y="907.9951">seq: atomic&lt;uint64_t&gt;</text><ellipse cx="1248.46" cy="920.9453" fill="transparent" rx="3" ry="3" style="stroke:#000000;stroke-width:1;"/><text fill="#000000" font-family="Verdana" font-size="14" lengthAdjust="spacing" textLength="226.3652" x="1255.46" y="924.292">monotonic_ns: atomic&lt;int64_t&gt;</text><ellipse cx="1248.46" cy="937.2422" fill="transparent" rx="3" ry="3" style="stroke:#000000;stroke-width:1;"/><text fill="#000000" font-family="Verdana" font-size="14" lengthAdjust="spacing" textLength="169.1895" x="1255.46" y="940.5889">type: atomic&lt;uint16_t&gt;</text><ellipse cx="1248.46" cy="953.5391" fill="transparent" rx="3" ry="3" style="stroke:#000000;stroke-width:1;"/><text fill="#000000" font-family="Verdana" font-size="14" lengthAdjust="spacing" textLength="171.4932" x="1255.46" y="956.8857">flags: atomic&lt;uint16_t&gt;</text><ellipse cx="1248.46" cy="969.8359" fill="transparent" rx="3" ry="3" style="stroke:#000000;stroke-width:1;"/><text fill="#000000" font-family="Verdana" font-size="14" lengthAdjust="spacing" textLength="146.2344" x="1255.46" y="973.1826">v1: atomic&lt;int64_t&gt;</text><ellipse cx="1248.46" cy="986.1328" fill="transparent" rx="3" ry="3" style="stroke:#000000;stroke-width:1;"/><text fill="#000000" font-family="Verdana" font-size="14" lengthAdjust="spacing" textLength="146.2344" x="1255.46" y="989.4795">v2: atomic&lt;int64_t&gt;</text><line style="stroke:#000000;stroke-width:1;" x1="1238.46" x2="1486.8252" y1="996.7813" y2="996.7813"/></g><!--class ShmRegion--><g id="elem_ShmRegion"><rect codeLine="29" fill="#FFFFFF" height="158.0781" id="ShmRegion" rx="2.5" ry="2.5" style="stroke:#000000;stroke-width:1;" width="151.0938" x="1245.96" y="320"/><ellipse cx="1278.3733" cy="334" fill="#FFFFFF" rx="9" ry="9" style="stroke:#000000;stroke-width:1;"/><path d="M1281.342,339.6406 Q1280.7639,339.9375 1280.1233,340.0781 Q1279.4827,340.2344 1278.7795,340.2344 Q1276.2795,340.2344 1274.9514,338.5938 Q1273.6389,336.9375 1273.6389,333.8125 Q1273.6389,330.6875 1274.9514,329.0313 Q1276.2795,327.375 1278.7795,327.375 Q1279.4827,327.375 1280.1233,327.5313 Q1280.7795,327.6875 1281.342,327.9844 L1281.342,330.7031 Q1280.717,330.125 1280.1233,329.8594 Q1279.5295,329.5781 1278.9045,329.5781 Q1277.5608,329.5781 1276.8733,330.6563 Q1276.1858,331.7188 1276.1858,333.8125 Q1276.1858,335.9063 1276.8733,336.9844 Q1277.5608,338.0469 1278.9045,338.0469 Q1279.5295,338.0469 1280.1233,337.7813 Q1280.717,337.5 1281.342,336.9219 L1281.342,339.6406 Z " fill="#000000"/><text fill="#000000" font-family="Verdana" font-size="14" lengthAdjust="spacing" textLength="79.9531" x="1294.6873" y="338.8467">ShmRegion</text><line style="stroke:#000000;stroke-width:1;" x1="1246.96" x2="1396.0538" y1="348" y2="348"/><rect fill="transparent" height="6" style="stroke:#000000;stroke-width:1;" width="6" x="1253.96" y="358.6484"/><text fill="#000000" font-family="Verdana" font-size="14" lengthAdjust="spacing" textLength="48.2344" x="1263.96" y="364.9951">fd_: int</text><rect fill="transparent" height="6" style="stroke:#000000;stroke-width:1;" width="6" x="1253.96" y="374.9453"/><text fill="#000000" font-family="Verdana" font-size="14" lengthAdjust="spacing" textLength="84.9023" x="1263.96" y="381.292">addr_: void*</text><rect fill="transparent" height="6" style="stroke:#000000;stroke-width:1;" width="6" x="1253.96" y="391.2422"/><text fill="#000000" font-family="Verdana" font-size="14" lengthAdjust="spacing" textLength="82.9473" x="1263.96" y="397.5889">size_: size_t</text><line style="stroke:#000000;stroke-width:1;" x1="1246.96" x2="1396.0538" y1="404.8906" y2="404.8906"/><ellipse cx="1256.96" cy="418.5391" fill="#FFFFFF" rx="3" ry="3" style="stroke:#000000;stroke-width:1;"/><text fill="#000000" font-family="Verdana" font-size="14" lengthAdjust="spacing" textLength="127.0938" x="1263.96" y="421.8857">Open(name): bool</text><ellipse cx="1256.96" cy="434.8359" fill="#FFFFFF" rx="3" ry="3" style="stroke:#000000;stroke-width:1;"/><text fill="#000000" font-family="Verdana" font-size="14" lengthAdjust="spacing" textLength="87.8555" x="1263.96" y="438.1826">Close(): void</text><ellipse cx="1256.96" cy="451.1328" fill="#FFFFFF" rx="3" ry="3" style="stroke:#000000;stroke-width:1;"/><text fill="#000000" font-family="Verdana" font-size="14" lengthAdjust="spacing" textLength="89.8242" x="1263.96" y="454.4795">Addr(): void*</text><ellipse cx="1256.96" cy="467.4297" fill="#FFFFFF" rx="3" ry="3" style="stroke:#000000;stroke-width:1;"/><text fill="#000000" font-family="Verdana" font-size="14" lengthAdjust="spacing" textLength="88.4639" x="1263.96" y="470.7764">Size(): size_t</text></g><!--class PthreadLockGuard--><g id="elem_PthreadLockGuard"><rect codeLine="45" fill="#FFFFFF" height="117.1875" id="PthreadLockGuard" rx="2.5" ry="2.5" style="stroke:#000000;stroke-width:1;" width="194.0508" x="144.46" y="340.5"/><ellipse cx="173.794" cy="354.5" fill="#FFFFFF" rx="9" ry="9" style="stroke:#000000;stroke-width:1;"/><path d="M176.7628,360.1406 Q176.1847,360.4375 175.544,360.5781 Q174.9034,360.7344 174.2003,360.7344 Q171.7003,360.7344 170.3722,359.0938 Q169.0597,357.4375 169.0597,354.3125 Q169.0597,351.1875 170.3722,349.5313 Q171.7003,347.875 174.2003,347.875 Q174.9034,347.875 175.544,348.0313 Q176.2003,348.1875 176.7628,348.4844 L176.7628,351.2031 Q176.1378,350.625 175.544,350.3594 Q174.9503,350.0781 174.3253,350.0781 Q172.9815,350.0781 172.294,351.1563 Q171.6065,352.2188 171.6065,354.3125 Q171.6065,356.4063 172.294,357.4844 Q172.9815,358.5469 174.3253,358.5469 Q174.9503,358.5469 175.544,358.2813 Q176.1378,358 176.7628,357.4219 L176.7628,360.1406 Z " fill="#000000"/><text fill="#000000" font-family="Verdana" font-size="14" lengthAdjust="spacing" textLength="129.7529" x="189.4238" y="359.3467">PthreadLockGuard</text><line style="stroke:#000000;stroke-width:1;" x1="145.46" x2="337.5108" y1="368.5" y2="368.5"/><rect fill="transparent" height="6" style="stroke:#000000;stroke-width:1;" width="6" x="152.46" y="379.1484"/><text fill="#000000" font-family="Verdana" font-size="14" lengthAdjust="spacing" textLength="170.0508" x="162.46" y="385.4951">mtx_: pthread_mutex_t*</text><line style="stroke:#000000;stroke-width:1;" x1="145.46" x2="337.5108" y1="392.7969" y2="392.7969"/><ellipse cx="155.46" cy="406.4453" fill="#FFFFFF" rx="3" ry="3" style="stroke:#000000;stroke-width:1;"/><text fill="#000000" font-family="Verdana" font-size="14" lengthAdjust="spacing" textLength="168.0889" x="162.46" y="409.792">PthreadLockGuard(mtx)</text><ellipse cx="155.46" cy="422.7422" fill="#FFFFFF" rx="3" ry="3" style="stroke:#000000;stroke-width:1;"/><text fill="#000000" font-family="Verdana" font-size="14" lengthAdjust="spacing" textLength="152.4072" x="162.46" y="426.0889">~PthreadLockGuard()</text><line style="stroke:#000000;stroke-width:1;" x1="145.46" x2="337.5108" y1="433.3906" y2="433.3906"/><text fill="#000000" font-family="Verdana" font-size="14" lengthAdjust="spacing" textLength="145.4893" x="150.46" y="450.3857">Deleted: copy, move</text></g><!--class ParseInt--><g id="elem_ParseInt"><rect codeLine="54" fill="#FFFFFF" height="60.2969" id="ParseInt" rx="2.5" ry="2.5" style="stroke:#000000;stroke-width:1;" width="213.4102" x="621.96" y="369"/><ellipse cx="674.7276" cy="383" fill="#FFFFFF" rx="9" ry="9" style="stroke:#000000;stroke-width:1;"/><path d="M677.6963,388.6406 Q677.1182,388.9375 676.4776,389.0781 Q675.837,389.2344 675.1338,389.2344 Q672.6338,389.2344 671.3057,387.5938 Q669.9932,385.9375 669.9932,382.8125 Q669.9932,379.6875 671.3057,378.0313 Q672.6338,376.375 675.1338,376.375 Q675.837,376.375 676.4776,376.5313 Q677.1338,376.6875 677.6963,376.9844 L677.6963,379.7031 Q677.0713,379.125 676.4776,378.8594 Q675.8838,378.5781 675.2588,378.5781 Q673.9151,378.5781 673.2276,379.6563 Q672.5401,380.7188 672.5401,382.8125 Q672.5401,384.9063 673.2276,385.9844 Q673.9151,387.0469 675.2588,387.0469 Q675.8838,387.0469 676.4776,386.7813 Q677.0713,386.5 677.6963,385.9219 L677.6963,388.6406 Z " fill="#000000"/><text fill="#000000" font-family="Verdana" font-size="14" lengthAdjust="spacing" textLength="89.0449" x="692.2276" y="387.8467">ParseInteger</text><rect fill="#FFFFFF" height="15.9688" style="stroke:#000000;stroke-width:1;stroke-dasharray:2.0,2.0;" width="9.3301" x="829.0401" y="366"/><text fill="#000000" font-family="Verdana" font-size="12" font-style="italic" lengthAdjust="spacing" textLength="7.3301" x="830.0401" y="378.1387">T</text><line style="stroke:#000000;stroke-width:1;" x1="622.96" x2="834.3702" y1="397" y2="397"/><line style="stroke:#000000;stroke-width:1;" x1="622.96" x2="834.3702" y1="405" y2="405"/><ellipse cx="632.96" cy="418.6484" fill="#FFFFFF" rx="3" ry="3" style="stroke:#000000;stroke-width:1;"/><text fill="#000000" font-family="Verdana" font-size="14" lengthAdjust="spacing" text-decoration="underline" textLength="189.4102" x="639.96" y="421.9951">ParseInteger(str, out): bool</text></g><!--class ParseDouble--><g id="elem_ParseDouble"><rect codeLine="58" fill="#FFFFFF" height="60.2969" id="ParseDouble" rx="2.5" ry="2.5" style="stroke:#000000;stroke-width:1;" width="212.6582" x="373.96" y="369"/><ellipse cx="432.3926" cy="383" fill="#FFFFFF" rx="9" ry="9" style="stroke:#000000;stroke-width:1;"/><path d="M435.3614,388.6406 Q434.7832,388.9375 434.1426,389.0781 Q433.502,389.2344 432.7989,389.2344 Q430.2989,389.2344 428.9707,387.5938 Q427.6582,385.9375 427.6582,382.8125 Q427.6582,379.6875 428.9707,378.0313 Q430.2989,376.375 432.7989,376.375 Q433.502,376.375 434.1426,376.5313 Q434.7989,376.6875 435.3614,376.9844 L435.3614,379.7031 Q434.7364,379.125 434.1426,378.8594 Q433.5489,378.5781 432.9239,378.5781 Q431.5801,378.5781 430.8926,379.6563 Q430.2051,380.7188 430.2051,382.8125 Q430.2051,384.9063 430.8926,385.9844 Q431.5801,387.0469 432.9239,387.0469 Q433.5489,387.0469 434.1426,386.7813 Q434.7364,386.5 435.3614,385.9219 L435.3614,388.6406 Z " fill="#000000"/><text fill="#000000" font-family="Verdana" font-size="14" lengthAdjust="spacing" textLength="88.293" x="449.8926" y="387.8467">ParseDouble</text><line style="stroke:#000000;stroke-width:1;" x1="374.96" x2="585.6182" y1="397" y2="397"/><line style="stroke:#000000;stroke-width:1;" x1="374.96" x2="585.6182" y1="405" y2="405"/><ellipse cx="384.96" cy="418.6484" fill="#FFFFFF" rx="3" ry="3" style="stroke:#000000;stroke-width:1;"/><text fill="#000000" font-family="Verdana" font-size="14" lengthAdjust="spacing" text-decoration="underline" textLength="188.6582" x="391.96" y="421.9951">ParseDouble(str, out): bool</text></g><!--class ClockNs--><g id="elem_ClockNs"><rect codeLine="62" fill="#FFFFFF" height="76.5938" id="ClockNs" rx="2.5" ry="2.5" style="stroke:#000000;stroke-width:1;" width="279.3496" x="869.96" y="360.5"/><ellipse cx="977.9839" cy="374.5" fill="#FFFFFF" rx="9" ry="9" style="stroke:#000000;stroke-width:1;"/><path d="M980.9527,380.1406 Q980.3746,380.4375 979.7339,380.5781 Q979.0933,380.7344 978.3902,380.7344 Q975.8902,380.7344 974.5621,379.0938 Q973.2496,377.4375 973.2496,374.3125 Q973.2496,371.1875 974.5621,369.5313 Q975.8902,367.875 978.3902,367.875 Q979.0933,367.875 979.7339,368.0313 Q980.3902,368.1875 980.9527,368.4844 L980.9527,371.2031 Q980.3277,370.625 979.7339,370.3594 Q979.1402,370.0781 978.5152,370.0781 Q977.1714,370.0781 976.4839,371.1563 Q975.7964,372.2188 975.7964,374.3125 Q975.7964,376.4063 976.4839,377.4844 Q977.1714,378.5469 978.5152,378.5469 Q979.1402,378.5469 979.7339,378.2813 Q980.3277,378 980.9527,377.4219 L980.9527,380.1406 Z " fill="#000000"/><text fill="#000000" font-family="Verdana" font-size="14" lengthAdjust="spacing" textLength="55.8018" x="995.4839" y="379.3467">ClockNs</text><line style="stroke:#000000;stroke-width:1;" x1="870.96" x2="1148.3096" y1="388.5" y2="388.5"/><line style="stroke:#000000;stroke-width:1;" x1="870.96" x2="1148.3096" y1="396.5" y2="396.5"/><ellipse cx="880.96" cy="410.1484" fill="#FFFFFF" rx="3" ry="3" style="stroke:#000000;stroke-width:1;"/><text fill="#000000" font-family="Verdana" font-size="14" lengthAdjust="spacing" text-decoration="underline" textLength="255.3496" x="887.96" y="413.4951">ClockNsSafe(clk): optional&lt;int64_t&gt;</text><ellipse cx="880.96" cy="426.4453" fill="#FFFFFF" rx="3" ry="3" style="stroke:#000000;stroke-width:1;"/><text fill="#000000" font-family="Verdana" font-size="14" lengthAdjust="spacing" text-decoration="underline" textLength="144.1426" x="887.96" y="429.792">ClockNs(clk): int64_t</text></g><!--class TimeSyncEngine--><g id="elem_TimeSyncEngine"><rect codeLine="69" fill="#FFFFFF" height="174.375" id="TimeSyncEngine" rx="2.5" ry="2.5" style="stroke:#000000;stroke-width:1;" width="181.8213" x="517.46" y="46"/><ellipse cx="547.2924" cy="60" fill="#FFFFFF" rx="9" ry="9" style="stroke:#000000;stroke-width:1;"/><path d="M550.2611,65.6406 Q549.683,65.9375 549.0424,66.0781 Q548.4017,66.2344 547.6986,66.2344 Q545.1986,66.2344 543.8705,64.5938 Q542.558,62.9375 542.558,59.8125 Q542.558,56.6875 543.8705,55.0313 Q545.1986,53.375 547.6986,53.375 Q548.4017,53.375 549.0424,53.5313 Q549.6986,53.6875 550.2611,53.9844 L550.2611,56.7031 Q549.6361,56.125 549.0424,55.8594 Q548.4486,55.5781 547.8236,55.5781 Q546.4799,55.5781 545.7924,56.6563 Q545.1049,57.7188 545.1049,59.8125 Q545.1049,61.9063 545.7924,62.9844 Q546.4799,64.0469 547.8236,64.0469 Q548.4486,64.0469 549.0424,63.7813 Q549.6361,63.5 550.2611,62.9219 L550.2611,65.6406 Z " fill="#000000"/><text fill="#000000" font-family="Verdana" font-size="14" lengthAdjust="spacing" textLength="116.416" x="563.0329" y="64.8467">TimeSyncEngine</text><line style="stroke:#000000;stroke-width:1;" x1="518.46" x2="698.2813" y1="74" y2="74"/><rect fill="transparent" height="6" style="stroke:#000000;stroke-width:1;" width="6" x="525.46" y="84.6484"/><text fill="#000000" font-family="Verdana" font-size="14" lengthAdjust="spacing" textLength="92.7295" x="535.46" y="90.9951">ctx_: Context</text><rect fill="transparent" height="6" style="stroke:#000000;stroke-width:1;" width="6" x="525.46" y="100.9453"/><text fill="#000000" font-family="Verdana" font-size="14" lengthAdjust="spacing" textLength="157.8213" x="535.46" y="107.292">shared_: SharedState*</text><rect fill="transparent" height="6" style="stroke:#000000;stroke-width:1;" width="6" x="525.46" y="117.2422"/><text fill="#000000" font-family="Verdana" font-size="14" lengthAdjust="spacing" textLength="125.9248" x="535.46" y="123.5889">shm_: ShmRegion</text><line style="stroke:#000000;stroke-width:1;" x1="518.46" x2="698.2813" y1="130.8906" y2="130.8906"/><ellipse cx="528.46" cy="144.5391" fill="#FFFFFF" rx="3" ry="3" style="stroke:#000000;stroke-width:1;"/><text fill="#000000" font-family="Verdana" font-size="14" lengthAdjust="spacing" textLength="84.1982" x="535.46" y="147.8857">Start(): bool</text><ellipse cx="528.46" cy="160.8359" fill="#FFFFFF" rx="3" ry="3" style="stroke:#000000;stroke-width:1;"/><text fill="#000000" font-family="Verdana" font-size="14" lengthAdjust="spacing" textLength="81.5459" x="535.46" y="164.1826">Stop(): void</text><rect fill="#FFFFFF" height="6" style="stroke:#000000;stroke-width:1;" width="6" x="525.46" y="174.1328"/><text fill="#000000" font-family="Verdana" font-size="14" lengthAdjust="spacing" textLength="101.5479" x="535.46" y="180.4795">RxLoop(): void</text><rect fill="#FFFFFF" height="6" style="stroke:#000000;stroke-width:1;" width="6" x="525.46" y="190.4297"/><text fill="#000000" font-family="Verdana" font-size="14" lengthAdjust="spacing" textLength="130.2314" x="535.46" y="196.7764">PdelayLoop(): void</text><rect fill="#FFFFFF" height="6" style="stroke:#000000;stroke-width:1;" width="6" x="525.46" y="206.7266"/><text fill="#000000" font-family="Verdana" font-size="14" lengthAdjust="spacing" textLength="109.293" x="535.46" y="213.0732">AbsLoop(): void</text></g><g id="elem_GMN19"><path d="M1554.96,643 L1554.96,666.5 L1519.66,670.5 L1554.96,674.5 L1554.96,698.3984 A0,0 0 0 0 1554.96,698.3984 L1711.5904,698.3984 A0,0 0 0 0 1711.5904,698.3984 L1711.5904,653 L1701.5904,643 L1554.96,643 A0,0 0 0 0 1554.96,643 " fill="#FFFFFF" style="stroke:#000000;stroke-width:1;"/><path d="M1701.5904,643 L1701.5904,653 L1711.5904,653 L1701.5904,643 " fill="#FFFFFF" style="stroke:#000000;stroke-width:1;"/><text fill="#000000" font-family="Verdana" font-size="13" lengthAdjust="spacing" textLength="112.5693" x="1560.96" y="660.0669">Seqlock protocol:</text><text fill="#000000" font-family="Verdana" font-size="13" lengthAdjust="spacing" textLength="115.5591" x="1560.96" y="675.1997">seq odd = writing</text><text fill="#000000" font-family="Verdana" font-size="13" lengthAdjust="spacing" textLength="135.6304" x="1560.96" y="690.3325">seq even = readable</text></g><g id="elem_GMN22"><path d="M1551.96,379 L1551.96,419.2656 L1686.8496,419.2656 L1686.8496,389 L1676.8496,379 L1551.96,379 " fill="#FFFFFF" style="stroke:#000000;stroke-width:1;"/><path d="M1676.8496,379 L1676.8496,389 L1686.8496,389 L1676.8496,379 " fill="#FFFFFF" style="stroke:#000000;stroke-width:1;"/><text fill="#000000" font-family="Verdana" font-size="13" lengthAdjust="spacing" textLength="113.8896" x="1557.96" y="396.0669">RAII lock wrapper</text><text fill="#000000" font-family="Verdana" font-size="13" lengthAdjust="spacing" textLength="98.7568" x="1557.96" y="411.1997">Aborts on error</text></g><!--reverse link SharedState to SyncLogEntry--><g id="link_SharedState_SyncLogEntry"><path codeLine="40" d="M1362.46,798.2 C1362.46,824.27 1362.46,839.21 1362.46,862.78 " fill="transparent" id="SharedState-backto-SyncLogEntry" style="stroke:#000000;stroke-width:1;"/><polygon fill="#000000" points="1362.46,786.2,1358.46,792.2,1362.46,798.2,1366.46,792.2,1362.46,786.2" style="stroke:#000000;stroke-width:1;"/><text fill="#000000" font-family="Verdana" font-size="13" lengthAdjust="spacing" textLength="55.0278" x="1363.46" y="829.0669">contains</text><text fill="#000000" font-family="Verdana" font-size="13" lengthAdjust="spacing" textLength="24.813" x="1337.2456" y="851.747">512</text></g><!--link ShmRegion to SharedState--><g id="link_ShmRegion_SharedState"><path codeLine="41" d="M1333.37,478.31 C1337.02,502.25 1340.1972,523.1483 1344.1272,548.9683 " fill="transparent" id="ShmRegion-to-SharedState" style="stroke:#000000;stroke-width:1;stroke-dasharray:7.0,7.0;"/><polygon fill="#000000" points="1345.03,554.9,1347.6302,545.4006,1344.2776,549.9569,1339.7213,546.6044,1345.03,554.9" style="stroke:#000000;stroke-width:1;"/><text fill="#000000" font-family="Verdana" font-size="13" lengthAdjust="spacing" textLength="52.8379" x="1340.46" y="521.0669">maps to</text></g><!--link TimeSyncEngine to SharedState--><g id="link_TimeSyncEngine_SharedState"><path codeLine="82" d="M517.31,144.88 C378.53,163.54 124.62,206.56 70.46,277 C15.06,349.05 11,412.76 70.46,481.5 C143.89,566.38 871.0881,631.9942 1199.1881,657.5442 " fill="transparent" id="TimeSyncEngine-to-SharedState" style="stroke:#000000;stroke-width:1;"/><polygon fill="#000000" points="1205.17,658.01,1196.5077,653.3233,1200.1851,657.6218,1195.8866,661.2992,1205.17,658.01" style="stroke:#000000;stroke-width:1;"/><text fill="#000000" font-family="Verdana" font-size="13" lengthAdjust="spacing" textLength="56.6401" x="71.46" y="403.5669">writes to</text></g><!--link TimeSyncEngine to ShmRegion--><g id="link_TimeSyncEngine_ShmRegion"><path codeLine="83" d="M699.7,145.76 C813.4,162.98 1011.47,201.57 1165.46,277 C1193.62,290.8 1216.8841,306.4679 1241.1841,325.6879 " fill="transparent" id="TimeSyncEngine-to-ShmRegion" style="stroke:#000000;stroke-width:1;"/><polygon fill="#000000" points="1245.89,329.41,1241.3125,320.6895,1241.9684,326.3082,1236.3497,326.9641,1245.89,329.41" style="stroke:#000000;stroke-width:1;"/><text fill="#000000" font-family="Verdana" font-size="13" lengthAdjust="spacing" textLength="33.5981" x="1138.46" y="265.0669">owns</text></g><!--link TimeSyncEngine to PthreadLockGuard--><g id="link_TimeSyncEngine_PthreadLockGuard"><path codeLine="84" d="M517.25,177.44 C467.49,203.13 406.1,238.2 356.46,277 C332.71,295.56 313.3248,314.5784 293.8748,335.8884 " fill="transparent" id="TimeSyncEngine-to-PthreadLockGuard" style="stroke:#000000;stroke-width:1;stroke-dasharray:7.0,7.0;"/><polygon fill="#000000" points="289.83,340.32,298.8517,336.3691,293.2007,336.627,292.9428,330.976,289.83,340.32" style="stroke:#000000;stroke-width:1;"/><text fill="#000000" font-family="Verdana" font-size="13" lengthAdjust="spacing" textLength="29.7832" x="388.46" y="265.0669">uses</text></g><!--link TimeSyncEngine to ClockNs--><g id="link_TimeSyncEngine_ClockNs"><path codeLine="85" d="M699.65,183.81 C746.24,210.16 803.31,243.85 852.46,277 C891.26,303.17 928.475,331.919 959.215,356.649 " fill="transparent" id="TimeSyncEngine-to-ClockNs" style="stroke:#000000;stroke-width:1;stroke-dasharray:7.0,7.0;"/><polygon fill="#000000" points="963.89,360.41,959.3849,351.6519,959.9942,357.2759,954.3703,357.8852,963.89,360.41" style="stroke:#000000;stroke-width:1;"/><text fill="#000000" font-family="Verdana" font-size="13" lengthAdjust="spacing" textLength="29.7832" x="840.46" y="265.0669">uses</text></g><!--link PthreadLockGuard to GMN22--><g id="link_PthreadLockGuard_GMN22"><path d="M278.84,340.46 C302.03,310.04 334.84,276.04 373.96,260.5 C403.5,248.77 1488.43,248.77 1517.96,260.5 C1569.91,281.13 1600.21,345.84 1612.71,378.99 " fill="transparent" id="PthreadLockGuard-GMN22" style="stroke:#000000;stroke-width:1;stroke-dasharray:7.0,7.0;"/></g><!--SRC=[bLLDRzf04BtpAxO-GH972croiD98A8cgI6bBGzHBLQ5bFTWhx5rdTqoW4Vtj7HiJhurBMb-Gthnvi_F9EumX1PObNAfUB-DYmIDWdXNQm1Hb2a4WC-6nbnwZJoJSMZQ9kO5mWXoXmellUF6PHr84B9SAtm-do5uiKQJOE9JlOApKQaiwk-WY-NxDJxUA77KgnULE-AecB7Tw3gMGRL1YAHAOMdXgq2u-TD9ctC9KsLVg6ynKA_rlT2xgJ4P2v8QBzRUS9t8kmNJmCQlV-qYD66lIxd1mwxNpJNJqOtX-yJDWaxKIzpgwLMZMDO_Fx27EfkTssx6wxNwZdaLXK2if3bS7rnaSwjuyuP4zsDwpGxKVTXkR2SRf0qGqHKvs_ZoS1enyQeI7eI5igMLuLADM_W92on_ixCdN35HVyHG60PjfdTIMwqHRw0-scZKyea0xj8vqFA4G1Uo4gj9mz_78zvbtVZRqcdqBcD0AQSTjvR5B-VJqgk4VC2_bcMMelTxcBmSXHvdOvaaOOso0X_TQB3xbt8HkALDSKOMoBMEQvWYhAHvrrgejqoVVGMt-lMSVTCcyf82n3ZVi1X9028lai_K9I_KIzjllZRcnSASG8Z2NZrSUuvHFXRa3x_Bw5iq9qpbMJMsUiOP-wNQZyra2UsfR-3_4Q6J4uejrXIfemkVG5yc2D7I6r5gUlCvynoMkl2gFYjWEx0u0MfgdiDdruYmLOtQh8gdSx7nHzloQPWvMpbhOSjB8ueoSkqnnMjgguUmS4V8nsD_RfGdgR6-L_8VLlUx2no4aVDrj6ytidg4iHIjRtszlphEH2CNgT5DtAqSDUgOzR76AHTpR8lgVjD19tGr2nUZHiGLcP1GZqtFtNVJ-2JmLR9OPkiX29m5XTBsP3aFsiNorL565mH8KWSKpE8rc3rJ82krsXFPJoVrXT7V7oa3FXcSP6C96CstGCieQZD6cbli3]--></g></svg>