<svg xmlns="http://www.w3.org/2000/svg" xmlns:xlink="http://www.w3.org/1999/xlink" contentStyleType="text/css" data-diagram-type="SEQUENCE" height="1023px" preserveAspectRatio="none" style="width:1430px;height:1023px;background:#FFFFFF;" version="1.1" viewBox="0 0 1430 1023" width="1430px" zoomAndPan="magnify"><title>ShmPTPEngine: Initialization Sequence</title><defs/><g><text fill="#000000" font-family="Verdana" font-size="22" font-weight="bold" lengthAdjust="spacing" textLength="486.9434" x="470.4641" y="35.4209">ShmPTPEngine: Initialization Sequence</text><g><title>TimeBaseHandler</title><rect fill="#FFFFFF" height="130.1875" style="stroke:#000000;stroke-width:1;" width="10" x="83.9541" y="273.6563"/></g><g><title>TimeBaseHandler</title><rect fill="#FFFFFF" height="211.0625" style="stroke:#000000;stroke-width:1;" width="10" x="83.9541" y="476.1094"/></g><g><title>TimeBaseHandler</title><rect fill="#FFFFFF" height="87.3984" style="stroke:#000000;stroke-width:1;" width="10" x="83.9541" y="759.4375"/></g><g><title>TimeBaseHandler</title><rect fill="#FFFFFF" height="79.3984" style="stroke:#000000;stroke-width:1;" width="10" x="83.9541" y="919.1016"/></g><g><title>GPTPRealMachine</title><rect fill="#FFFFFF" height="130.1875" style="stroke:#000000;stroke-width:1;" width="10" x="591.2129" y="273.6563"/></g><g><title>GPTPRealMachine</title><rect fill="#FFFFFF" height="211.0625" style="stroke:#000000;stroke-width:1;" width="10" x="591.2129" y="476.1094"/></g><g><title>GPTPRealMachine</title><rect fill="#FFFFFF" height="29.1328" style="stroke:#000000;stroke-width:1;" width="10" x="591.2129" y="788.5703"/></g><g><title>GPTPRealMachine</title><rect fill="#FFFFFF" height="79.3984" style="stroke:#000000;stroke-width:1;" width="10" x="591.2129" y="919.1016"/></g><g><title>ShmPTPEngine</title><rect fill="#FFFFFF" height="152.7969" style="stroke:#000000;stroke-width:1;" width="10" x="936.2407" y="505.2422"/></g><g><title>GptpIpcReceiver</title><rect fill="#FFFFFF" height="94.5313" style="stroke:#000000;stroke-width:1;" width="10" x="1187.1001" y="534.375"/></g><g><title>MessageBroker</title><rect fill="#FFFFFF" height="87.3984" style="stroke:#000000;stroke-width:1;" width="10" x="1342.9907" y="759.4375"/></g><g><title>TimeBaseHandler</title><rect fill="transparent" height="827.1094" width="8" x="84.9541" y="189.3906"/><line style="stroke:#000000;stroke-width:1;" x1="88" x2="88" y1="189.3906" y2="1016.5"/></g><g><title>GPTPRealMachine</title><rect fill="transparent" height="735.1797" width="8" x="592.2129" y="281.3203"/><line style="stroke:#000000;stroke-width:1;" x1="595.5923" x2="595.5923" y1="281.3203" y2="1016.5"/></g><g><title>ShmPTPEngine</title><rect fill="transparent" height="685.7344" width="8" x="937.2407" y="330.7656"/><line style="stroke:#000000;stroke-width:1;" x1="940.833" x2="940.833" y1="330.7656" y2="1016.5"/></g><g><title>GptpIpcReceiver</title><rect fill="transparent" height="644.4375" width="8" x="1188.1001" y="372.0625"/><line style="stroke:#000000;stroke-width:1;" x1="1192.0903" x2="1192.0903" y1="372.0625" y2="1016.5"/></g><g><title>MessageBroker</title><rect fill="transparent" height="827.1094" width="8" x="1343.9907" y="189.3906"/><line style="stroke:#000000;stroke-width:1;" x1="1347.1099" x2="1347.1099" y1="189.3906" y2="1016.5"/></g><rect fill="#E0FFFF" height="30.2969" rx="2.5" ry="2.5" style="stroke:#000000;stroke-width:1;" width="137.9082" x="20" y="158.0938"/><text fill="#000000" font-family="Verdana" font-size="14" lengthAdjust="spacing" textLength="123.9082" x="27" y="178.0889">TimeBaseHandler</text><rect fill="#E0FFFF" height="30.2969" rx="2.5" ry="2.5" style="stroke:#000000;stroke-width:1;" width="121.7617" x="1287.1099" y="158.0938"/><text fill="#000000" font-family="Verdana" font-size="14" lengthAdjust="spacing" textLength="107.7617" x="1294.1099" y="178.0889">MessageBroker</text><g><title>TimeBaseHandler</title><rect fill="#FFFFFF" height="130.1875" style="stroke:#000000;stroke-width:1;" width="10" x="83.9541" y="273.6563"/></g><g><title>TimeBaseHandler</title><rect fill="#FFFFFF" height="211.0625" style="stroke:#000000;stroke-width:1;" width="10" x="83.9541" y="476.1094"/></g><g><title>TimeBaseHandler</title><rect fill="#FFFFFF" height="87.3984" style="stroke:#000000;stroke-width:1;" width="10" x="83.9541" y="759.4375"/></g><g><title>TimeBaseHandler</title><rect fill="#FFFFFF" height="79.3984" style="stroke:#000000;stroke-width:1;" width="10" x="83.9541" y="919.1016"/></g><g><title>GPTPRealMachine</title><rect fill="#FFFFFF" height="130.1875" style="stroke:#000000;stroke-width:1;" width="10" x="591.2129" y="273.6563"/></g><g><title>GPTPRealMachine</title><rect fill="#FFFFFF" height="211.0625" style="stroke:#000000;stroke-width:1;" width="10" x="591.2129" y="476.1094"/></g><g><title>GPTPRealMachine</title><rect fill="#FFFFFF" height="29.1328" style="stroke:#000000;stroke-width:1;" width="10" x="591.2129" y="788.5703"/></g><g><title>GPTPRealMachine</title><rect fill="#FFFFFF" height="79.3984" style="stroke:#000000;stroke-width:1;" width="10" x="591.2129" y="919.1016"/></g><g><title>ShmPTPEngine</title><rect fill="#FFFFFF" height="152.7969" style="stroke:#000000;stroke-width:1;" width="10" x="936.2407" y="505.2422"/></g><g><title>GptpIpcReceiver</title><rect fill="#FFFFFF" height="94.5313" style="stroke:#000000;stroke-width:1;" width="10" x="1187.1001" y="534.375"/></g><g><title>MessageBroker</title><rect fill="#FFFFFF" height="87.3984" style="stroke:#000000;stroke-width:1;" width="10" x="1342.9907" y="759.4375"/></g><rect fill="#FFFFFF" height="3" style="stroke:#FFFFFF;stroke-width:1;" width="1418.8716" x="5" y="219.957"/><line style="stroke:#000000;stroke-width:0.5;" x1="5" x2="1423.8716" y1="219.957" y2="219.957"/><line style="stroke:#000000;stroke-width:0.5;" x1="5" x2="1423.8716" y1="222.957" y2="222.957"/><rect fill="#FFFFFF" height="23.1328" style="stroke:#000000;stroke-width:1;" width="112.4331" x="658.2192" y="209.3906"/><text fill="#000000" font-family="Verdana" font-size="13" font-weight="bold" lengthAdjust="spacing" textLength="93.9072" x="664.2192" y="225.4575">Construction</text><polygon fill="#000000" points="465.5923,259.6563,475.5923,263.6563,465.5923,267.6563,469.5923,263.6563" style="stroke:#000000;stroke-width:1;"/><line style="stroke:#000000;stroke-width:1;" x1="88.9541" x2="471.5923" y1="263.6563" y2="263.6563"/><text fill="#FF0000" font-family="Verdana" font-size="13" font-weight="bold" lengthAdjust="spacing" textLength="29.9736" x="95.9541" y="258.5903">[01]</text><text fill="#000000" font-family="Verdana" font-size="13" lengthAdjust="spacing" textLength="320.6646" x="129.9277" y="258.5903">CreateGPTPRealMachine("real", "/gptp_ptp_info")</text><rect fill="#F5DEB3" height="46.5938" rx="2.5" ry="2.5" style="stroke:#000000;stroke-width:1;" width="237.2412" x="477.5923" y="242.5234"/><text fill="#000000" font-family="Verdana" font-size="14" lengthAdjust="spacing" textLength="125.6992" x="533.3633" y="262.5186">GPTPRealMachine</text><text fill="#000000" font-family="Verdana" font-size="14" lengthAdjust="spacing" textLength="223.2412" x="484.5923" y="278.8154">(PTPMachine&lt;ShmPTPEngine&gt;)</text><polygon fill="#000000" points="869.833,317.25,879.833,321.25,869.833,325.25,873.833,321.25" style="stroke:#000000;stroke-width:1;"/><line style="stroke:#000000;stroke-width:1;" x1="601.2129" x2="875.833" y1="321.25" y2="321.25"/><text fill="#FF0000" font-family="Verdana" font-size="13" font-weight="bold" lengthAdjust="spacing" textLength="29.9736" x="608.2129" y="316.1841">[02]</text><text fill="#000000" font-family="Verdana" font-size="13" lengthAdjust="spacing" textLength="212.6465" x="642.1865" y="316.1841">ShmPTPEngine("/gptp_ptp_info")</text><rect fill="#F5DEB3" height="30.2969" rx="2.5" ry="2.5" style="stroke:#000000;stroke-width:1;" width="118.8154" x="881.833" y="300.1172"/><text fill="#000000" font-family="Verdana" font-size="14" lengthAdjust="spacing" textLength="104.8154" x="888.833" y="320.1123">ShmPTPEngine</text><polygon fill="#000000" points="1115.0903,358.5469,1125.0903,362.5469,1115.0903,366.5469,1119.0903,362.5469" style="stroke:#000000;stroke-width:1;"/><line style="stroke:#000000;stroke-width:1;" x1="941.2407" x2="1121.0903" y1="362.5469" y2="362.5469"/><text fill="#FF0000" font-family="Verdana" font-size="13" font-weight="bold" lengthAdjust="spacing" textLength="29.9736" x="948.2407" y="357.481">[03]</text><text fill="#000000" font-family="Verdana" font-size="13" lengthAdjust="spacing" textLength="117.876" x="982.2144" y="357.481">GptpIpcReceiver()</text><rect fill="#FFB6C1" height="30.2969" rx="2.5" ry="2.5" style="stroke:#000000;stroke-width:1;" width="130.0195" x="1127.0903" y="341.4141"/><text fill="#000000" font-family="Verdana" font-size="14" lengthAdjust="spacing" textLength="116.0195" x="1134.0903" y="361.4092">GptpIpcReceiver</text><polygon fill="#000000" points="99.9541,399.8438,89.9541,403.8438,99.9541,407.8438,95.9541,403.8438" style="stroke:#000000;stroke-width:1;"/><line style="stroke:#000000;stroke-width:1;stroke-dasharray:2.0,2.0;" x1="93.9541" x2="595.2129" y1="403.8438" y2="403.8438"/><text fill="#FF0000" font-family="Verdana" font-size="13" font-weight="bold" lengthAdjust="spacing" textLength="29.9736" x="105.9541" y="398.7778">[04]</text><text fill="#000000" font-family="Verdana" font-size="13" lengthAdjust="spacing" textLength="4.1323" x="139.9277" y="398.7778">&#160;</text><rect fill="#FFFFFF" height="3" style="stroke:#FFFFFF;stroke-width:1;" width="1418.8716" x="5" y="432.4102"/><line style="stroke:#000000;stroke-width:0.5;" x1="5" x2="1423.8716" y1="432.4102" y2="432.4102"/><line style="stroke:#000000;stroke-width:0.5;" x1="5" x2="1423.8716" y1="435.4102" y2="435.4102"/><rect fill="#FFFFFF" height="23.1328" style="stroke:#000000;stroke-width:1;" width="110.624" x="659.1238" y="421.8438"/><text fill="#000000" font-family="Verdana" font-size="13" font-weight="bold" lengthAdjust="spacing" textLength="92.0981" x="665.1238" y="437.9106">Initialization</text><polygon fill="#000000" points="579.2129,472.1094,589.2129,476.1094,579.2129,480.1094,583.2129,476.1094" style="stroke:#000000;stroke-width:1;"/><line style="stroke:#000000;stroke-width:1;" x1="93.9541" x2="585.2129" y1="476.1094" y2="476.1094"/><text fill="#FF0000" font-family="Verdana" font-size="13" font-weight="bold" lengthAdjust="spacing" textLength="29.9736" x="100.9541" y="471.0435">[05]</text><text fill="#000000" font-family="Verdana" font-size="13" lengthAdjust="spacing" textLength="30.9258" x="134.9277" y="471.0435">Init()</text><polygon fill="#000000" points="924.2407,501.2422,934.2407,505.2422,924.2407,509.2422,928.2407,505.2422" style="stroke:#000000;stroke-width:1;"/><line style="stroke:#000000;stroke-width:1;" x1="601.2129" x2="930.2407" y1="505.2422" y2="505.2422"/><text fill="#FF0000" font-family="Verdana" font-size="13" font-weight="bold" lengthAdjust="spacing" textLength="29.9736" x="608.2129" y="500.1763">[06]</text><text fill="#000000" font-family="Verdana" font-size="13" lengthAdjust="spacing" textLength="64.5493" x="642.1865" y="500.1763">Initialize()</text><polygon fill="#000000" points="1175.1001,530.375,1185.1001,534.375,1175.1001,538.375,1179.1001,534.375" style="stroke:#000000;stroke-width:1;"/><line style="stroke:#000000;stroke-width:1;" x1="946.2407" x2="1181.1001" y1="534.375" y2="534.375"/><text fill="#FF0000" font-family="Verdana" font-size="13" font-weight="bold" lengthAdjust="spacing" textLength="29.9736" x="953.2407" y="529.3091">[07]</text><text fill="#000000" font-family="Verdana" font-size="13" lengthAdjust="spacing" textLength="136.1001" x="987.2144" y="529.3091">Init("/gptp_ptp_info")</text><path d="M1202,547.375 L1202,602.375 L1415,602.375 L1415,557.375 L1405,547.375 L1202,547.375 " fill="#FFFFFF" style="stroke:#000000;stroke-width:1;"/><path d="M1405,547.375 L1405,557.375 L1415,557.375 L1405,547.375 " fill="#FFFFFF" style="stroke:#000000;stroke-width:1;"/><text fill="#000000" font-family="Verdana" font-size="13" lengthAdjust="spacing" textLength="147.6782" x="1208" y="564.4419">shm_open(O_RDONLY)</text><text fill="#000000" font-family="Verdana" font-size="13" lengthAdjust="spacing" textLength="129.3843" x="1208" y="579.5747">mmap(PROT_READ)</text><text fill="#000000" font-family="Verdana" font-size="13" lengthAdjust="spacing" textLength="192.8735" x="1208" y="594.7075">verify magic == 0x47505450</text><polygon fill="#000000" points="957.2407,624.9063,947.2407,628.9063,957.2407,632.9063,953.2407,628.9063" style="stroke:#000000;stroke-width:1;"/><line style="stroke:#000000;stroke-width:1;stroke-dasharray:2.0,2.0;" x1="951.2407" x2="1191.1001" y1="628.9063" y2="628.9063"/><text fill="#FF0000" font-family="Verdana" font-size="13" font-weight="bold" lengthAdjust="spacing" textLength="29.9736" x="963.2407" y="623.8403">[08]</text><text fill="#000000" font-family="Verdana" font-size="13" lengthAdjust="spacing" textLength="70.2495" x="997.2144" y="623.8403">true / false</text><polygon fill="#000000" points="612.2129,654.0391,602.2129,658.0391,612.2129,662.0391,608.2129,658.0391" style="stroke:#000000;stroke-width:1;"/><line style="stroke:#000000;stroke-width:1;stroke-dasharray:2.0,2.0;" x1="606.2129" x2="940.2407" y1="658.0391" y2="658.0391"/><text fill="#FF0000" font-family="Verdana" font-size="13" font-weight="bold" lengthAdjust="spacing" textLength="29.9736" x="618.2129" y="652.9731">[09]</text><text fill="#000000" font-family="Verdana" font-size="13" lengthAdjust="spacing" textLength="4.1323" x="652.1865" y="652.9731">&#160;</text><polygon fill="#000000" points="99.9541,683.1719,89.9541,687.1719,99.9541,691.1719,95.9541,687.1719" style="stroke:#000000;stroke-width:1;"/><line style="stroke:#000000;stroke-width:1;stroke-dasharray:2.0,2.0;" x1="93.9541" x2="595.2129" y1="687.1719" y2="687.1719"/><text fill="#FF0000" font-family="Verdana" font-size="13" font-weight="bold" lengthAdjust="spacing" textLength="29.9736" x="105.9541" y="682.106">[10]</text><text fill="#000000" font-family="Verdana" font-size="13" lengthAdjust="spacing" textLength="4.1323" x="139.9277" y="682.106">&#160;</text><rect fill="#FFFFFF" height="3" style="stroke:#FFFFFF;stroke-width:1;" width="1418.8716" x="5" y="715.7383"/><line style="stroke:#000000;stroke-width:0.5;" x1="5" x2="1423.8716" y1="715.7383" y2="715.7383"/><line style="stroke:#000000;stroke-width:0.5;" x1="5" x2="1423.8716" y1="718.7383" y2="718.7383"/><rect fill="#FFFFFF" height="23.1328" style="stroke:#000000;stroke-width:1;" width="132.3711" x="648.2502" y="705.1719"/><text fill="#000000" font-family="Verdana" font-size="13" font-weight="bold" lengthAdjust="spacing" textLength="113.8452" x="654.2502" y="721.2388">Setup Producer</text><polygon fill="#000000" points="1330.9907,755.4375,1340.9907,759.4375,1330.9907,763.4375,1334.9907,759.4375" style="stroke:#000000;stroke-width:1;"/><line style="stroke:#000000;stroke-width:1;" x1="93.9541" x2="1336.9907" y1="759.4375" y2="759.4375"/><text fill="#FF0000" font-family="Verdana" font-size="13" font-weight="bold" lengthAdjust="spacing" textLength="29.9736" x="100.9541" y="754.3716">[11]</text><text fill="#000000" font-family="Verdana" font-size="13" lengthAdjust="spacing" textLength="279.6841" x="134.9277" y="754.3716">subscribe machine to "raw_ptp_data" topic</text><polygon fill="#000000" points="612.2129,784.5703,602.2129,788.5703,612.2129,792.5703,608.2129,788.5703" style="stroke:#000000;stroke-width:1;"/><line style="stroke:#000000;stroke-width:1;" x1="606.2129" x2="1341.9907" y1="788.5703" y2="788.5703"/><text fill="#FF0000" font-family="Verdana" font-size="13" font-weight="bold" lengthAdjust="spacing" textLength="29.9736" x="618.2129" y="783.5044">[12]</text><text fill="#000000" font-family="Verdana" font-size="13" lengthAdjust="spacing" textLength="262.2661" x="652.1865" y="783.5044">SetPublishCallback(broker::OnNewData)</text><polygon fill="#000000" points="1330.9907,813.7031,1340.9907,817.7031,1330.9907,821.7031,1334.9907,817.7031" style="stroke:#000000;stroke-width:1;"/><line style="stroke:#000000;stroke-width:1;stroke-dasharray:2.0,2.0;" x1="596.2129" x2="1336.9907" y1="817.7031" y2="817.7031"/><text fill="#FF0000" font-family="Verdana" font-size="13" font-weight="bold" lengthAdjust="spacing" textLength="29.9736" x="603.2129" y="812.6372">[13]</text><text fill="#000000" font-family="Verdana" font-size="13" lengthAdjust="spacing" textLength="4.1323" x="637.1865" y="812.6372">&#160;</text><polygon fill="#000000" points="99.9541,842.8359,89.9541,846.8359,99.9541,850.8359,95.9541,846.8359" style="stroke:#000000;stroke-width:1;"/><line style="stroke:#000000;stroke-width:1;stroke-dasharray:2.0,2.0;" x1="93.9541" x2="1346.9907" y1="846.8359" y2="846.8359"/><text fill="#FF0000" font-family="Verdana" font-size="13" font-weight="bold" lengthAdjust="spacing" textLength="29.9736" x="105.9541" y="841.77">[14]</text><text fill="#000000" font-family="Verdana" font-size="13" lengthAdjust="spacing" textLength="4.1323" x="139.9277" y="841.77">&#160;</text><rect fill="#FFFFFF" height="3" style="stroke:#FFFFFF;stroke-width:1;" width="1418.8716" x="5" y="875.4023"/><line style="stroke:#000000;stroke-width:0.5;" x1="5" x2="1423.8716" y1="875.4023" y2="875.4023"/><line style="stroke:#000000;stroke-width:0.5;" x1="5" x2="1423.8716" y1="878.4023" y2="878.4023"/><rect fill="#FFFFFF" height="23.1328" style="stroke:#000000;stroke-width:1;" width="197.3774" x="615.7471" y="864.8359"/><text fill="#000000" font-family="Verdana" font-size="13" font-weight="bold" lengthAdjust="spacing" textLength="178.8516" x="621.7471" y="880.9028">Start Periodic Operation</text><polygon fill="#000000" points="579.2129,915.1016,589.2129,919.1016,579.2129,923.1016,583.2129,919.1016" style="stroke:#000000;stroke-width:1;"/><line style="stroke:#000000;stroke-width:1;" x1="93.9541" x2="585.2129" y1="919.1016" y2="919.1016"/><text fill="#FF0000" font-family="Verdana" font-size="13" font-weight="bold" lengthAdjust="spacing" textLength="29.9736" x="100.9541" y="914.0356">[15]</text><text fill="#000000" font-family="Verdana" font-size="13" lengthAdjust="spacing" textLength="41.9009" x="134.9277" y="914.0356">Start()</text><line style="stroke:#000000;stroke-width:1;" x1="601.2129" x2="643.2129" y1="952.3008" y2="952.3008"/><line style="stroke:#000000;stroke-width:1;" x1="643.2129" x2="643.2129" y1="952.3008" y2="965.3008"/><line style="stroke:#000000;stroke-width:1;" x1="602.2129" x2="643.2129" y1="965.3008" y2="965.3008"/><polygon fill="#000000" points="612.2129,961.3008,602.2129,965.3008,612.2129,969.3008,608.2129,965.3008" style="stroke:#000000;stroke-width:1;"/><text fill="#FF0000" font-family="Verdana" font-size="13" font-weight="bold" lengthAdjust="spacing" textLength="29.9736" x="608.2129" y="947.2349">[16]</text><text fill="#000000" font-family="Verdana" font-size="13" lengthAdjust="spacing" textLength="133.6118" x="642.1865" y="947.2349">start periodic thread</text><path d="M797.5854,932.1016 L797.5854,972.1016 L976.5854,972.1016 L976.5854,942.1016 L966.5854,932.1016 L797.5854,932.1016 " fill="#FFFFFF" style="stroke:#000000;stroke-width:1;"/><path d="M966.5854,932.1016 L966.5854,942.1016 L976.5854,942.1016 L966.5854,932.1016 " fill="#FFFFFF" style="stroke:#000000;stroke-width:1;"/><text fill="#000000" font-family="Verdana" font-size="13" lengthAdjust="spacing" textLength="158.6724" x="803.5854" y="949.1685">Begin periodic IPC reads</text><text fill="#000000" font-family="Verdana" font-size="13" lengthAdjust="spacing" textLength="137.6934" x="803.5854" y="964.3013">from shared memory</text><polygon fill="#000000" points="99.9541,994.5,89.9541,998.5,99.9541,1002.5,95.9541,998.5" style="stroke:#000000;stroke-width:1;"/><line style="stroke:#000000;stroke-width:1;stroke-dasharray:2.0,2.0;" x1="93.9541" x2="595.2129" y1="998.5" y2="998.5"/><text fill="#FF0000" font-family="Verdana" font-size="13" font-weight="bold" lengthAdjust="spacing" textLength="29.9736" x="105.9541" y="993.4341">[17]</text><text fill="#000000" font-family="Verdana" font-size="13" lengthAdjust="spacing" textLength="4.1323" x="139.9277" y="993.4341">&#160;</text><rect fill="transparent" height="79.1875" id="_legend" rx="7.5" ry="7.5" style="stroke:#000000;stroke-width:1;" width="271.0029" x="10" y="56.6094"/><text fill="#000000" font-family="Verdana" font-size="14" font-weight="bold" lengthAdjust="spacing" textLength="41.2139" x="19.874" y="76.6045">Color</text><text fill="#000000" font-family="Verdana" font-size="14" font-weight="bold" lengthAdjust="spacing" textLength="90.5488" x="119.5762" y="76.6045">Description</text><rect fill="#E0FFFF" height="16.2969" style="stroke:transparent;stroke-width:1;" width="99.7021" x="15" y="79.9063"/><text fill="#000000" font-family="Verdana" font-size="14" lengthAdjust="spacing" textLength="22.251" x="15" y="92.9014">&#160;&#160;&#160;&#160;&#160;</text><text fill="#000000" font-family="Verdana" font-size="14" lengthAdjust="spacing" textLength="93.7412" x="119.1523" y="92.9014">TimeDaemon</text><rect fill="#F5DEB3" height="16.2969" style="stroke:transparent;stroke-width:1;" width="99.7021" x="15" y="96.2031"/><text fill="#000000" font-family="Verdana" font-size="14" lengthAdjust="spacing" textLength="40.0518" x="15" y="109.1982">&#160;&#160;&#160;&#160;&#160;&#160;&#160;&#160;&#160;</text><text fill="#000000" font-family="Verdana" font-size="14" lengthAdjust="spacing" textLength="125.6992" x="119.1523" y="109.1982">GPTPRealMachine</text><rect fill="#FFB6C1" height="16.2969" style="stroke:transparent;stroke-width:1;" width="99.7021" x="15" y="112.5"/><text fill="#000000" font-family="Verdana" font-size="14" lengthAdjust="spacing" textLength="22.251" x="15" y="125.4951">&#160;&#160;&#160;&#160;&#160;</text><text fill="#000000" font-family="Verdana" font-size="14" lengthAdjust="spacing" textLength="101.4316" x="119.1523" y="125.4951">libTSClient IPC</text><line style="stroke:#000000;stroke-width:1;" x1="15" x2="276.0029" y1="63.6094" y2="63.6094"/><line style="stroke:#000000;stroke-width:1;" x1="15" x2="276.0029" y1="79.9063" y2="79.9063"/><line style="stroke:#000000;stroke-width:1;" x1="15" x2="276.0029" y1="96.2031" y2="96.2031"/><line style="stroke:#000000;stroke-width:1;" x1="15" x2="276.0029" y1="112.5" y2="112.5"/><line style="stroke:#000000;stroke-width:1;" x1="15" x2="276.0029" y1="128.7969" y2="128.7969"/><line style="stroke:#000000;stroke-width:1;" x1="15" x2="15" y1="63.6094" y2="128.7969"/><line style="stroke:#000000;stroke-width:1;" x1="114.7021" x2="114.7021" y1="63.6094" y2="128.7969"/><line style="stroke:#000000;stroke-width:1;" x1="276.0029" x2="276.0029" y1="63.6094" y2="128.7969"/><!--SRC=[dLNRQjj047tVhvYgBt9eY1yI2iOsD7P80qaiR4CfRJ4hQMGjaNRLrIet-l6TrTsN1bA1G3jxvd9cpgu-c1XJX2pXGZ9cX4aGLd7ghRqhkHKIHt0ZXH4y4Q_S22LXXRyBb04o5eiG8LBA-EgPyS8eMQG-Qd36aP860fKeFT4OJiV-zCTm-CjXBC4joX2CoY31o32Wvyy4PXOAtKEcEUQ15bcPiZLNU1X_l1NRsCnUk9nM6x0MASuvfZrq7_yjHcwctGPS4y4bykIE1p6nF9x04_AXIP08VxsQ9GA9sOqtQns8JaMAiOnh8mAHSO8ujg1BdkDNRW7Q0Pw3yQ6hV1U-LyzFwPAXNepxyvWEob1fNNV5R3TM7rw2iVmyYhtEJ7QJ1KiCK3pMPUfw0LqNTftkCC_v5Y-rUgXT_FAppuvDx5XbRdGHb4ESJ4XUFfnEszfFJc04CqqruHvzro5hudm2vsnB1MxiAsIad07Z5EsHFAYPtNSTaJMHAKdDkSpHRuXx6BA6abFBl7JRwuqxwE8JblA7U511pqG0suIzutFOXkg4kU-crZkPsFUkje-ngZEzqTG6ogIoApjDK55djfhFutIZCfJkOhESB-vllmzASvhopFMMY_LcUVLbNjd8HKGln64h0c8Em-VppnV3Y_EBeJqtO9EmjhhJFZMI3S8PH3p9TvhQLjBGwnhPXzKz-9zvhT0K6NXQXKL0LNNpgZK-WhpmxTtajr7eFWD7ywUofI4ttB4td0YEJxIAm-fmEqAWt5xX9oAFPpn9V1uyk1LiD5h8UtoQK-p16zfegpn6jKbuq8j3bwOLXauzU3H45T805ndgVuku1Bz3nPrdNgR9cZGcfiCVzXHOIkaIQQ8To5x15fQNcv5MAUcIqyy6Kle9w9TEN-_Lm5y0]--></g></svg>